{
.appVersion = "3091";
.formatVersion = 3;
axes = (
{
name = Weight;
tag = wght;
},
{
name = Slant;
tag = slnt;
}
);
classes = (
{
automatic = 1;

glyphs = (
{
glyphname = .notdef;
lastChange = "2020-09-15 16:22:47 +0000";
layers = (
{
layerId = "3BB16070-9AE0-46D6-9B05-19A363C2D547";
shapes = (
{
closed = 1;
nodes = (
(1020,0,l),
(1020,1400,l),
(212,1400,l),
(212,0,l)
);
},
{
closed = 1;
nodes = (
(284,1334,l),
(948,1334,l),
(948,66,l),
(284,66,l)
);
},
{
closed = 1;
nodes = (
(1002,36,l),
(306,1364,l),
(228,1364,l),
(924,36,l)
);
},
{
closed = 1;
nodes = (
(306,36,l),
(1002,1364,l),
(924,1364,l),
(228,36,l)
);
}
);
width = 1232;
},
{
layerId = "1D708A55-1947-4475-A0A3-21124B6DD42B";
shapes = (
{
closed = 1;
nodes = (
(1114,0,l),
(1114,1400,l),
(146,1400,l),
(146,0,l)
);
},
{
closed = 1;
nodes = (
(406,1140,l),
(854,1140,l),
(854,260,l),
(406,260,l)
);
},
{
closed = 1;
nodes = (
(1022,126,l),
(430,1274,l),
(238,1274,l),
(830,126,l)
);
},
{
closed = 1;
nodes = (
(430,126,l),
(1022,1274,l),
(830,1274,l),
(238,126,l)
);
}
);
width = 1232;
},
{
layerId = "42555ED7-786B-4551-A9FC-B380F510FD49";
shapes = (
{
closed = 1;
nodes = (
(1106,0,l),
(1106,1400,l),
(298,1400,l),
(298,0,l)
);
},
{
closed = 1;
nodes = (
(370,1334,l),
(1034,1334,l),
(1034,66,l),
(370,66,l)
);
},
{
closed = 1;
nodes = (
(1088,36,l),
(392,1364,l),
(314,1364,l),
(1010,36,l)
);
},
{
closed = 1;
nodes = (
(392,36,l),
(1088,1364,l),
(1010,1364,l),
(314,36,l)
);
}
);
width = 1232;
},
{
layerId = "DEEEE81F-2F80-4306-8755-EEA92C96C68A";
shapes = (
{
closed = 1;
nodes = (
(1224,0,l),
(1224,1400,l),
(256,1400,l),
(256,0,l)
);
},
{
closed = 1;
nodes = (
(516,1140,l),
(964,1140,l),
(964,260,l),
(516,260,l)
);
},
{
closed = 1;
nodes = (
(1132,126,l),
(540,1274,l),
(348,1274,l),
(940,126,l)
);
},
{
closed = 1;
nodes = (
(540,126,l),
(1132,1274,l),
(940,1274,l),
(348,126,l)
);
}
);
width = 1232;
},
{
layerId = "07B4BFD6-AD6C-43B6-9499-C92B9E22D320";
shapes = (
{
closed = 1;
nodes = (
(1036,0,l),
(1036,1400,l),
(196,1400,l),
(196,0,l)
);
},
{
closed = 1;
nodes = (
(370,1234,l),
(862,1234,l),
(862,166,l),
(370,166,l)
);
},
{
closed = 1;
nodes = (
(962,126,l),
(438,1274,l),
(272,1274,l),
(796,126,l)
);
},
{
closed = 1;
nodes = (
(438,126,l),
(962,1274,l),
(796,1274,l),
(272,126,l)
);
}
);
width = 1232;
},
{
layerId = "77C27521-0479-4645-83A2-7244263DD4C5";
shapes = (
{
closed = 1;
nodes = (
(1154,0,l),
(1154,1400,l),
(330,1400,l),
(330,0,l)
);
},
{
closed = 1;
nodes = (
(486,1250,l),
(996,1250,l),
(996,150,l),
(486,150,l)
);
},
{
closed = 1;
nodes = (
(1078,126,l),
(554,1274,l),
(408,1274,l),
(932,126,l)
);
},
{
closed = 1;
nodes = (
(554,126,l),
(1078,1274,l),
(932,1274,l),
(408,126,l)
);
}
);
width = 1232;
}
);
},
{
glyphname = eth;
kernLeft = ograve;
kernRight = ograve;
lastChange = "2020-09-15 16:22:47 +0000";
layers = (
{
layerId = "3BB16070-9AE0-46D6-9B05-19A363C2D547";
shapes = (
{
closed = 1;
nodes = (
(792,-24,o),
(944,172,o),
(944,534,cs),
(944,862,o),
(852,1118,o),
(646,1278,c),
(770,1410,l),
(724,1454,l),
(594,1314,l),
(508,1366,o),
(404,1404,o),
(284,1424,c),
(284,1354,l),
(382,1340,o),
(470,1308,o),
(544,1262,c),
(412,1118,l),
(456,1074,l),
(600,1226,l),
(752,1110,o),
(846,912,o),
(866,670,c),
(830,804,o),
(716,912,o),
(538,912,cs),
(308,912,o),
(136,724,o),
(136,442,cs),
(136,174,o),
(292,-24,o),
(538,-24,cs)
);
},
{
closed = 1;
nodes = (
(338,48,o),
(214,218,o),
(214,442,cs),
(214,674,o),
(352,840,o),
(538,840,cs),
(732,840,o),
(862,664,o),
(862,440,cs),
(862,218,o),
(742,48,o),
(538,48,cs)
);
}
);
width = 1080;
},
{
layerId = "1D708A55-1947-4475-A0A3-21124B6DD42B";
shapes = (
{
closed = 1;
nodes = (
(880,-24,o),
(1044,216,o),
(1044,554,cs),
(1044,836,o),
(978,1088,o),
(788,1248,c),
(870,1334,l),
(718,1478,l),
(602,1358,l),
(502,1396,o),
(384,1420,o),
(240,1424,c),
(240,1160,l),
(300,1158,o),
(352,1152,o),
(398,1144,c),
(344,1088,l),
(500,946,l),
(602,1054,l),
(662,1000,o),
(692,930,o),
(712,852,c),
(676,882,o),
(614,902,o),
(534,902,cs),
(256,902,o),
(100,688,o),
(100,442,cs),
(100,172,o),
(296,-24,o),
(574,-24,cs)
);
},
{
closed = 1;
nodes = (
(478,266,o),
(400,340,o),
(400,442,cs),
(400,554,o),
(476,622,o),
(572,622,cs),
(670,622,o),
(746,554,o),
(746,440,cs),
(746,340,o),
(674,266,o),
(574,266,cs)
);
}
);
width = 1144;
},
{
layerId = "42555ED7-786B-4551-A9FC-B380F510FD49";
shapes = (
{
closed = 1;
nodes = (
(801,-24,o),
(991,234,o),
(991,704,cs),
(991,946,o),
(937,1148,o),
(793,1278,c),
(933,1410,l),
(895,1454,l),
(747,1314,l),
(667,1366,o),
(571,1404,o),
(453,1424,c),
(441,1360,l),
(537,1344,o),
(627,1312,o),
(695,1266,c),
(537,1118,l),
(575,1074,l),
(743,1230,l),
(871,1116,o),
(927,948,o),
(927,690,c),
(903,798,o),
(819,912,o),
(641,912,cs),
(389,912,o),
(175,688,o),
(175,374,cs),
(175,148,o),
(297,-24,o),
(507,-24,cs)
);
},
{
closed = 1;
nodes = (
(349,48,o),
(253,188,o),
(253,378,cs),
(253,642,o),
(423,840,o),
(623,840,cs),
(789,840,o),
(887,694,o),
(887,502,cs),
(887,256,o),
(741,48,o),
(519,48,cs)
);
}
);
width = 1025;
},
{
layerId = "DEEEE81F-2F80-4306-8755-EEA92C96C68A";
shapes = (
{
closed = 1;
nodes = (
(941,-24,o),
(1117,292,o),
(1117,674,cs),
(1117,936,o),
(1063,1110,o),
(969,1226,c),
(1077,1324,l),
(951,1478,l),
(817,1356,l),
(719,1408,o),
(609,1424,o),
(489,1424,c),
(443,1186,l),
(493,1186,o),
(549,1180,o),
(601,1162,c),
(507,1076,l),
(637,926,l),
(767,1042,l),
(795,1002,o),
(823,960,o),
(831,882,c),
(785,906,o),
(707,912,o),
(645,912,cs),
(365,912,o),
(147,668,o),
(147,386,cs),
(147,144,o),
(309,-24,o),
(557,-24,cs)
);
},
{
closed = 1;
nodes = (
(505,258,o),
(437,330,o),
(437,414,cs),
(437,542,o),
(531,632,o),
(653,632,cs),
(743,632,o),
(805,568,o),
(805,476,cs),
(805,348,o),
(703,258,o),
(589,258,cs)
);
}
);
width = 1086;
},
{
layerId = "07B4BFD6-AD6C-43B6-9499-C92B9E22D320";
shapes = (
{
closed = 1;
nodes = (
(858,-24,o),
(1010,206,o),
(1010,538,cs),
(1010,864,o),
(902,1118,o),
(714,1268,c),
(812,1372,l),
(722,1460,l),
(606,1338,l),
(510,1388,o),
(392,1418,o),
(268,1424,c),
(268,1284,l),
(356,1278,o),
(434,1258,o),
(502,1226,c),
(394,1110,l),
(482,1024,l),
(610,1160,l),
(732,1064,o),
(806,920,o),
(832,756,c),
(788,838,o),
(692,912,o),
(548,912,cs),
(302,912,o),
(106,722,o),
(106,442,cs),
(106,174,o),
(290,-24,o),
(558,-24,cs)
);
},
{
closed = 1;
nodes = (
(406,138,o),
(282,268,o),
(282,442,cs),
(282,624,o),
(402,752,o),
(556,752,cs),
(716,752,o),
(834,618,o),
(834,440,cs),
(834,268,o),
(712,138,o),
(558,138,cs)
);
}
);
width = 1116;
},
{
layerId = "77C27521-0479-4645-83A2-7244263DD4C5";
shapes = (
{
closed = 1;
nodes = (
(865,-24,o),
(1069,268,o),
(1069,722,cs),
(1069,960,o),
(1003,1150,o),
(889,1266,c),
(1005,1372,l),
(935,1458,l),
(805,1336,l),
(721,1388,o),
(611,1416,o),
(501,1424,c),
(475,1292,l),
(557,1286,o),
(631,1264,o),
(689,1230,c),
(565,1112,l),
(631,1026,l),
(779,1162,l),
(879,1066,o),
(915,904,o),
(915,766,c),
(881,844,o),
(813,912,o),
(669,912,cs),
(393,912,o),
(163,686,o),
(163,370,cs),
(163,140,o),
(297,-24,o),
(525,-24,cs)
);
},
{
closed = 1;
nodes = (
(413,134,o),
(337,226,o),
(337,382,cs),
(337,598,o),
(491,756,o),
(657,756,cs),
(791,756,o),
(869,652,o),
(869,500,cs),
(869,292,o),
(711,134,o),
(549,134,cs)
);
}
);
width = 1053;
}
);
metricLeft = o;
metricRight = o;
unicode = 240;
},
{
glyphname = Lslash;
kernLeft = Eth;
kernRight = L;
lastChange = "2020-09-15 16:22:47 +0000";
layers = (
{
layerId = "3BB16070-9AE0-46D6-9B05-19A363C2D547";
shapes = (
{
closed = 1;
nodes = (
(986,0,l),
(986,66,l),
(292,66,l),
(292,652,l),
(548,852,l),
(548,932,l),
(292,734,l),
(292,1400,l),
(220,1400,l),
(220,678,l),
(70,562,l),
(70,482,l),
(220,598,l),
(220,0,l)
);
}
);
width = 1066;
},
{
layerId = "1D708A55-1947-4475-A0A3-21124B6DD42B";
shapes = (
{
closed = 1;
nodes = (
(1132,0,l),
(1132,306,l),
(462,306,l),
(462,612,l),
(772,844,l),
(772,1186,l),
(462,950,l),
(462,1400,l),
(146,1400,l),
(146,716,l),
(20,622,l),
(20,276,l),
(146,374,l),
(146,0,l)
);
}
);
width = 1142;
},
{
layerId = "42555ED7-786B-4551-A9FC-B380F510FD49";
shapes = (
{
closed = 1;
nodes = (
(924,0,l),
(936,66,l),
(260,66,l),
(364,654,l),
(654,852,l),
(670,932,l),
(376,732,l),
(494,1400,l),
(422,1400,l),
(294,678,l),
(124,562,l),
(110,482,l),
(280,598,l),
(174,0,l)
);
}
);
width = 1022;
},
{
layerId = "DEEEE81F-2F80-4306-8755-EEA92C96C68A";
shapes = (
{
closed = 1;
nodes = (
(1060,0,l),
(1112,288,l),
(476,288,l),
(536,628,l),
(842,836,l),
(910,1172,l),
(594,954,l),
(674,1400,l),
(364,1400,l),
(242,716,l),
(114,626,l),
(46,288,l),
(184,388,l),
(118,0,l)
);
}
);
width = 1048;
},
{
layerId = "07B4BFD6-AD6C-43B6-9499-C92B9E22D320";
shapes = (
{
closed = 1;
nodes = (
(1058,0,l),
(1058,168,l),
(370,168,l),
(370,648,l),
(608,832,l),
(608,1024,l),
(370,842,l),
(370,1400,l),
(196,1400,l),
(196,702,l),
(50,594,l),
(50,402,l),
(196,510,l),
(196,0,l)
);
}
);
width = 1118;
},
{
layerId = "77C27521-0479-4645-83A2-7244263DD4C5";
shapes = (
{
closed = 1;
nodes = (
(1014,0,l),
(1044,164,l),
(384,164,l),
(470,654,l),
(720,830,l),
(756,1020,l),
(504,846,l),
(600,1400,l),
(430,1400,l),
(308,702,l),
(152,594,l),
(116,404,l),
(274,512,l),
(184,0,l)
);
}
);
width = 1072;
}
);
metricRight = L;
unicode = 321;
},
{
glyphname = lslash;
kernLeft = lslash;
kernRight = lslash;
lastChange = "2020-09-15 16:22:47 +0000";
layers = (
{
layerId = "3BB16070-9AE0-46D6-9B05-19A363C2D547";
shapes = (
{
closed = 1;
nodes = (
(268,0,l),
(268,640,l),
(430,764,l),
(430,842,l),
(268,718,l),
(268,1444,l),
(196,1408,l),
(196,664,l),
(56,556,l),
(56,478,l),
(196,586,l),
(196,0,l)
);
}
);
width = 486;
},
{
layerId = "1D708A55-1947-4475-A0A3-21124B6DD42B";
shapes = (
{
closed = 1;
nodes = (
(456,0,l),
(456,602,l),
(566,682,l),
(566,988,l),
(456,908,l),
(456,1444,l),
(156,1304,l),
(156,680,l),
(54,602,l),
(54,296,l),
(156,374,l),
(156,0,l)
);
}
);
width = 620;
},
{
layerId = "42555ED7-786B-4551-A9FC-B380F510FD49";
shapes = (
{
closed = 1;
nodes = (
(242,0,l),
(354,640,l),
(528,756,l),
(542,834,l),
(366,716,l),
(494,1444,l),
(416,1408,l),
(284,662,l),
(110,546,l),
(96,468,l),
(272,586,l),
(168,0,l)
);
}
);
width = 444;
},
{
layerId = "DEEEE81F-2F80-4306-8755-EEA92C96C68A";
shapes = (
{
closed = 1;
nodes = (
(408,0,l),
(518,610,l),
(636,688,l),
(688,982,l),
(570,898,l),
(664,1444,l),
(360,1352,l),
(242,676,l),
(128,600,l),
(76,306,l),
(190,380,l),
(124,0,l)
);
}
);
width = 546;
},
{
layerId = "07B4BFD6-AD6C-43B6-9499-C92B9E22D320";
shapes = (
{
closed = 1;
nodes = (
(350,0,l),
(350,646,l),
(476,742,l),
(476,898,l),
(350,802,l),
(350,1444,l),
(176,1362,l),
(176,672,l),
(50,574,l),
(50,418,l),
(176,516,l),
(176,0,l)
);
}
);
width = 526;
},
{
layerId = "77C27521-0479-4645-83A2-7244263DD4C5";
shapes = (
{
closed = 1;
nodes = (
(338,0,l),
(452,646,l),
(592,746,l),
(620,898,l),
(478,800,l),
(592,1444,l),
(412,1378,l),
(286,672,l),
(146,572,l),
(118,420,l),
(260,518,l),
(168,0,l)
);
}
);
width = 510;
}
);
unicode = 322;
},
{
glyphname = Thorn;
kernLeft = B;
kernRight = Thorn;
lastChange = "2020-09-15 16:22:47 +0000";
layers = (
{
layerId = "3BB16070-9AE0-46D6-9B05-19A363C2D547";
shapes = (
{
closed = 1;
nodes = (
(292,0,l),
(292,300,l),
(656,300,ls),
(980,300,o),
(1098,524,o),
(1098,710,cs),
(1098,916,o),
(990,1122,o),
(656,1122,cs),
(292,1122,l),
(292,1400,l),
(220,1400,l),
(220,0,l)
);
},
{
closed = 1;
nodes = (
(292,1050,l),
(658,1050,ls),
(934,1050,o),
(1020,878,o),
(1020,710,cs),
(1020,556,o),
(924,372,o),
(658,372,cs),
(292,372,l)
);
}
);
width = 1198;
},
{
layerId = "1D708A55-1947-4475-A0A3-21124B6DD42B";
shapes = (
{
closed = 1;
nodes = (
(462,0,l),
(462,260,l),
(778,260,ls),
(1126,260,o),
(1264,502,o),
(1264,712,cs),
(1264,936,o),
(1138,1164,o),
(778,1164,cs),
(462,1164,l),
(462,1400,l),
(146,1400,l),
(146,0,l)
);
},
{
closed = 1;
nodes = (
(462,866,l),
(786,866,ls),
(900,866,o),
(936,778,o),
(936,712,cs),
(936,640,o),
(894,558,o),
(786,558,cs),
(462,558,l)
);
}
);
width = 1308;
},
{
layerId = "42555ED7-786B-4551-A9FC-B380F510FD49";
shapes = (
{
closed = 1;
nodes = (
(250,0,l),
(302,300,l),
(668,300,ls),
(1038,300,o),
(1188,560,o),
(1188,774,cs),
(1188,948,o),
(1092,1122,o),
(810,1122,cs),
(448,1122,l),
(494,1400,l),
(420,1400,l),
(176,0,l)
);
},
{
closed = 1;
nodes = (
(434,1050,l),
(798,1050,ls),
(1030,1050,o),
(1106,914,o),
(1106,774,cs),
(1106,596,o),
(984,372,o),
(674,372,cs),
(314,372,l)
);
}
);
width = 1160;
},
{
layerId = "DEEEE81F-2F80-4306-8755-EEA92C96C68A";
shapes = (
{
closed = 1;
nodes = (
(426,0,l),
(474,264,l),
(812,264,ls),
(1142,264,o),
(1336,480,o),
(1336,746,cs),
(1336,926,o),
(1240,1162,o),
(934,1162,cs),
(634,1162,l),
(676,1400,l),
(366,1400,l),
(120,0,l)
);
},
{
closed = 1;
nodes = (
(582,874,l),
(896,874,ls),
(990,874,o),
(1022,810,o),
(1022,720,cs),
(1022,660,o),
(974,552,o),
(840,552,cs),
(526,552,l)
);
}
);
width = 1244;
},
{
layerId = "07B4BFD6-AD6C-43B6-9499-C92B9E22D320";
shapes = (
{
closed = 1;
nodes = (
(370,0,l),
(370,292,l),
(732,292,ls),
(1060,292,o),
(1184,520,o),
(1184,712,cs),
(1184,920,o),
(1072,1132,o),
(732,1132,cs),
(370,1132,l),
(370,1400,l),
(196,1400,l),
(196,0,l)
);
},
{
closed = 1;
nodes = (
(370,968,l),
(744,968,ls),
(954,968,o),
(1010,820,o),
(1010,712,cs),
(1010,590,o),
(942,456,o),
(744,456,cs),
(370,456,l)
);
}
);
width = 1264;
},
{
layerId = "77C27521-0479-4645-83A2-7244263DD4C5";
shapes = (
{
closed = 1;
nodes = (
(352,0,l),
(404,292,l),
(756,292,ls),
(1108,292,o),
(1266,554,o),
(1266,782,cs),
(1266,952,o),
(1174,1130,o),
(896,1130,cs),
(552,1130,l),
(598,1400,l),
(428,1400,l),
(182,0,l)
);
},
{
closed = 1;
nodes = (
(524,972,l),
(882,972,ls),
(1048,972,o),
(1096,854,o),
(1096,754,cs),
(1096,624,o),
(1014,452,o),
(790,452,cs),
(432,452,l)
);
}
);
width = 1200;
}
);
metricLeft = B;
unicode = 222;
},
{
glyphname = thorn;
kernLeft = n;
kernRight = o;
lastChange = "2021-01-05 19:55:31 +0000";
layers = (
{
layerId = "3BB16070-9AE0-46D6-9B05-19A363C2D547";
shapes = (
{
closed = 1;
nodes = (
(278,-370,l),
(278,168,l),
(336,50,o),
(450,-24,o),
(576,-24,cs),
(818,-24,o),
(980,164,o),
(980,512,cs),
(980,834,o),
(832,1046,o),
(592,1046,cs),
(456,1046,o),
(348,988,o),
(278,874,c),
(278,1444,l),
(206,1408,l),
(206,-406,l)
);
},
{
closed = 1;
nodes = (
(452,48,o),
(344,132,o),
(278,268,c),
(278,778,l),
(340,896,o),
(452,974,o),
(576,974,cs),
(780,974,o),
(902,792,o),
(902,512,cs),
(902,216,o),
(784,48,o),
(576,48,cs)
);
}
);
width = 1116;
},
{
layerId = "1D708A55-1947-4475-A0A3-21124B6DD42B";
shapes = (
{
closed = 1;
nodes = (
(450,-246,l),
(450,64,l),
(492,8,o),
(558,-24,o),
(646,-24,cs),
(890,-24,o),
(1074,174,o),
(1074,510,cs),
(1074,864,o),
(902,1046,o),
(650,1046,cs),
(556,1046,o),
(490,1010,o),
(450,954,c),
(450,1444,l),
(150,1300,l),
(150,-388,l)
);
},
{
closed = 1;
nodes = (
(516,266,o),
(460,298,o),
(450,326,c),
(450,700,l),
(482,732,o),
(520,756,o),
(600,756,cs),
(718,756,o),
(774,662,o),
(774,510,cs),
(774,356,o),
(710,266,o),
(600,266,cs)
);
}
);
width = 1174;
},
{
layerId = "42555ED7-786B-4551-A9FC-B380F510FD49";
shapes = (
{
closed = 1;
nodes = (
(178,-370,l),
(272,170,l),
(312,52,o),
(418,-24,o),
(540,-24,cs),
(826,-24,o),
(1028,226,o),
(1028,638,cs),
(1028,882,o),
(910,1046,o),
(716,1046,cs),
(584,1046,o),
(482,986,o),
(394,872,c),
(494,1444,l),
(414,1408,l),
(96,-406,l)
);
},
{
closed = 1;
nodes = (
(418,48,o),
(328,128,o),
(288,264,c),
(378,778,l),
(458,896,o),
(580,974,o),
(700,974,cs),
(864,974,o),
(950,838,o),
(950,630,cs),
(950,286,o),
(796,48,o),
(540,48,cs)
);
}
);
width = 1068;
},
{
background = {
shapes = (
{
closed = 1;
nodes = (
(360,-308,l),
(426,68,l),
(468,4,o),
(536,-24,o),
(624,-24,cs),
(868,-24,o),
(1122,190,o),
(1122,614,cs),
(1122,888,o),
(968,1046,o),
(798,1046,cs),
(704,1046,o),
(628,1008,o),
(578,944,c),
(670,1450,l),
(364,1360,l),
(54,-398,l)
);
},
{
closed = 1;
nodes = (
(518,258,o),
(478,296,o),
(470,324,c),
(532,688,l),
(556,730,o),
(630,766,o),
(686,766,cs),
(792,766,o),
(836,692,o),
(836,584,cs),
(836,386,o),
(746,258,o),
(608,258,cs)
);
}
);
};
layerId = "DEEEE81F-2F80-4306-8755-EEA92C96C68A";
shapes = (
{
closed = 1;
nodes = (
(360,-308,l),
(426,68,l),
(468,4,o),
(536,-24,o),
(624,-24,cs),
(868,-24,o),
(1122,190,o),
(1122,614,cs),
(1122,888,o),
(968,1046,o),
(798,1046,cs),
(704,1046,o),
(628,1008,o),
(578,944,c),
(669,1444,l),
(363,1354,l),
(54,-398,l)
);
},
{
closed = 1;
nodes = (
(518,258,o),
(478,296,o),
(470,324,c),
(532,688,l),
(556,730,o),
(630,766,o),
(686,766,cs),
(792,766,o),
(836,692,o),
(836,584,cs),
(836,386,o),
(746,258,o),
(608,258,cs)
);
}
);
width = 1099;
},
{
layerId = "07B4BFD6-AD6C-43B6-9499-C92B9E22D320";
shapes = (
{
closed = 1;
nodes = (
(340,-322,l),
(340,96,l),
(394,32,o),
(470,-24,o),
(602,-24,cs),
(852,-24,o),
(1024,174,o),
(1024,512,cs),
(1024,840,o),
(862,1046,o),
(602,1046,cs),
(474,1046,o),
(400,996,o),
(340,936,c),
(340,1444,l),
(166,1362,l),
(166,-404,l)
);
},
{
closed = 1;
nodes = (
(474,138,o),
(398,200,o),
(340,276,c),
(340,748,l),
(390,836,o),
(476,886,o),
(580,886,cs),
(746,886,o),
(846,734,o),
(846,512,cs),
(846,272,o),
(752,138,o),
(580,138,cs)
);
}
);
width = 1130;
},
{
background = {
shapes = (
{
closed = 1;
nodes = (
(271,-332,l),
(347,96,l),
(391,30,o),
(455,-24,o),
(585,-24,cs),
(863,-24,o),
(1093,224,o),
(1093,634,cs),
(1093,882,o),
(971,1046,o),
(769,1046,cs),
(643,1046,o),
(565,994,o),
(493,932,c),
(583,1430,l),
(405,1356,l),
(93,-406,l)
);
},
{
closed = 1;
nodes = (
(481,134,o),
(421,196,o),
(377,272,c),
(461,748,l),
(523,836,o),
(621,890,o),
(717,890,cs),
(851,890,o),
(923,776,o),
(923,612,cs),
(923,330,o),
(797,134,o),
(587,134,cs)
);
}
);
};
layerId = "77C27521-0479-4645-83A2-7244263DD4C5";
shapes = (
{
closed = 1;
nodes = (
(270,-338,l),
(347,96,l),
(391,30,o),
(455,-24,o),
(585,-24,cs),
(863,-24,o),
(1093,224,o),
(1093,634,cs),
(1093,882,o),
(971,1046,o),
(769,1046,cs),
(643,1046,o),
(565,994,o),
(493,932,c),
(584,1444,l),
(404,1378,l),
(89,-407,l)
);
},
{
closed = 1;
nodes = (
(481,134,o),
(421,196,o),
(377,272,c),
(461,748,l),
(523,836,o),
(621,890,o),
(717,890,cs),
(851,890,o),
(923,776,o),
(923,612,cs),
(923,330,o),
(797,134,o),
(587,134,cs)
);
}
);
width = 1087;
}
);
metricLeft = p;
metricRight = o;
unicode = 254;
},
{
glyphname = brokenbar;
lastChange = "2020-09-15 16:22:47 +0000";
layers = (
{
layerId = "3BB16070-9AE0-46D6-9B05-19A363C2D547";
shapes = (
{
closed = 1;
nodes = (
(302,732,l),
(302,1650,l),
(230,1650,l),
(230,732,l)
);
},
{
closed = 1;
nodes = (
(302,-450,l),
(302,468,l),
(230,468,l),
(230,-450,l)
);
}
);
width = 532;
},
{
layerId = "1D708A55-1947-4475-A0A3-21124B6DD42B";
shapes = (
{
closed = 1;
nodes = (
(470,732,l),
(470,1650,l),
(170,1650,l),
(170,732,l)
);
},
{
closed = 1;
nodes = (
(470,-450,l),
(470,468,l),
(170,468,l),
(170,-450,l)
);
}
);
width = 640;
},
{
layerId = "42555ED7-786B-4551-A9FC-B380F510FD49";
shapes = (
{
closed = 1;
nodes = (
(372,732,l),
(372,1650,l),
(300,1650,l),
(300,732,l)
);
},
{
closed = 1;
nodes = (
(372,-450,l),
(372,468,l),
(300,468,l),
(300,-450,l)
);
}
);
width = 492;
},
{
layerId = "DEEEE81F-2F80-4306-8755-EEA92C96C68A";
shapes = (
{
closed = 1;
nodes = (
(578,732,l),
(578,1650,l),
(278,1650,l),
(278,732,l)
);
},
{
closed = 1;
nodes = (
(578,-450,l),
(578,468,l),
(278,468,l),
(278,-450,l)
);
}
);
width = 606;
},
{
layerId = "07B4BFD6-AD6C-43B6-9499-C92B9E22D320";
shapes = (
{
closed = 1;
nodes = (
(360,732,l),
(360,1650,l),
(186,1650,l),
(186,732,l)
);
},
{
closed = 1;
nodes = (
(360,-450,l),
(360,468,l),
(186,468,l),
(186,-450,l)
);
}
);
width = 544;
},
{
layerId = "77C27521-0479-4645-83A2-7244263DD4C5";
shapes = (
{
closed = 1;
nodes = (
(490,732,l),
(490,1650,l),
(316,1650,l),
(316,732,l)
);
},
{
closed = 1;
nodes = (
(490,-450,l),
(490,468,l),
(316,468,l),
(316,-450,l)
);
}
);
width = 540;
}
);
unicode = 166;
},
{
glyphname = minus;
lastChange = "2020-09-15 16:22:47 +0000";
layers = (
{
layerId = "3BB16070-9AE0-46D6-9B05-19A363C2D547";
shapes = (
{
closed = 1;
nodes = (
(1126,648,l),
(1126,720,l),
(186,720,l),
(186,648,l)
);
}
);
width = 1312;
},
{
layerId = "1D708A55-1947-4475-A0A3-21124B6DD42B";
shapes = (
{
closed = 1;
nodes = (
(1100,540,l),
(1100,832,l),
(160,832,l),
(160,540,l)
);
}
);
width = 1260;
},
{
layerId = "42555ED7-786B-4551-A9FC-B380F510FD49";
shapes = (
{
closed = 1;
nodes = (
(1206,648,l),
(1206,720,l),
(266,720,l),
(266,648,l)
);
}
);
width = 1272;
},
{
layerId = "DEEEE81F-2F80-4306-8755-EEA92C96C68A";
shapes = (
{
closed = 1;
nodes = (
(1138,546,l),
(1138,828,l),
(300,828,l),
(300,546,l)
);
}
);
width = 1210;
},
{
layerId = "07B4BFD6-AD6C-43B6-9499-C92B9E22D320";
shapes = (
{
closed = 1;
nodes = (
(1116,602,l),
(1116,770,l),
(176,770,l),
(176,602,l)
);
}
);
width = 1290;
},
{
layerId = "77C27521-0479-4645-83A2-7244263DD4C5";
shapes = (
{
closed = 1;
nodes = (
(1206,602,l),
(1206,768,l),
(286,768,l),
(286,602,l)
);
}
);
width = 1260;
}
);
unicode = 8722;
},
{
glyphname = multiply;
lastChange = "2020-09-15 16:22:47 +0000";
layers = (
{
layerId = "3BB16070-9AE0-46D6-9B05-19A363C2D547";
shapes = (
{
closed = 1;
nodes = (
(656,632,l),
(1034,254,l),
(1084,302,l),
(704,682,l),
(1084,1062,l),
(1034,1110,l),
(656,732,l),
(278,1110,l),
(228,1062,l),
(608,682,l),
(228,302,l),
(278,254,l)
);
}
);
width = 1312;
},
{
layerId = "1D708A55-1947-4475-A0A3-21124B6DD42B";
shapes = (
{
closed = 1;
nodes = (
(632,474,l),
(910,192,l),
(1124,406,l),
(842,684,l),
(1126,966,l),
(906,1182,l),
(628,902,l),
(348,1180,l),
(136,970,l),
(414,688,l),
(134,410,l),
(352,190,l)
);
}
);
width = 1260;
},
{
layerId = "42555ED7-786B-4551-A9FC-B380F510FD49";
shapes = (
{
closed = 1;
nodes = (
(736,632,l),
(1114,254,l),
(1164,302,l),
(784,682,l),
(1164,1062,l),
(1114,1110,l),
(736,732,l),
(358,1110,l),
(308,1062,l),
(688,682,l),
(308,302,l),
(358,254,l)
);
}
);
width = 1272;
},
{
layerId = "DEEEE81F-2F80-4306-8755-EEA92C96C68A";
shapes = (
{
closed = 1;
nodes = (
(722,482,l),
(994,208,l),
(1200,414,l),
(926,684,l),
(1202,960,l),
(990,1170,l),
(718,896,l),
(442,1168,l),
(240,964,l),
(510,688,l),
(238,418,l),
(446,206,l)
);
}
);
width = 1210;
},
{
layerId = "07B4BFD6-AD6C-43B6-9499-C92B9E22D320";
shapes = (
{
closed = 1;
nodes = (
(648,564,l),
(976,234,l),
(1096,354,l),
(766,684,l),
(1098,1012,l),
(972,1138,l),
(644,808,l),
(314,1136,l),
(194,1016,l),
(524,688,l),
(192,358,l),
(318,232,l)
);
}
);
width = 1290;
},
{
layerId = "77C27521-0479-4645-83A2-7244263DD4C5";
shapes = (
{
closed = 1;
nodes = (
(752,566,l),
(1080,236,l),
(1196,354,l),
(868,684,l),
(1198,1012,l),
(1076,1134,l),
(748,804,l),
(420,1132,l),
(300,1016,l),
(632,688,l),
(298,358,l),
(424,234,l)
);
}
);
width = 1260;
}
);
unicode = 215;
},
{
glyphname = exclam;
lastChange = "2020-09-15 16:22:47 +0000";
layers = (
{
layerId = "3BB16070-9AE0-46D6-9B05-19A363C2D547";
shapes = (
{
closed = 1;
nodes = (
(276,386,l),
(304,920,l),
(304,1424,l),
(228,1424,l),
(228,920,l),
(256,386,l)
);
},
{
closed = 1;
nodes = (
(300,-28,o),
(324,-2,o),
(324,30,cs),
(324,64,o),
(300,92,o),
(266,92,cs),
(234,92,o),
(208,64,o),
(208,30,cs),
(208,-2,o),
(234,-28,o),
(266,-28,cs)
);
}
);
width = 532;
},
{
layerId = "1D708A55-1947-4475-A0A3-21124B6DD42B";
shapes = (
{
closed = 1;
nodes = (
(410,386,l),
(464,966,l),
(464,1424,l),
(166,1424,l),
(166,966,l),
(220,386,l)
);
},
{
closed = 1;
nodes = (
(424,-24,o),
(508,60,o),
(508,164,cs),
(508,272,o),
(424,354,o),
(314,354,cs),
(204,354,o),
(126,272,o),
(126,164,cs),
(126,60,o),
(204,-24,o),
(314,-24,cs)
);
}
);
width = 636;
},
{
layerId = "42555ED7-786B-4551-A9FC-B380F510FD49";
shapes = (
{
closed = 1;
nodes = (
(292,386,l),
(416,920,l),
(504,1424,l),
(426,1424,l),
(338,920,l),
(272,386,l)
);
},
{
closed = 1;
nodes = (
(248,-28,o),
(278,2,o),
(278,38,cs),
(278,68,o),
(258,92,o),
(228,92,cs),
(192,92,o),
(160,60,o),
(160,24,cs),
(160,-6,o),
(182,-28,o),
(210,-28,cs)
);
}
);
width = 492;
},
{
layerId = "DEEEE81F-2F80-4306-8755-EEA92C96C68A";
shapes = (
{
closed = 1;
nodes = (
(456,386,l),
(612,968,l),
(694,1424,l),
(410,1424,l),
(330,968,l),
(284,386,l)
);
},
{
closed = 1;
nodes = (
(422,-24,o),
(502,60,o),
(502,182,cs),
(502,262,o),
(446,328,o),
(346,328,cs),
(244,328,o),
(160,246,o),
(160,124,cs),
(160,42,o),
(220,-24,o),
(310,-24,cs)
);
}
);
width = 606;
},
{
layerId = "07B4BFD6-AD6C-43B6-9499-C92B9E22D320";
shapes = (
{
closed = 1;
nodes = (
(304,386,l),
(364,986,l),
(364,1424,l),
(188,1424,l),
(188,986,l),
(246,386,l)
);
},
{
closed = 1;
nodes = (
(352,-26,o),
(412,38,o),
(412,110,cs),
(412,182,o),
(352,248,o),
(274,248,cs),
(194,248,o),
(136,182,o),
(136,110,cs),
(136,38,o),
(194,-26,o),
(274,-26,cs)
);
}
);
width = 546;
},
{
layerId = "77C27521-0479-4645-83A2-7244263DD4C5";
shapes = (
{
closed = 1;
nodes = (
(366,386,l),
(530,986,l),
(608,1424,l),
(442,1424,l),
(364,986,l),
(314,386,l)
);
},
{
closed = 1;
nodes = (
(352,-28,o),
(424,48,o),
(424,130,cs),
(424,190,o),
(380,244,o),
(310,244,cs),
(230,244,o),
(158,170,o),
(158,88,cs),
(158,28,o),
(200,-28,o),
(268,-28,cs)
);
}
);
width = 540;
}
);
unicode = 33;
},
{
glyphname = quotedbl;
kernLeft = quotedbl;
kernRight = quotedbl;
lastChange = "2020-09-15 16:22:47 +0000";
layers = (
{
layerId = "3BB16070-9AE0-46D6-9B05-19A363C2D547";
shapes = (
{
closed = 1;
nodes = (
(568,866,l),
(568,1400,l),
(492,1400,l),
(492,866,l)
);
},
{
closed = 1;
nodes = (
(232,866,l),
(232,1400,l),
(156,1400,l),
(156,866,l)
);
}
);
width = 724;
},
{
layerId = "1D708A55-1947-4475-A0A3-21124B6DD42B";
shapes = (
{
closed = 1;
nodes = (
(796,802,l),
(848,1400,l),
(498,1400,l),
(550,802,l)
);
},
{
closed = 1;
nodes = (
(388,802,l),
(442,1400,l),
(90,1400,l),
(142,802,l)
);
}
);
width = 938;
},
{
layerId = "42555ED7-786B-4551-A9FC-B380F510FD49";
shapes = (
{
closed = 1;
nodes = (
(660,866,l),
(754,1400,l),
(678,1400,l),
(584,866,l)
);
},
{
closed = 1;
nodes = (
(324,866,l),
(418,1400,l),
(342,1400,l),
(248,866,l)
);
}
);
width = 684;
},
{
layerId = "DEEEE81F-2F80-4306-8755-EEA92C96C68A";
shapes = (
{
closed = 1;
nodes = (
(912,806,l),
(1066,1400,l),
(732,1400,l),
(678,806,l)
);
},
{
closed = 1;
nodes = (
(514,806,l),
(666,1400,l),
(332,1400,l),
(278,806,l)
);
}
);
width = 906;
},
{
layerId = "07B4BFD6-AD6C-43B6-9499-C92B9E22D320";
shapes = (
{
closed = 1;
nodes = (
(662,854,l),
(700,1400,l),
(482,1400,l),
(520,854,l)
);
},
{
closed = 1;
nodes = (
(284,854,l),
(322,1400,l),
(106,1400,l),
(142,854,l)
);
}
);
width = 806;
},
{
layerId = "77C27521-0479-4645-83A2-7244263DD4C5";
shapes = (
{
closed = 1;
nodes = (
(778,854,l),
(912,1400,l),
(710,1400,l),
(648,854,l)
);
},
{
closed = 1;
nodes = (
(424,854,l),
(558,1400,l),
(358,1400,l),
(296,854,l)
);
}
);
width = 776;
}
);
unicode = 34;
},
{
glyphname = numbersign;
lastChange = "2020-09-15 16:22:47 +0000";
layers = (
{
layerId = "3BB16070-9AE0-46D6-9B05-19A363C2D547";
shapes = (
{
closed = 1;
nodes = (
(382,0,l),
(450,436,l),
(824,436,l),
(756,0,l),
(840,0,l),
(908,436,l),
(1144,436,l),
(1156,508,l),
(918,508,l),
(984,914,l),
(1220,914,l),
(1230,986,l),
(994,986,l),
(1060,1400,l),
(976,1400,l),
(910,986,l),
(536,986,l),
(602,1400,l),
(526,1400,l),
(460,986,l),
(220,986,l),
(208,914,l),
(450,914,l),
(384,508,l),
(144,508,l),
(132,436,l),
(374,436,l),
(304,0,l)
);
},
{
closed = 1;
nodes = (
(526,914,l),
(900,914,l),
(834,508,l),
(460,508,l)
);
}
);
width = 1362;
},
{
layerId = "1D708A55-1947-4475-A0A3-21124B6DD42B";
shapes = (
{
closed = 1;
nodes = (
(498,0,l),
(550,332,l),
(764,332,l),
(714,0,l),
(980,0,l),
(1030,332,l),
(1230,332,l),
(1270,596,l),
(1070,596,l),
(1106,842,l),
(1310,842,l),
(1346,1104,l),
(1146,1104,l),
(1190,1400,l),
(928,1400,l),
(880,1104,l),
(666,1104,l),
(710,1400,l),
(444,1400,l),
(404,1104,l),
(196,1104,l),
(160,842,l),
(360,842,l),
(324,596,l),
(120,596,l),
(84,332,l),
(284,332,l),
(234,0,l)
);
},
{
closed = 1;
nodes = (
(626,842,l),
(840,842,l),
(804,596,l),
(590,596,l)
);
}
);
width = 1430;
},
{
layerId = "42555ED7-786B-4551-A9FC-B380F510FD49";
shapes = (
{
closed = 1;
nodes = (
(362,0,l),
(492,436,l),
(866,436,l),
(736,0,l),
(820,0,l),
(950,436,l),
(1186,436,l),
(1208,508,l),
(970,508,l),
(1094,914,l),
(1330,914,l),
(1350,986,l),
(1114,986,l),
(1238,1400,l),
(1154,1400,l),
(1030,986,l),
(656,986,l),
(780,1400,l),
(704,1400,l),
(580,986,l),
(340,986,l),
(318,914,l),
(560,914,l),
(436,508,l),
(196,508,l),
(174,436,l),
(416,436,l),
(284,0,l)
);
},
{
closed = 1;
nodes = (
(636,914,l),
(1010,914,l),
(886,508,l),
(512,508,l)
);
}
);
width = 1322;
},
{
layerId = "DEEEE81F-2F80-4306-8755-EEA92C96C68A";
shapes = (
{
closed = 1;
nodes = (
(470,0,l),
(578,338,l),
(800,338,l),
(692,0,l),
(930,0,l),
(1040,338,l),
(1240,338,l),
(1320,588,l),
(1120,588,l),
(1206,850,l),
(1402,850,l),
(1480,1100,l),
(1284,1100,l),
(1380,1400,l),
(1140,1400,l),
(1042,1100,l),
(820,1100,l),
(916,1400,l),
(670,1400,l),
(582,1100,l),
(378,1100,l),
(302,850,l),
(502,850,l),
(416,588,l),
(218,588,l),
(140,338,l),
(336,338,l),
(226,0,l)
);
},
{
closed = 1;
nodes = (
(742,850,l),
(964,850,l),
(882,588,l),
(660,588,l)
);
}
);
width = 1366;
},
{
layerId = "07B4BFD6-AD6C-43B6-9499-C92B9E22D320";
shapes = (
{
closed = 1;
nodes = (
(434,0,l),
(494,394,l),
(774,394,l),
(714,0,l),
(872,0,l),
(932,394,l),
(1162,394,l),
(1184,542,l),
(954,542,l),
(1006,886,l),
(1244,886,l),
(1266,1032,l),
(1028,1032,l),
(1086,1400,l),
(928,1400,l),
(872,1032,l),
(590,1032,l),
(646,1400,l),
(490,1400,l),
(432,1032,l),
(204,1032,l),
(182,886,l),
(410,886,l),
(358,542,l),
(124,542,l),
(100,394,l),
(336,394,l),
(276,0,l)
);
},
{
closed = 1;
nodes = (
(568,886,l),
(850,886,l),
(796,542,l),
(516,542,l)
);
}
);
width = 1366;
},
{
layerId = "77C27521-0479-4645-83A2-7244263DD4C5";
shapes = (
{
closed = 1;
nodes = (
(428,0,l),
(556,394,l),
(818,394,l),
(690,0,l),
(844,0,l),
(970,394,l),
(1190,394,l),
(1238,544,l),
(1018,544,l),
(1130,882,l),
(1356,882,l),
(1404,1030,l),
(1174,1030,l),
(1294,1400,l),
(1142,1400,l),
(1020,1030,l),
(760,1030,l),
(882,1400,l),
(744,1400,l),
(608,1030,l),
(390,1030,l),
(344,882,l),
(564,882,l),
(450,544,l),
(228,544,l),
(174,394,l),
(404,394,l),
(276,0,l)
);
},
{
closed = 1;
nodes = (
(714,882,l),
(976,882,l),
(864,544,l),
(602,544,l)
);
}
);
width = 1330;
}
);
unicode = 35;
},
{
glyphname = dollar;
lastChange = "2020-09-15 16:22:47 +0000";
layers = (
{
layerId = "3BB16070-9AE0-46D6-9B05-19A363C2D547";
shapes = (
{
closed = 1;
nodes = (
(622,-196,l),
(622,-22,l),
(844,-12,o),
(1000,120,o),
(1000,346,cs),
(1000,602,o),
(794,716,o),
(618,788,cs),
(446,858,o),
(274,934,o),
(274,1114,cs),
(274,1262,o),
(384,1354,o),
(570,1354,cs),
(720,1354,o),
(820,1286,o),
(868,1170,c),
(940,1194,l),
(898,1322,o),
(774,1406,o),
(622,1420,c),
(622,1578,l),
(550,1578,l),
(550,1424,l),
(322,1414,o),
(198,1286,o),
(198,1118,cs),
(198,886,o),
(400,790,o),
(586,718,cs),
(762,650,o),
(924,538,o),
(924,348,cs),
(924,150,o),
(792,46,o),
(594,46,cs),
(428,46,o),
(294,148,o),
(228,296,c),
(152,270,l),
(214,122,o),
(356,-6,o),
(550,-22,c),
(550,-196,l)
);
}
);
width = 1176;
},
{
layerId = "1D708A55-1947-4475-A0A3-21124B6DD42B";
shapes = (
{
closed = 1;
nodes = (
(764,-176,l),
(764,-10,l),
(956,32,o),
(1108,182,o),
(1108,412,cs),
(1108,724,o),
(872,814,o),
(694,882,cs),
(578,926,o),
(484,964,o),
(484,1038,cs),
(484,1096,o),
(526,1126,o),
(598,1126,cs),
(694,1126,o),
(752,1058,o),
(784,978,c),
(1064,1070,l),
(1018,1226,o),
(926,1354,o),
(764,1404,c),
(764,1564,l),
(460,1564,l),
(460,1406,l),
(266,1360,o),
(162,1206,o),
(162,1038,cs),
(162,758,o),
(366,676,o),
(556,600,cs),
(690,546,o),
(786,506,o),
(786,410,cs),
(786,324,o),
(724,274,o),
(632,274,cs),
(530,274,o),
(438,368,o),
(384,490,c),
(100,386,l),
(166,192,o),
(280,56,o),
(460,0,c),
(460,-176,l)
);
}
);
width = 1228;
},
{
layerId = "42555ED7-786B-4551-A9FC-B380F510FD49";
shapes = (
{
closed = 1;
nodes = (
(548,-196,l),
(578,-22,l),
(842,-14,o),
(1028,148,o),
(1028,408,cs),
(1028,634,o),
(856,716,o),
(696,794,cs),
(556,862,o),
(426,926,o),
(426,1076,cs),
(426,1244,o),
(568,1354,o),
(778,1354,cs),
(928,1354,o),
(1006,1286,o),
(1034,1170,c),
(1106,1192,l),
(1078,1322,o),
(982,1406,o),
(832,1420,c),
(860,1578,l),
(788,1578,l),
(760,1424,l),
(500,1414,o),
(350,1262,o),
(350,1066,cs),
(350,874,o),
(502,800,o),
(652,726,cs),
(802,652,o),
(950,578,o),
(950,394,cs),
(950,172,o),
(774,48,o),
(564,48,cs),
(382,48,o),
(284,136,o),
(240,296,c),
(166,272,l),
(202,124,o),
(316,-6,o),
(506,-22,c),
(476,-196,l)
);
}
);
width = 1136;
},
{
layerId = "DEEEE81F-2F80-4306-8755-EEA92C96C68A";
shapes = (
{
closed = 1;
nodes = (
(718,-182,l),
(746,-18,l),
(1036,40,o),
(1146,240,o),
(1146,442,cs),
(1146,716,o),
(958,806,o),
(810,878,cs),
(714,924,o),
(636,964,o),
(636,1038,cs),
(636,1092,o),
(686,1142,o),
(760,1142,cs),
(872,1142,o),
(908,1070,o),
(932,988,c),
(1210,1080,l),
(1188,1188,o),
(1132,1342,o),
(972,1402,c),
(1000,1568,l),
(722,1568,l),
(696,1420,l),
(432,1376,o),
(324,1164,o),
(324,1022,cs),
(324,768,o),
(496,682,o),
(642,608,cs),
(746,556,o),
(836,510,o),
(836,414,cs),
(836,322,o),
(762,264,o),
(650,264,cs),
(528,264,o),
(468,352,o),
(440,478,c),
(172,384,l),
(196,228,o),
(262,62,o),
(448,0,c),
(414,-182,l)
);
}
);
width = 1174;
},
{
layerId = "07B4BFD6-AD6C-43B6-9499-C92B9E22D320";
shapes = (
{
closed = 1;
nodes = (
(674,-196,l),
(674,-18,l),
(888,10,o),
(1044,148,o),
(1044,380,cs),
(1044,658,o),
(822,760,o),
(632,832,cs),
(476,890,o),
(340,950,o),
(340,1078,cs),
(340,1192,o),
(424,1260,o),
(568,1260,cs),
(700,1260,o),
(784,1198,o),
(818,1120,c),
(978,1174,l),
(942,1296,o),
(834,1390,o),
(674,1416,c),
(674,1578,l),
(498,1578,l),
(498,1418,l),
(282,1390,o),
(158,1246,o),
(158,1078,cs),
(158,832,o),
(366,744,o),
(556,672,cs),
(716,612,o),
(862,536,o),
(862,376,cs),
(862,222,o),
(760,142,o),
(598,142,cs),
(448,142,o),
(334,224,o),
(280,348,c),
(116,288,l),
(168,134,o),
(308,14,o),
(498,-16,c),
(498,-196,l)
);
}
);
width = 1176;
},
{
layerId = "77C27521-0479-4645-83A2-7244263DD4C5";
shapes = (
{
closed = 1;
nodes = (
(624,-194,l),
(654,-20,l),
(914,10,o),
(1086,180,o),
(1086,434,cs),
(1086,674,o),
(910,762,o),
(752,838,cs),
(628,898,o),
(522,952,o),
(522,1066,cs),
(522,1184,o),
(620,1264,o),
(778,1264,cs),
(906,1264,o),
(976,1200,o),
(998,1124,c),
(1158,1178,l),
(1144,1288,o),
(1056,1386,o),
(902,1414,c),
(930,1576,l),
(766,1576,l),
(738,1420,l),
(494,1392,o),
(346,1222,o),
(346,1040,cs),
(346,832,o),
(502,754,o),
(650,680,cs),
(782,614,o),
(910,550,o),
(910,402,cs),
(910,234,o),
(790,138,o),
(606,138,cs),
(458,138,o),
(366,220,o),
(334,342,c),
(174,284,l),
(198,144,o),
(304,18,o),
(486,-16,c),
(456,-194,l)
);
}
);
width = 1148;
}
);
unicode = 36;
},
{
glyphname = percent;
lastChange = "2020-09-15 16:22:47 +0000";
layers = (
{
layerId = "3BB16070-9AE0-46D6-9B05-19A363C2D547";
shapes = (
{
closed = 1;
nodes = (
(450,-24,l),
(1406,1424,l),
(1320,1424,l),
(364,-24,l)
);
},
{
closed = 1;
nodes = (
(662,712,o),
(744,898,o),
(744,1068,cs),
(744,1222,o),
(668,1424,o),
(440,1424,cs),
(212,1424,o),
(136,1222,o),
(136,1068,cs),
(136,898,o),
(218,712,o),
(440,712,cs)
);
},
{
closed = 1;
nodes = (
(274,784,o),
(212,932,o),
(212,1068,cs),
(212,1190,o),
(270,1352,o),
(440,1352,cs),
(610,1352,o),
(668,1190,o),
(668,1068,cs),
(668,932,o),
(606,784,o),
(440,784,cs)
);
},
{
closed = 1;
nodes = (
(1552,-24,o),
(1634,162,o),
(1634,332,cs),
(1634,486,o),
(1558,688,o),
(1330,688,cs),
(1102,688,o),
(1026,486,o),
(1026,332,cs),
(1026,162,o),
(1108,-24,o),
(1330,-24,cs)
);
},
{
closed = 1;
nodes = (
(1164,48,o),
(1102,196,o),
(1102,332,cs),
(1102,454,o),
(1160,616,o),
(1330,616,cs),
(1500,616,o),
(1558,454,o),
(1558,332,cs),
(1558,196,o),
(1496,48,o),
(1330,48,cs)
);
}
);
width = 1770;
},
{
layerId = "1D708A55-1947-4475-A0A3-21124B6DD42B";
shapes = (
{
closed = 1;
nodes = (
(518,-24,l),
(1470,1424,l),
(1160,1424,l),
(208,-24,l)
);
},
{
closed = 1;
nodes = (
(700,678,o),
(788,890,o),
(788,1050,cs),
(788,1222,o),
(694,1424,o),
(440,1424,cs),
(184,1424,o),
(90,1210,o),
(90,1050,cs),
(90,880,o),
(186,678,o),
(440,678,cs)
);
},
{
closed = 1;
nodes = (
(384,936,o),
(356,982,o),
(356,1050,cs),
(356,1110,o),
(382,1166,o),
(440,1166,cs),
(494,1166,o),
(522,1120,o),
(522,1050,cs),
(522,990,o),
(496,936,o),
(440,936,cs)
);
},
{
closed = 1;
nodes = (
(1498,-24,o),
(1588,182,o),
(1588,350,cs),
(1588,524,o),
(1492,724,o),
(1238,724,cs),
(982,724,o),
(890,510,o),
(890,350,cs),
(890,174,o),
(982,-24,o),
(1238,-24,cs)
);
},
{
closed = 1;
nodes = (
(1180,234,o),
(1156,282,o),
(1156,350,cs),
(1156,408,o),
(1182,466,o),
(1238,466,cs),
(1294,466,o),
(1322,418,o),
(1322,350,cs),
(1322,290,o),
(1296,234,o),
(1238,234,cs)
);
}
);
width = 1678;
},
{
layerId = "42555ED7-786B-4551-A9FC-B380F510FD49";
shapes = (
{
closed = 1;
nodes = (
(406,-24,l),
(1616,1424,l),
(1530,1424,l),
(320,-24,l)
);
},
{
closed = 1;
nodes = (
(794,712,o),
(898,952,o),
(898,1136,cs),
(898,1270,o),
(832,1424,o),
(644,1424,cs),
(384,1424,o),
(274,1168,o),
(274,996,cs),
(274,854,o),
(348,712,o),
(532,712,cs)
);
},
{
closed = 1;
nodes = (
(400,784,o),
(352,896,o),
(352,1006,cs),
(352,1146,o),
(438,1352,o),
(638,1352,cs),
(776,1352,o),
(822,1230,o),
(822,1126,cs),
(822,978,o),
(736,784,o),
(538,784,cs)
);
},
{
closed = 1;
nodes = (
(1554,-24,o),
(1658,216,o),
(1658,400,cs),
(1658,534,o),
(1592,688,o),
(1404,688,cs),
(1142,688,o),
(1036,432,o),
(1036,260,cs),
(1036,118,o),
(1108,-24,o),
(1294,-24,cs)
);
},
{
closed = 1;
nodes = (
(1162,48,o),
(1114,160,o),
(1114,270,cs),
(1114,410,o),
(1198,616,o),
(1398,616,cs),
(1536,616,o),
(1582,494,o),
(1582,390,cs),
(1582,242,o),
(1496,48,o),
(1298,48,cs)
);
}
);
width = 1730;
},
{
layerId = "DEEEE81F-2F80-4306-8755-EEA92C96C68A";
shapes = (
{
closed = 1;
nodes = (
(494,-24,l),
(1664,1424,l),
(1370,1424,l),
(198,-24,l)
);
},
{
closed = 1;
nodes = (
(772,688,o),
(938,858,o),
(938,1110,cs),
(938,1252,o),
(848,1424,o),
(644,1424,cs),
(392,1424,o),
(268,1200,o),
(268,1002,cs),
(268,858,o),
(358,688,o),
(560,688,cs)
);
},
{
closed = 1;
nodes = (
(520,918,o),
(502,974,o),
(502,1020,cs),
(502,1104,o),
(548,1194,o),
(622,1194,cs),
(672,1194,o),
(702,1152,o),
(702,1092,cs),
(702,1012,o),
(654,918,o),
(580,918,cs)
);
},
{
closed = 1;
nodes = (
(1442,-24,o),
(1608,146,o),
(1608,398,cs),
(1608,540,o),
(1520,714,o),
(1314,714,cs),
(1064,714,o),
(938,490,o),
(938,292,cs),
(938,148,o),
(1030,-24,o),
(1232,-24,cs)
);
},
{
closed = 1;
nodes = (
(1190,208,o),
(1174,264,o),
(1174,308,cs),
(1174,392,o),
(1220,482,o),
(1292,482,cs),
(1344,482,o),
(1372,442,o),
(1372,382,cs),
(1372,302,o),
(1326,208,o),
(1252,208,cs)
);
}
);
width = 1614;
},
{
layerId = "07B4BFD6-AD6C-43B6-9499-C92B9E22D320";
shapes = (
{
closed = 1;
nodes = (
(476,-24,l),
(1432,1424,l),
(1264,1424,l),
(308,-24,l)
);
},
{
closed = 1;
nodes = (
(666,712,o),
(746,914,o),
(746,1068,cs),
(746,1238,o),
(660,1424,o),
(426,1424,cs),
(188,1424,o),
(104,1222,o),
(104,1068,cs),
(104,900,o),
(190,712,o),
(426,712,cs)
);
},
{
closed = 1;
nodes = (
(308,850,o),
(254,942,o),
(254,1068,cs),
(254,1188,o),
(306,1286,o),
(426,1286,cs),
(540,1286,o),
(598,1196,o),
(598,1068,cs),
(598,952,o),
(542,850,o),
(426,850,cs)
);
},
{
closed = 1;
nodes = (
(1556,-24,o),
(1636,178,o),
(1636,332,cs),
(1636,502,o),
(1550,688,o),
(1314,688,cs),
(1078,688,o),
(994,486,o),
(994,332,cs),
(994,164,o),
(1080,-24,o),
(1314,-24,cs)
);
},
{
closed = 1;
nodes = (
(1198,114,o),
(1142,206,o),
(1142,332,cs),
(1142,452,o),
(1196,550,o),
(1314,550,cs),
(1430,550,o),
(1486,460,o),
(1486,332,cs),
(1486,216,o),
(1432,114,o),
(1314,114,cs)
);
}
);
width = 1740;
},
{
layerId = "77C27521-0479-4645-83A2-7244263DD4C5";
shapes = (
{
closed = 1;
nodes = (
(468,-24,l),
(1642,1424,l),
(1472,1424,l),
(298,-24,l)
);
},
{
closed = 1;
nodes = (
(822,706,o),
(942,942,o),
(942,1136,cs),
(942,1272,o),
(872,1424,o),
(686,1424,cs),
(430,1424,o),
(312,1176,o),
(312,994,cs),
(312,858,o),
(382,706,o),
(568,706,cs)
);
},
{
closed = 1;
nodes = (
(498,846,o),
(460,918,o),
(460,1006,cs),
(460,1148,o),
(530,1284,o),
(664,1284,cs),
(752,1284,o),
(794,1216,o),
(794,1122,cs),
(794,980,o),
(718,846,o),
(588,846,cs)
);
},
{
closed = 1;
nodes = (
(1520,-24,o),
(1640,212,o),
(1640,404,cs),
(1640,542,o),
(1570,692,o),
(1386,692,cs),
(1128,692,o),
(1010,444,o),
(1010,262,cs),
(1010,126,o),
(1080,-24,o),
(1268,-24,cs)
);
},
{
closed = 1;
nodes = (
(1198,114,o),
(1160,188,o),
(1160,276,cs),
(1160,416,o),
(1228,554,o),
(1364,554,cs),
(1450,554,o),
(1492,484,o),
(1492,392,cs),
(1492,250,o),
(1416,114,o),
(1288,114,cs)
);
}
);
width = 1692;
}
);
unicode = 37;
},
{
glyphname = ampersand;
kernLeft = ampersand;
kernRight = ampersand;
lastChange = "2021-02-02 23:13:21 +0000";
layers = (
{
layerId = "3BB16070-9AE0-46D6-9B05-19A363C2D547";
shapes = (
{
closed = 1;
nodes = (
(686,-24,o),
(838,78,o),
(942,214,c),
(1122,0,l),
(1226,0,l),
(988,280,l),
(1060,396,o),
(1100,526,o),
(1110,638,c),
(1034,638,l),
(1020,540,o),
(988,434,o),
(936,340,c),
(576,766,l),
(766,878,o),
(866,992,o),
(866,1140,cs),
(866,1306,o),
(744,1424,o),
(578,1424,cs),
(410,1424,o),
(276,1320,o),
(276,1144,cs),
(276,1046,o),
(326,952,o),
(466,782,c),
(268,668,o),
(116,538,o),
(116,342,cs),
(116,116,o),
(268,-24,o),
(492,-24,cs)
);
},
{
closed = 1;
nodes = (
(322,48,o),
(192,154,o),
(192,342,cs),
(192,498,o),
(312,614,o),
(510,728,c),
(894,272,l),
(802,142,o),
(668,48,o),
(492,48,cs)
);
},
{
closed = 1;
nodes = (
(422,952,o),
(352,1050,o),
(352,1144,cs),
(352,1270,o),
(440,1352,o),
(570,1352,cs),
(692,1352,o),
(790,1266,o),
(790,1128,cs),
(790,1020,o),
(700,916,o),
(532,818,c)
);
}
);
width = 1292;
},
{
layerId = "1D708A55-1947-4475-A0A3-21124B6DD42B";
shapes = (
{
closed = 1;
nodes = (
(716,-24,o),
(838,22,o),
(936,124,c),
(1034,0,l),
(1408,0,l),
(1114,366,l),
(1162,430,o),
(1198,580,o),
(1198,716,c),
(902,716,l),
(902,678,o),
(902,644,o),
(902,618,c),
(798,742,l),
(914,822,o),
(1006,926,o),
(1006,1098,cs),
(1006,1304,o),
(860,1424,o),
(640,1424,cs),
(444,1424,o),
(284,1302,o),
(284,1088,cs),
(284,984,o),
(308,890,o),
(408,782,c),
(246,702,o),
(120,580,o),
(120,388,cs),
(120,136,o),
(286,-24,o),
(554,-24,cs)
);
},
{
closed = 1;
nodes = (
(480,266,o),
(424,320,o),
(424,394,cs),
(424,466,o),
(452,528,o),
(562,584,c),
(772,326,l),
(712,286,o),
(652,266,o),
(582,266,cs)
);
},
{
closed = 1;
nodes = (
(582,994,o),
(562,1052,o),
(562,1114,cs),
(562,1174,o),
(602,1212,o),
(644,1212,cs),
(686,1212,o),
(728,1178,o),
(728,1096,cs),
(728,1018,o),
(698,960,o),
(644,928,c)
);
}
);
width = 1466;
},
{
layerId = "42555ED7-786B-4551-A9FC-B380F510FD49";
shapes = (
{
closed = 1;
nodes = (
(644,-24,o),
(812,78,o),
(940,214,c),
(1082,0,l),
(1186,0,l),
(998,280,l),
(1090,396,o),
(1152,526,o),
(1182,638,c),
(1106,638,l),
(1074,540,o),
(1026,434,o),
(956,340,c),
(670,766,l),
(908,890,o),
(1032,1008,o),
(1032,1176,cs),
(1032,1326,o),
(916,1424,o),
(770,1424,cs),
(582,1424,o),
(432,1300,o),
(432,1104,cs),
(432,1022,o),
(472,924,o),
(564,782,c),
(320,656,o),
(130,516,o),
(130,278,cs),
(130,92,o),
(252,-24,o),
(450,-24,cs)
);
},
{
closed = 1;
nodes = (
(312,48,o),
(206,136,o),
(206,290,cs),
(206,478,o),
(354,602,o),
(598,728,c),
(902,272,l),
(786,142,o),
(638,48,o),
(462,48,cs)
);
},
{
closed = 1;
nodes = (
(560,934,o),
(512,1032,o),
(512,1116,cs),
(512,1252,o),
(614,1352,o),
(764,1352,cs),
(874,1352,o),
(952,1280,o),
(952,1168,cs),
(952,1020,o),
(840,922,o),
(636,818,c)
);
}
);
width = 1252;
},
{
layerId = "DEEEE81F-2F80-4306-8755-EEA92C96C68A";
shapes = (
{
closed = 1;
nodes = (
(706,-24,o),
(834,30,o),
(942,120,c),
(1010,0,l),
(1374,0,l),
(1158,352,l),
(1210,436,o),
(1270,580,o),
(1296,716,c),
(1020,716,l),
(1016,684,o),
(1008,634,o),
(1000,606,c),
(914,740,l),
(1052,820,o),
(1180,946,o),
(1180,1124,cs),
(1180,1304,o),
(1064,1424,o),
(850,1424,cs),
(666,1424,o),
(474,1288,o),
(474,1044,cs),
(474,948,o),
(488,876,o),
(540,796,c),
(346,708,o),
(186,574,o),
(186,330,cs),
(186,126,o),
(320,-24,o),
(542,-24,cs)
);
},
{
closed = 1;
nodes = (
(534,258,o),
(488,308,o),
(488,386,cs),
(488,462,o),
(548,536,o),
(662,592,c),
(818,324,l),
(772,286,o),
(696,258,o),
(624,258,cs)
);
},
{
closed = 1;
nodes = (
(762,978,o),
(744,1030,o),
(744,1082,cs),
(744,1162,o),
(788,1206,o),
(834,1206,cs),
(878,1206,o),
(914,1178,o),
(914,1116,cs),
(914,1026,o),
(858,972,o),
(796,930,c)
);
}
);
width = 1426;
},
{
layerId = "07B4BFD6-AD6C-43B6-9499-C92B9E22D320";
shapes = (
{
closed = 1;
nodes = (
(678,-24,o),
(834,46,o),
(948,166,c),
(1086,0,l),
(1312,0,l),
(1054,308,l),
(1126,430,o),
(1156,554,o),
(1160,658,c),
(994,658,l),
(990,604,o),
(974,524,o),
(938,446,c),
(676,760,l),
(826,854,o),
(936,956,o),
(936,1116,cs),
(936,1296,o),
(796,1424,o),
(608,1424,cs),
(420,1424,o),
(272,1310,o),
(272,1120,cs),
(272,1008,o),
(322,928,o),
(432,792,c),
(252,690,o),
(108,574,o),
(108,362,cs),
(108,128,o),
(272,-24,o),
(510,-24,cs)
);
},
{
closed = 1;
nodes = (
(388,138,o),
(286,232,o),
(286,372,cs),
(286,498,o),
(380,582,o),
(528,674,c),
(842,294,l),
(758,198,o),
(648,138,o),
(538,138,cs)
);
},
{
closed = 1;
nodes = (
(498,974,o),
(438,1048,o),
(438,1120,cs),
(438,1210,o),
(504,1270,o),
(602,1270,cs),
(694,1270,o),
(770,1208,o),
(770,1104,cs),
(770,1016,o),
(698,944,o),
(580,876,c)
);
}
);
width = 1354;
},
{
layerId = "77C27521-0479-4645-83A2-7244263DD4C5";
shapes = (
{
closed = 1;
nodes = (
(636,-24,o),
(800,42,o),
(936,170,c),
(1044,0,l),
(1248,0,l),
(1058,306,l),
(1150,428,o),
(1196,552,o),
(1220,654,c),
(1064,654,l),
(1052,604,o),
(1020,522,o),
(970,442,c),
(772,760,l),
(966,872,o),
(1094,988,o),
(1094,1164,cs),
(1094,1316,o),
(988,1424,o),
(822,1424,cs),
(628,1424,o),
(448,1292,o),
(448,1076,cs),
(448,992,o),
(482,904,o),
(550,790,c),
(318,668,o),
(156,538,o),
(156,292,cs),
(156,106,o),
(278,-24,o),
(480,-24,cs)
);
},
{
closed = 1;
nodes = (
(404,134,o),
(322,214,o),
(322,334,cs),
(322,474,o),
(422,564,o),
(620,676,c),
(860,294,l),
(760,194,o),
(636,134,o),
(534,134,cs)
);
},
{
closed = 1;
nodes = (
(644,966,o),
(604,1042,o),
(604,1102,cs),
(604,1206,o),
(686,1282,o),
(796,1282,cs),
(876,1282,o),
(934,1228,o),
(934,1140,cs),
(934,1034,o),
(852,952,o),
(704,870,c)
);
}
);
width = 1292;
}
);
unicode = 38;
},
{
glyphname = quotesingle;
kernLeft = quotedbl;
kernRight = quotedbl;
lastChange = "2020-09-15 16:22:47 +0000";
layers = (
{
layerId = "3BB16070-9AE0-46D6-9B05-19A363C2D547";
shapes = (
{
closed = 1;
nodes = (
(232,866,l),
(232,1400,l),
(156,1400,l),
(156,866,l)
);
}
);
width = 388;
},
{
layerId = "1D708A55-1947-4475-A0A3-21124B6DD42B";
shapes = (
{
closed = 1;
nodes = (
(388,802,l),
(442,1400,l),
(90,1400,l),
(142,802,l)
);
}
);
width = 532;
},
{
layerId = "42555ED7-786B-4551-A9FC-B380F510FD49";
shapes = (
{
closed = 1;
nodes = (
(324,866,l),
(418,1400,l),
(342,1400,l),
(248,866,l)
);
}
);
width = 348;
},
{
layerId = "DEEEE81F-2F80-4306-8755-EEA92C96C68A";
shapes = (
{
closed = 1;
nodes = (
(514,806,l),
(666,1400,l),
(332,1400,l),
(278,806,l)
);
}
);
width = 506;
},
{
layerId = "07B4BFD6-AD6C-43B6-9499-C92B9E22D320";
shapes = (
{
closed = 1;
nodes = (
(284,854,l),
(322,1400,l),
(106,1400,l),
(142,854,l)
);
}
);
width = 428;
},
{
layerId = "77C27521-0479-4645-83A2-7244263DD4C5";
shapes = (
{
closed = 1;
nodes = (
(424,854,l),
(558,1400,l),
(358,1400,l),
(296,854,l)
);
}
);
width = 424;
}
);
unicode = 39;
},
{
glyphname = parenleft;
kernLeft = parenleft;
kernRight = braceleft;
lastChange = "2021-02-02 22:19:15 +0000";
layers = (
{
layerId = "3BB16070-9AE0-46D6-9B05-19A363C2D547";
shapes = (
{
closed = 1;
nodes = (
(524,-260,l),
(466,-174,o),
(284,112,o),
(284,568,cs),
(284,1016,o),
(476,1338,o),
(546,1424,c),
(474,1424,l),
(340,1264,o),
(208,992,o),
(208,568,cs),
(208,144,o),
(330,-100,o),
(452,-260,c)
);
}
);
width = 672;
},
{
layerId = "1D708A55-1947-4475-A0A3-21124B6DD42B";
shapes = (
{
closed = 1;
nodes = (
(682,-260,l),
(604,-154,o),
(442,160,o),
(442,564,cs),
(442,982,o),
(614,1310,o),
(704,1424,c),
(406,1424,l),
(272,1260,o),
(140,938,o),
(140,564,cs),
(140,188,o),
(262,-100,o),
(384,-260,c)
);
}
);
width = 784;
},
{
layerId = "42555ED7-786B-4551-A9FC-B380F510FD49";
shapes = (
{
closed = 1;
nodes = (
(438,-260,l),
(406,-194,o),
(320,20,o),
(320,344,cs),
(320,922,o),
(654,1320,o),
(756,1424,c),
(684,1424,l),
(474,1218,o),
(240,842,o),
(240,330,cs),
(240,62,o),
(298,-136,o),
(366,-260,c)
);
}
);
width = 632;
},
{
layerId = "DEEEE81F-2F80-4306-8755-EEA92C96C68A";
shapes = (
{
closed = 1;
nodes = (
(598,-260,l),
(556,-180,o),
(488,92,o),
(488,338,cs),
(488,906,o),
(790,1286,o),
(920,1424,c),
(626,1424,l),
(434,1222,o),
(208,854,o),
(208,338,cs),
(208,108,o),
(266,-146,o),
(328,-260,c)
);
}
);
width = 744;
},
{
layerId = "07B4BFD6-AD6C-43B6-9499-C92B9E22D320";
shapes = (
{
closed = 1;
nodes = (
(568,-260,l),
(506,-170,o),
(328,122,o),
(328,568,cs),
(328,1010,o),
(516,1334,o),
(590,1424,c),
(422,1424,l),
(288,1264,o),
(156,982,o),
(156,568,cs),
(156,154,o),
(278,-100,o),
(400,-260,c)
);
}
);
width = 686;
},
{
layerId = "77C27521-0479-4645-83A2-7244263DD4C5";
shapes = (
{
closed = 1;
nodes = (
(506,-260,l),
(472,-192,o),
(394,40,o),
(394,324,cs),
(394,916,o),
(720,1314,o),
(826,1424,c),
(664,1424,l),
(460,1216,o),
(230,864,o),
(230,302,cs),
(230,62,o),
(286,-146,o),
(348,-260,c)
);
}
);
width = 676;
}
);
unicode = 40;
},
{
glyphname = parenright;
kernLeft = braceright;
kernRight = parenright;
lastChange = "2021-02-20 01:04:48 +0000";
layers = (
{
layerId = "3BB16070-9AE0-46D6-9B05-19A363C2D547";
shapes = (
{
closed = 1;
nodes = (
(220,-260,l),
(342,-100,o),
(464,144,o),
(464,568,cs),
(464,992,o),
(332,1264,o),
(198,1424,c),
(126,1424,l),
(196,1338,o),
(388,1016,o),
(388,568,cs),
(388,112,o),
(206,-174,o),
(148,-260,c)
);
}
);
width = 672;
},
{
layerId = "1D708A55-1947-4475-A0A3-21124B6DD42B";
shapes = (
{
closed = 1;
nodes = (
(400,-260,l),
(522,-100,o),
(644,188,o),
(644,564,cs),
(644,938,o),
(512,1260,o),
(378,1424,c),
(80,1424,l),
(170,1310,o),
(342,982,o),
(342,564,cs),
(342,156,o),
(178,-150,o),
(102,-260,c)
);
}
);
width = 784;
},
{
layerId = "42555ED7-786B-4551-A9FC-B380F510FD49";
shapes = (
{
closed = 1;
nodes = (
(134,-260,l),
(336,-48,o),
(550,280,o),
(550,804,cs),
(550,1074,o),
(486,1290,o),
(408,1424,c),
(336,1424,l),
(378,1356,o),
(472,1114,o),
(472,794,cs),
(472,200,o),
(152,-158,o),
(62,-260,c)
);
}
);
width = 632;
},
{
layerId = "DEEEE81F-2F80-4306-8755-EEA92C96C68A";
shapes = (
{
closed = 1;
nodes = (
(318,-260,l),
(510,-60,o),
(744,316,o),
(744,836,cs),
(744,1062,o),
(686,1312,o),
(626,1424,c),
(356,1424,l),
(396,1344,o),
(462,1080,o),
(462,836,cs),
(462,284,o),
(156,-122,o),
(22,-260,c)
);
}
);
width = 744;
},
{
layerId = "07B4BFD6-AD6C-43B6-9499-C92B9E22D320";
shapes = (
{
closed = 1;
nodes = (
(286,-260,l),
(408,-100,o),
(530,154,o),
(530,568,cs),
(530,982,o),
(398,1264,o),
(264,1424,c),
(96,1424,l),
(170,1334,o),
(358,1010,o),
(358,568,cs),
(358,122,o),
(180,-170,o),
(118,-260,c)
);
}
);
width = 686;
},
{
layerId = "77C27521-0479-4645-83A2-7244263DD4C5";
shapes = (
{
closed = 1;
nodes = (
(232,-260,l),
(432,-46,o),
(646,286,o),
(646,840,cs),
(646,1086,o),
(586,1308,o),
(516,1424,c),
(358,1424,l),
(398,1356,o),
(480,1104,o),
(480,816,cs),
(480,224,o),
(168,-148,o),
(72,-260,c)
);
}
);
width = 676;
}
);
unicode = 41;
},
{
glyphname = asterisk;
kernLeft = asterisk;
kernRight = asterisk;
lastChange = "2021-02-02 22:09:06 +0000";
layers = (
{
layerId = "3BB16070-9AE0-46D6-9B05-19A363C2D547";
shapes = (
{
closed = 1;
nodes = (
(422,786,l),
(524,966,l),
(626,786,l),
(746,620,l),
(808,668,l),
(688,834,l),
(542,980,l),
(740,1022,l),
(932,1086,l),
(906,1158,l),
(712,1094,l),
(538,1004,l),
(564,1190,l),
(564,1400,l),
(484,1400,l),
(484,1190,l),
(510,1004,l),
(336,1094,l),
(142,1158,l),
(116,1086,l),
(308,1022,l),
(506,980,l),
(360,834,l),
(240,668,l),
(302,620,l)
);
}
);
width = 1048;
},
{
layerId = "1D708A55-1947-4475-A0A3-21124B6DD42B";
shapes = (
{
closed = 1;
nodes = (
(550,740,l),
(566,826,l),
(580,740,l),
(728,540,l),
(956,704,l),
(806,904,l),
(734,920,l),
(814,924,l),
(1030,996,l),
(944,1268,l),
(724,1196,l),
(672,1150,l),
(708,1216,l),
(708,1452,l),
(422,1452,l),
(422,1216,l),
(460,1148,l),
(406,1196,l),
(186,1268,l),
(100,996,l),
(316,924,l),
(402,920,l),
(322,904,l),
(176,704,l),
(402,540,l)
);
}
);
width = 1130;
},
{
layerId = "42555ED7-786B-4551-A9FC-B380F510FD49";
shapes = (
{
closed = 1;
nodes = (
(506,786,l),
(638,966,l),
(708,786,l),
(800,618,l),
(872,666,l),
(776,834,l),
(658,980,l),
(864,1020,l),
(1066,1084,l),
(1052,1160,l),
(848,1096,l),
(656,1004,l),
(716,1190,l),
(752,1400,l),
(672,1400,l),
(636,1190,l),
(628,1004,l),
(472,1094,l),
(288,1158,l),
(250,1088,l),
(432,1024,l),
(622,980,l),
(446,834,l),
(298,666,l),
(354,618,l)
);
}
);
width = 1008;
},
{
layerId = "DEEEE81F-2F80-4306-8755-EEA92C96C68A";
shapes = (
{
closed = 1;
nodes = (
(648,736,l),
(690,844,l),
(704,736,l),
(814,538,l),
(1036,678,l),
(910,898,l),
(828,932,l),
(950,936,l),
(1172,1004,l),
(1120,1246,l),
(912,1184,l),
(824,1122,l),
(886,1220,l),
(928,1450,l),
(666,1450,l),
(622,1210,l),
(650,1126,l),
(578,1172,l),
(362,1250,l),
(268,1014,l),
(482,936,l),
(578,932,l),
(458,894,l),
(290,704,l),
(484,538,l)
);
}
);
width = 1078;
},
{
layerId = "07B4BFD6-AD6C-43B6-9499-C92B9E22D320";
shapes = (
{
closed = 1;
nodes = (
(478,780,l),
(532,928,l),
(586,780,l),
(724,594,l),
(854,692,l),
(722,874,l),
(604,972,l),
(750,976,l),
(958,1044,l),
(906,1200,l),
(704,1134,l),
(576,1046,l),
(614,1194,l),
(614,1420,l),
(452,1420,l),
(452,1194,l),
(486,1046,l),
(360,1134,l),
(160,1200,l),
(108,1044,l),
(314,976,l),
(458,972,l),
(344,874,l),
(212,692,l),
(342,594,l)
);
}
);
width = 1066;
},
{
layerId = "77C27521-0479-4645-83A2-7244263DD4C5";
shapes = (
{
closed = 1;
nodes = (
(606,780,l),
(680,922,l),
(710,780,l),
(812,590,l),
(954,686,l),
(854,872,l),
(764,966,l),
(902,974,l),
(1118,1044,l),
(1090,1198,l),
(884,1134,l),
(750,1046,l),
(812,1194,l),
(852,1422,l),
(692,1422,l),
(652,1196,l),
(658,1046,l),
(552,1130,l),
(366,1198,l),
(294,1046,l),
(486,974,l),
(612,966,l),
(490,872,l),
(330,692,l),
(444,590,l)
);
}
);
width = 1042;
}
);
unicode = 42;
},
{
glyphname = plus;
lastChange = "2020-09-15 16:22:47 +0000";
layers = (
{
layerId = "3BB16070-9AE0-46D6-9B05-19A363C2D547";
shapes = (
{
closed = 1;
nodes = (
(692,216,l),
(692,648,l),
(1126,648,l),
(1126,720,l),
(692,720,l),
(692,1156,l),
(616,1156,l),
(616,720,l),
(186,720,l),
(186,648,l),
(616,648,l),
(616,216,l)
);
}
);
width = 1312;
},
{
layerId = "1D708A55-1947-4475-A0A3-21124B6DD42B";
shapes = (
{
closed = 1;
nodes = (
(780,216,l),
(780,540,l),
(1100,540,l),
(1100,832,l),
(780,832,l),
(780,1156,l),
(480,1156,l),
(480,832,l),
(160,832,l),
(160,540,l),
(480,540,l),
(480,216,l)
);
}
);
width = 1260;
},
{
layerId = "42555ED7-786B-4551-A9FC-B380F510FD49";
shapes = (
{
closed = 1;
nodes = (
(772,216,l),
(772,648,l),
(1206,648,l),
(1206,720,l),
(772,720,l),
(772,1156,l),
(696,1156,l),
(696,720,l),
(266,720,l),
(266,648,l),
(696,648,l),
(696,216,l)
);
}
);
width = 1272;
},
{
layerId = "DEEEE81F-2F80-4306-8755-EEA92C96C68A";
shapes = (
{
closed = 1;
nodes = (
(866,216,l),
(866,546,l),
(1160,546,l),
(1160,828,l),
(866,828,l),
(866,1156,l),
(576,1156,l),
(576,828,l),
(280,828,l),
(280,546,l),
(576,546,l),
(576,216,l)
);
}
);
width = 1210;
},
{
layerId = "07B4BFD6-AD6C-43B6-9499-C92B9E22D320";
shapes = (
{
closed = 1;
nodes = (
(732,216,l),
(732,602,l),
(1116,602,l),
(1116,770,l),
(732,770,l),
(732,1156,l),
(556,1156,l),
(556,770,l),
(176,770,l),
(176,602,l),
(556,602,l),
(556,216,l)
);
}
);
width = 1290;
},
{
layerId = "77C27521-0479-4645-83A2-7244263DD4C5";
shapes = (
{
closed = 1;
nodes = (
(830,216,l),
(830,602,l),
(1210,602,l),
(1210,768,l),
(830,768,l),
(830,1156,l),
(658,1156,l),
(658,768,l),
(282,768,l),
(282,602,l),
(658,602,l),
(658,216,l)
);
}
);
width = 1260;
}
);
unicode = 43;
},
{
glyphname = comma;
kernLeft = comma;
kernRight = comma;
lastChange = "2021-03-19 19:33:22 +0000";
layers = (
{
layerId = "3BB16070-9AE0-46D6-9B05-19A363C2D547";
shapes = (
{
closed = 1;
nodes = (
(212,-232,o),
(268,-114,o),
(268,0,cs),
(268,68,o),
(238,92,o),
(202,92,cs),
(170,92,o),
(144,66,o),
(144,30,cs),
(144,-4,o),
(172,-28,o),
(208,-28,c),
(208,-114,o),
(196,-198,o),
(144,-276,c),
(162,-282,l)
);
}
);
width = 404;
},
{
layerId = "1D708A55-1947-4475-A0A3-21124B6DD42B";
shapes = (
{
closed = 1;
nodes = (
(330,-198,o),
(460,-20,o),
(460,136,cs),
(460,260,o),
(382,334,o),
(282,334,cs),
(186,334,o),
(98,264,o),
(98,158,cs),
(98,74,o),
(138,24,o),
(198,-10,c),
(168,-56,o),
(98,-144,o),
(62,-176,c),
(196,-282,l)
);
}
);
width = 530;
},
{
layerId = "42555ED7-786B-4551-A9FC-B380F510FD49";
shapes = (
{
closed = 1;
nodes = (
(162,-226,o),
(254,-90,o),
(254,22,cs),
(254,72,o),
(228,92,o),
(198,92,cs),
(158,92,o),
(132,62,o),
(132,24,cs),
(132,-8,o),
(156,-28,o),
(186,-28,c),
(186,-98,o),
(128,-220,o),
(78,-276,c),
(96,-282,l)
);
}
);
width = 364;
},
{
layerId = "DEEEE81F-2F80-4306-8755-EEA92C96C68A";
shapes = (
{
closed = 1;
nodes = (
(294,-186,o),
(458,-2,o),
(458,172,cs),
(458,270,o),
(392,328,o),
(298,328,cs),
(204,328,o),
(110,248,o),
(110,126,cs),
(110,62,o),
(144,16,o),
(188,-8,c),
(150,-58,o),
(64,-150,o),
(24,-182,c),
(128,-282,l)
);
}
);
width = 500;
},
{
layerId = "07B4BFD6-AD6C-43B6-9499-C92B9E22D320";
shapes = (
{
closed = 1;
nodes = (
(284,-214,o),
(372,-86,o),
(372,68,cs),
(372,188,o),
(298,244,o),
(220,244,cs),
(148,244,o),
(86,188,o),
(86,102,cs),
(86,26,o),
(148,-28,o),
(226,-32,c),
(220,-134,o),
(150,-220,o),
(114,-252,c),
(172,-282,l)
);
}
);
width = 450;
},
{
layerId = "77C27521-0479-4645-83A2-7244263DD4C5";
shapes = (
{
closed = 1;
nodes = (
(268,-202,o),
(384,-58,o),
(384,104,cs),
(384,194,o),
(330,240,o),
(262,240,cs),
(186,240,o),
(112,176,o),
(112,80,cs),
(112,18,o),
(156,-28,o),
(224,-32,c),
(200,-138,o),
(122,-222,o),
(82,-254,c),
(130,-282,l)
);
}
);
width = 450;
}
);
unicode = 44;
},
{
glyphname = hyphen;
kernLeft = hyphen;
kernRight = hyphen;
lastChange = "2020-09-15 16:22:47 +0000";
layers = (
{
layerId = "3BB16070-9AE0-46D6-9B05-19A363C2D547";
shapes = (
{
closed = 1;
nodes = (
(622,560,l),
(622,632,l),
(176,632,l),
(176,560,l)
);
}
);
width = 798;
},
{
layerId = "1D708A55-1947-4475-A0A3-21124B6DD42B";
shapes = (
{
closed = 1;
nodes = (
(700,446,l),
(700,732,l),
(150,732,l),
(150,446,l)
);
}
);
width = 850;
},
{
layerId = "42555ED7-786B-4551-A9FC-B380F510FD49";
shapes = (
{
closed = 1;
nodes = (
(678,560,l),
(690,632,l),
(244,632,l),
(232,560,l)
);
}
);
width = 758;
},
{
layerId = "DEEEE81F-2F80-4306-8755-EEA92C96C68A";
shapes = (
{
closed = 1;
nodes = (
(746,452,l),
(796,730,l),
(272,730,l),
(224,452,l)
);
}
);
width = 812;
},
{
layerId = "07B4BFD6-AD6C-43B6-9499-C92B9E22D320";
shapes = (
{
closed = 1;
nodes = (
(634,512,l),
(634,680,l),
(166,680,l),
(166,512,l)
);
}
);
width = 798;
},
{
layerId = "77C27521-0479-4645-83A2-7244263DD4C5";
shapes = (
{
closed = 1;
nodes = (
(708,512,l),
(736,678,l),
(290,678,l),
(260,512,l)
);
}
);
width = 786;
}
);
unicode = 45;
},
{
glyphname = period;
kernLeft = comma;
kernRight = comma;
lastChange = "2021-03-19 18:55:30 +0000";
layers = (
{
layerId = "3BB16070-9AE0-46D6-9B05-19A363C2D547";
shapes = (
{
closed = 1;
nodes = (
(236,-28,o),
(260,-2,o),
(260,30,cs),
(260,64,o),
(236,92,o),
(202,92,cs),
(170,92,o),
(144,64,o),
(144,30,cs),
(144,-2,o),
(170,-28,o),
(202,-28,cs)
);
}
);
width = 404;
},
{
layerId = "1D708A55-1947-4475-A0A3-21124B6DD42B";
shapes = (
{
closed = 1;
nodes = (
(358,-24,o),
(438,50,o),
(438,154,cs),
(438,254,o),
(358,334,o),
(254,334,cs),
(150,334,o),
(72,254,o),
(72,154,cs),
(72,50,o),
(150,-24,o),
(254,-24,cs)
);
}
);
width = 510;
},
{
layerId = "42555ED7-786B-4551-A9FC-B380F510FD49";
shapes = (
{
closed = 1;
nodes = (
(212,-28,o),
(244,2,o),
(246,38,cs),
(246,68,o),
(228,92,o),
(198,92,cs),
(162,92,o),
(128,60,o),
(126,24,cs),
(126,-6,o),
(146,-28,o),
(174,-28,cs)
);
}
);
width = 364;
},
{
layerId = "DEEEE81F-2F80-4306-8755-EEA92C96C68A";
shapes = (
{
closed = 1;
nodes = (
(364,-24,o),
(444,60,o),
(444,182,cs),
(444,262,o),
(386,328,o),
(286,328,cs),
(186,328,o),
(100,246,o),
(100,124,cs),
(100,42,o),
(160,-24,o),
(250,-24,cs)
);
}
);
width = 484;
},
{
layerId = "07B4BFD6-AD6C-43B6-9499-C92B9E22D320";
shapes = (
{
closed = 1;
nodes = (
(302,-26,o),
(364,38,o),
(364,110,cs),
(364,182,o),
(302,248,o),
(224,248,cs),
(146,248,o),
(86,182,o),
(86,110,cs),
(86,38,o),
(146,-26,o),
(224,-26,cs)
);
}
);
width = 450;
},
{
layerId = "77C27521-0479-4645-83A2-7244263DD4C5";
shapes = (
{
closed = 1;
nodes = (
(306,-28,o),
(378,48,o),
(378,130,cs),
(378,190,o),
(334,244,o),
(264,244,cs),
(184,244,o),
(112,170,o),
(112,88,cs),
(112,28,o),
(154,-28,o),
(222,-28,cs)
);
}
);
width = 448;
}
);
unicode = 46;
},
{
glyphname = slash;
kernLeft = slash;
kernRight = slash;
lastChange = "2021-02-02 23:22:02 +0000";
layers = (
{
layerId = "3BB16070-9AE0-46D6-9B05-19A363C2D547";
shapes = (
{
closed = 1;
nodes = (
(104,-260,l),
(890,1424,l),
(810,1424,l),
(24,-260,l)
);
}
);
width = 964;
},
{
layerId = "1D708A55-1947-4475-A0A3-21124B6DD42B";
shapes = (
{
closed = 1;
nodes = (
(282,-260,l),
(1068,1424,l),
(756,1424,l),
(-30,-260,l)
);
}
);
width = 1088;
},
{
layerId = "42555ED7-786B-4551-A9FC-B380F510FD49";
shapes = (
{
closed = 1;
nodes = (
(18,-260,l),
(1098,1424,l),
(1018,1424,l),
(-60,-260,l)
);
}
);
width = 924;
},
{
layerId = "DEEEE81F-2F80-4306-8755-EEA92C96C68A";
shapes = (
{
closed = 1;
nodes = (
(222,-260,l),
(1276,1424,l),
(978,1424,l),
(-74,-260,l)
);
}
);
width = 1034;
},
{
layerId = "07B4BFD6-AD6C-43B6-9499-C92B9E22D320";
shapes = (
{
closed = 1;
nodes = (
(158,-260,l),
(944,1424,l),
(772,1424,l),
(-16,-260,l)
);
}
);
width = 980;
},
{
layerId = "77C27521-0479-4645-83A2-7244263DD4C5";
shapes = (
{
closed = 1;
nodes = (
(114,-260,l),
(1166,1424,l),
(1004,1424,l),
(-50,-260,l)
);
}
);
width = 958;
}
);
unicode = 47;
},
{
glyphname = zero;
kernLeft = zero;
kernRight = zero;
lastChange = "2021-03-19 19:44:11 +0000";
layers = (
{
anchors = (
{
name = center;
pos = (610,700);
}
);
layerId = "3BB16070-9AE0-46D6-9B05-19A363C2D547";
shapes = (
{
closed = 1;
nodes = (
(968,-24,o),
(1056,404,o),
(1056,700,cs),
(1056,1042,o),
(950,1424,o),
(610,1424,cs),
(248,1424,o),
(164,992,o),
(164,700,cs),
(164,350,o),
(270,-24,o),
(610,-24,cs)
);
},
{
closed = 1;
nodes = (
(330,48,o),
(242,384,o),
(242,700,cs),
(242,962,o),
(312,1352,o),
(610,1352,cs),
(890,1352,o),
(978,1008,o),
(978,700,cs),
(978,434,o),
(906,48,o),
(610,48,cs)
);
}
);
width = 1220;
},
{
anchors = (
{
name = center;
pos = (668,700);
}
);
layerId = "1D708A55-1947-4475-A0A3-21124B6DD42B";
shapes = (
{
closed = 1;
nodes = (
(1074,-24,o),
(1196,340,o),
(1196,700,cs),
(1196,1054,o),
(1082,1424,o),
(668,1424,cs),
(260,1424,o),
(140,1064,o),
(140,700,cs),
(140,358,o),
(254,-24,o),
(668,-24,cs)
);
},
{
closed = 1;
nodes = (
(502,274,o),
(450,486,o),
(450,700,cs),
(450,926,o),
(508,1126,o),
(668,1126,cs),
(832,1126,o),
(884,914,o),
(884,700,cs),
(884,474,o),
(828,274,o),
(668,274,cs)
);
}
);
width = 1336;
},
{
anchors = (
{
name = center;
pos = (688,700);
}
);
layerId = "42555ED7-786B-4551-A9FC-B380F510FD49";
shapes = (
{
closed = 1;
nodes = (
(1008,-24,o),
(1148,592,o),
(1148,902,cs),
(1148,1164,o),
(1060,1424,o),
(806,1424,cs),
(352,1424,o),
(228,778,o),
(228,496,cs),
(228,248,o),
(306,-24,o),
(574,-24,cs)
);
},
{
closed = 1;
nodes = (
(372,48,o),
(306,270,o),
(306,496,cs),
(306,770,o),
(428,1352,o),
(794,1352,cs),
(1006,1352,o),
(1070,1128,o),
(1070,902,cs),
(1070,620,o),
(946,48,o),
(582,48,cs)
);
}
);
width = 1192;
},
{
anchors = (
{
name = center;
pos = (740,700);
}
);
layerId = "DEEEE81F-2F80-4306-8755-EEA92C96C68A";
shapes = (
{
closed = 1;
nodes = (
(994,-26,o),
(1264,362,o),
(1264,862,cs),
(1264,1210,o),
(1100,1430,o),
(848,1430,cs),
(488,1430,o),
(218,1050,o),
(218,542,cs),
(218,194,o),
(380,-26,o),
(638,-26,cs)
);
},
{
closed = 1;
nodes = (
(568,266,o),
(508,346,o),
(508,562,cs),
(508,916,o),
(652,1138,o),
(808,1138,cs),
(914,1138,o),
(974,1058,o),
(974,842,cs),
(974,488,o),
(830,266,o),
(674,266,cs)
);
}
);
width = 1234;
},
{
anchors = (
{
name = center;
pos = (640,700);
}
);
layerId = "07B4BFD6-AD6C-43B6-9499-C92B9E22D320";
shapes = (
{
closed = 1;
nodes = (
(1032,-24,o),
(1132,392,o),
(1132,700,cs),
(1132,1044,o),
(1018,1424,o),
(642,1424,cs),
(248,1424,o),
(152,1008,o),
(152,700,cs),
(152,352,o),
(266,-24,o),
(642,-24,cs)
);
},
{
closed = 1;
nodes = (
(396,140,o),
(332,424,o),
(332,700,cs),
(332,950,o),
(386,1262,o),
(642,1262,cs),
(886,1262,o),
(948,976,o),
(948,700,cs),
(948,450,o),
(896,140,o),
(642,140,cs)
);
}
);
width = 1284;
},
{
anchors = (
{
name = center;
pos = (722,700);
}
);
layerId = "77C27521-0479-4645-83A2-7244263DD4C5";
shapes = (
{
closed = 1;
nodes = (
(1066,-26,o),
(1216,520,o),
(1216,916,cs),
(1216,1156,o),
(1126,1426,o),
(832,1426,cs),
(388,1426,o),
(232,892,o),
(232,486,cs),
(232,232,o),
(332,-26,o),
(616,-26,cs)
);
},
{
closed = 1;
nodes = (
(452,134,o),
(402,322,o),
(402,500,cs),
(402,688,o),
(472,1266,o),
(816,1266,cs),
(996,1266,o),
(1046,1078,o),
(1046,900,cs),
(1046,706,o),
(974,134,o),
(632,134,cs)
);
}
);
width = 1202;
}
);
unicode = 48;
},
{
glyphname = one;
kernLeft = one;
kernRight = H;
lastChange = "2021-02-02 22:12:38 +0000";
layers = (
{
layerId = "3BB16070-9AE0-46D6-9B05-19A363C2D547";
shapes = (
{
closed = 1;
nodes = (
(420,0,l),
(420,1400,l),
(370,1400,l),
(336,1238,o),
(290,1212,o),
(110,1212,c),
(110,1164,l),
(348,1164,l),
(348,0,l)
);
}
);
width = 660;
},
{
layerId = "1D708A55-1947-4475-A0A3-21124B6DD42B";
shapes = (
{
closed = 1;
nodes = (
(580,0,l),
(580,1400,l),
(322,1400,l),
(286,1292,o),
(194,1258,o),
(62,1258,c),
(62,998,l),
(264,998,l),
(264,0,l)
);
}
);
width = 836;
},
{
layerId = "42555ED7-786B-4551-A9FC-B380F510FD49";
shapes = (
{
closed = 1;
nodes = (
(374,0,l),
(622,1400,l),
(574,1400,l),
(510,1238,o),
(460,1212,o),
(284,1212,c),
(278,1164,l),
(508,1164,l),
(302,0,l)
);
}
);
width = 620;
},
{
layerId = "DEEEE81F-2F80-4306-8755-EEA92C96C68A";
shapes = (
{
closed = 1;
nodes = (
(528,0,l),
(774,1400,l),
(528,1400,l),
(476,1292,o),
(378,1256,o),
(254,1256,c),
(210,1010,l),
(408,1010,l),
(230,0,l)
);
}
);
width = 772;
},
{
layerId = "07B4BFD6-AD6C-43B6-9499-C92B9E22D320";
shapes = (
{
closed = 1;
nodes = (
(488,0,l),
(488,1400,l),
(362,1400,l),
(320,1274,o),
(218,1234,o),
(80,1234,c),
(80,1116,l),
(314,1116,l),
(314,0,l)
);
}
);
width = 746;
},
{
layerId = "77C27521-0479-4645-83A2-7244263DD4C5";
shapes = (
{
closed = 1;
nodes = (
(464,0,l),
(710,1400,l),
(592,1400,l),
(530,1272,o),
(420,1232,o),
(288,1232,c),
(268,1118,l),
(490,1118,l),
(292,0,l)
);
}
);
width = 672;
}
);
unicode = 49;
},
{
glyphname = two;
kernLeft = two;
kernRight = two;
lastChange = "2021-07-22 18:17:36 +0000";
layers = (
{
layerId = "3BB16070-9AE0-46D6-9B05-19A363C2D547";
shapes = (
{
closed = 1;
nodes = (
(1020,0,l),
(1020,72,l),
(248,72,l),
(256,272,o),
(377,379,o),
(592,514,cs),
(798,644,o),
(1008,778,o),
(1008,1046,cs),
(1008,1268,o),
(860,1424,o),
(606,1424,cs),
(388,1424,o),
(242,1294,o),
(194,1124,c),
(262,1092,l),
(304,1246,o),
(424,1352,o),
(606,1352,cs),
(810,1352,o),
(932,1224,o),
(932,1046,cs),
(932,820,o),
(752,702,o),
(554,574,cs),
(326,426,o),
(166,316,o),
(166,0,c)
);
}
);
width = 1192;
},
{
layerId = "1D708A55-1947-4475-A0A3-21124B6DD42B";
shapes = (
{
closed = 1;
nodes = (
(1094,0,l),
(1094,302,l),
(490,302,l),
(536,402,o),
(606,454,o),
(794,566,cs),
(962,666,o),
(1082,768,o),
(1082,1010,cs),
(1082,1236,o),
(916,1424,o),
(624,1424,cs),
(424,1424,o),
(232,1310,o),
(144,1118,c),
(424,990,l),
(472,1076,o),
(544,1126,o),
(632,1126,cs),
(716,1126,o),
(772,1082,o),
(772,998,cs),
(772,906,o),
(686,851,o),
(598,802,cs),
(324,650,o),
(122,436,o),
(122,0,c)
);
}
);
width = 1222;
},
{
layerId = "42555ED7-786B-4551-A9FC-B380F510FD49";
shapes = (
{
closed = 1;
nodes = (
(958,0,l),
(972,72,l),
(218,72,l),
(270,272,o),
(392,377,o),
(632,514,cs),
(888,660,o),
(1138,808,o),
(1138,1102,cs),
(1138,1290,o),
(1016,1424,o),
(796,1424,cs),
(592,1424,o),
(428,1294,o),
(352,1124,c),
(414,1092,l),
(482,1246,o),
(616,1352,o),
(794,1352,cs),
(966,1352,o),
(1060,1250,o),
(1060,1102,cs),
(1060,836,o),
(824,701,o),
(602,574,cs),
(352,431,o),
(182,316,o),
(126,0,c)
);
}
);
width = 1152;
},
{
layerId = "DEEEE81F-2F80-4306-8755-EEA92C96C68A";
shapes = (
{
closed = 1;
nodes = (
(1032,0,l),
(1084,292,l),
(510,292,l),
(546,384,o),
(674,482,o),
(796,550,cs),
(1080,708,o),
(1220,788,o),
(1220,1048,cs),
(1220,1258,o),
(1050,1424,o),
(824,1424,cs),
(590,1424,o),
(430,1312,o),
(308,1118,c),
(546,996,l),
(596,1098,o),
(678,1152,o),
(780,1152,cs),
(870,1152,o),
(916,1100,o),
(916,1032,cs),
(916,948,o),
(860,900,o),
(684,800,cs),
(392,634,o),
(168,468,o),
(88,0,c)
);
}
);
width = 1128;
},
{
layerId = "07B4BFD6-AD6C-43B6-9499-C92B9E22D320";
shapes = (
{
closed = 1;
nodes = (
(1082,0,l),
(1082,170,l),
(342,170,l),
(374,332,o),
(510,436,o),
(682,536,cs),
(888,656,o),
(1070,774,o),
(1070,1020,cs),
(1070,1260,o),
(902,1424,o),
(622,1424,cs),
(390,1424,o),
(216,1298,o),
(162,1126,c),
(318,1056,l),
(358,1180,o),
(444,1262,o),
(616,1262,cs),
(784,1262,o),
(890,1158,o),
(890,1024,cs),
(890,866,o),
(754,772,o),
(604,684,cs),
(374,550,o),
(140,368,o),
(140,0,c)
);
}
);
width = 1224;
},
{
layerId = "77C27521-0479-4645-83A2-7244263DD4C5";
shapes = (
{
closed = 1;
nodes = (
(1022,0,l),
(1052,166,l),
(360,166,l),
(404,312,o),
(548,420,o),
(718,520,cs),
(982,676,o),
(1204,808,o),
(1204,1076,cs),
(1204,1270,o),
(1052,1424,o),
(810,1424,cs),
(592,1424,o),
(420,1296,o),
(346,1126,c),
(484,1056,l),
(542,1190,o),
(646,1268,o),
(798,1268,cs),
(948,1268,o),
(1030,1180,o),
(1030,1066,cs),
(1030,894,o),
(870,796,o),
(658,668,cs),
(426,528,o),
(184,374,o),
(130,0,c)
);
}
);
width = 1152;
}
);
unicode = 50;
},
{
glyphname = three;
kernLeft = three;
kernRight = B;
lastChange = "2021-02-02 23:01:15 +0000";
layers = (
{
layerId = "3BB16070-9AE0-46D6-9B05-19A363C2D547";
shapes = (
{
closed = 1;
nodes = (
(828,-24,o),
(1006,134,o),
(1006,364,cs),
(1006,556,o),
(894,700,o),
(722,734,c),
(866,788,o),
(950,914,o),
(950,1072,cs),
(950,1278,o),
(792,1424,o),
(572,1424,cs),
(402,1424,o),
(244,1320,o),
(170,1162,c),
(238,1134,l),
(308,1272,o),
(430,1352,o),
(572,1352,cs),
(750,1352,o),
(874,1236,o),
(874,1072,cs),
(874,886,o),
(746,762,o),
(556,762,cs),
(510,762,l),
(510,692,l),
(586,692,ls),
(802,692,o),
(930,570,o),
(930,364,cs),
(930,172,o),
(786,48,o),
(568,48,cs),
(392,48,o),
(262,134,o),
(186,304,c),
(116,278,l),
(196,86,o),
(360,-24,o),
(568,-24,cs)
);
}
);
width = 1172;
},
{
layerId = "1D708A55-1947-4475-A0A3-21124B6DD42B";
shapes = (
{
closed = 1;
nodes = (
(876,-24,o),
(1074,140,o),
(1074,370,cs),
(1074,526,o),
(992,660,o),
(868,710,c),
(972,782,o),
(1030,892,o),
(1030,1020,cs),
(1030,1262,o),
(852,1424,o),
(588,1424,cs),
(392,1424,o),
(228,1318,o),
(132,1130,c),
(414,1020,l),
(458,1090,o),
(514,1126,o),
(584,1126,cs),
(664,1126,o),
(720,1070,o),
(720,994,cs),
(720,904,o),
(672,850,o),
(588,850,cs),
(430,850,l),
(430,548,l),
(588,548,ls),
(690,548,o),
(764,494,o),
(764,418,cs),
(764,328,o),
(700,274,o),
(598,274,cs),
(502,274,o),
(430,320,o),
(370,422,c),
(90,308,l),
(172,98,o),
(360,-24,o),
(598,-24,cs)
);
}
);
width = 1196;
},
{
layerId = "42555ED7-786B-4551-A9FC-B380F510FD49";
shapes = (
{
closed = 1;
nodes = (
(818,-24,o),
(1016,162,o),
(1016,432,cs),
(1016,588,o),
(934,694,o),
(788,730,c),
(970,792,o),
(1088,948,o),
(1088,1126,cs),
(1088,1304,o),
(958,1424,o),
(770,1424,cs),
(602,1424,o),
(436,1324,o),
(332,1162,c),
(396,1134,l),
(490,1272,o),
(622,1352,o),
(760,1352,cs),
(910,1352,o),
(1008,1260,o),
(1008,1118,cs),
(1008,912,o),
(854,762,o),
(640,762,cs),
(596,762,l),
(584,692,l),
(646,692,ls),
(840,692,o),
(942,600,o),
(942,428,cs),
(942,200,o),
(778,48,o),
(530,48,cs),
(358,48,o),
(238,140,o),
(196,304,c),
(126,278,l),
(172,88,o),
(322,-24,o),
(530,-24,cs)
);
}
);
width = 1132;
},
{
layerId = "DEEEE81F-2F80-4306-8755-EEA92C96C68A";
shapes = (
{
closed = 1;
nodes = (
(890,-24,o),
(1108,174,o),
(1108,426,cs),
(1108,526,o),
(1072,670,o),
(918,734,c),
(1060,794,o),
(1168,920,o),
(1168,1092,cs),
(1168,1296,o),
(992,1424,o),
(778,1424,cs),
(588,1424,o),
(414,1316,o),
(308,1136,c),
(548,1030,l),
(598,1100,o),
(662,1146,o),
(736,1146,cs),
(818,1146,o),
(862,1088,o),
(862,1030,cs),
(862,950,o),
(784,868,o),
(696,868,cs),
(558,868,l),
(508,586,l),
(640,586,ls),
(756,586,o),
(804,520,o),
(804,452,cs),
(804,336,o),
(698,258,o),
(604,258,cs),
(516,258,o),
(430,300,o),
(394,416,c),
(112,304,l),
(176,88,o),
(352,-24,o),
(604,-24,cs)
);
}
);
width = 1104;
},
{
layerId = "07B4BFD6-AD6C-43B6-9499-C92B9E22D320";
shapes = (
{
closed = 1;
nodes = (
(864,-24,o),
(1064,152,o),
(1064,398,cs),
(1064,562,o),
(980,688,o),
(830,748,c),
(942,806,o),
(1010,922,o),
(1010,1052,cs),
(1010,1266,o),
(832,1424,o),
(588,1424,cs),
(382,1424,o),
(218,1316,o),
(148,1134,c),
(310,1072,l),
(366,1194,o),
(466,1260,o),
(588,1260,cs),
(732,1260,o),
(828,1170,o),
(828,1032,cs),
(828,900,o),
(730,810,o),
(582,810,cs),
(492,810,l),
(492,646,l),
(592,646,ls),
(774,646,o),
(882,552,o),
(882,392,cs),
(882,238,o),
(768,142,o),
(582,142,cs),
(432,142,o),
(328,216,o),
(266,368,c),
(104,302,l),
(186,88,o),
(348,-24,o),
(582,-24,cs)
);
}
);
width = 1204;
},
{
layerId = "77C27521-0479-4645-83A2-7244263DD4C5";
shapes = (
{
closed = 1;
nodes = (
(886,-24,o),
(1084,164,o),
(1084,430,cs),
(1084,564,o),
(1010,686,o),
(900,730,c),
(1060,802,o),
(1146,932,o),
(1146,1096,cs),
(1146,1292,o),
(996,1424,o),
(772,1424,cs),
(570,1424,o),
(402,1314,o),
(326,1130,c),
(476,1074,l),
(530,1202,o),
(628,1268,o),
(762,1268,cs),
(888,1268,o),
(974,1190,o),
(974,1072,cs),
(974,918,o),
(854,808,o),
(682,808,cs),
(590,808,l),
(562,650,l),
(670,650,ls),
(822,650,o),
(910,570,o),
(910,430,cs),
(910,254,o),
(786,134,o),
(604,134,cs),
(452,134,o),
(352,210,o),
(308,362,c),
(152,306,l),
(198,106,o),
(376,-24,o),
(604,-24,cs)
);
}
);
width = 1132;
}
);
unicode = 51;
},
{
glyphname = four;
kernLeft = four;
kernRight = four;
lastChange = "2021-03-19 19:32:44 +0000";
layers = (
{
layerId = "3BB16070-9AE0-46D6-9B05-19A363C2D547";
shapes = (
{
closed = 1;
nodes = (
(842,0,l),
(842,408,l),
(1054,408,l),
(1054,474,l),
(842,474,l),
(842,1400,l),
(810,1400,l),
(86,450,l),
(86,408,l),
(770,408,l),
(770,0,l)
);
},
{
closed = 1;
nodes = (
(770,1240,l),
(770,474,l),
(188,474,l)
);
}
);
width = 1166;
},
{
layerId = "1D708A55-1947-4475-A0A3-21124B6DD42B";
shapes = (
{
closed = 1;
nodes = (
(1042,0,l),
(1042,252,l),
(1204,252,l),
(1204,546,l),
(1042,546,l),
(1042,1400,l),
(738,1400,l),
(22,452,l),
(22,252,l),
(736,252,l),
(736,0,l)
);
},
{
closed = 1;
nodes = (
(736,966,l),
(736,546,l),
(430,546,l)
);
}
);
width = 1314;
},
{
layerId = "42555ED7-786B-4551-A9FC-B380F510FD49";
shapes = (
{
closed = 1;
nodes = (
(798,0,l),
(870,408,l),
(1076,408,l),
(1090,474,l),
(884,474,l),
(1046,1400,l),
(1012,1400,l),
(136,450,l),
(128,408,l),
(796,408,l),
(724,0,l)
);
},
{
closed = 1;
nodes = (
(942,1240,l),
(810,474,l),
(244,474,l)
);
}
);
width = 1126;
},
{
layerId = "DEEEE81F-2F80-4306-8755-EEA92C96C68A";
shapes = (
{
closed = 1;
nodes = (
(1016,0,l),
(1062,256,l),
(1218,256,l),
(1268,538,l),
(1112,538,l),
(1262,1400,l),
(910,1400,l),
(100,496,l),
(58,256,l),
(766,256,l),
(720,0,l)
);
},
{
closed = 1;
nodes = (
(898,1012,l),
(814,538,l),
(482,538,l)
);
}
);
width = 1232;
},
{
layerId = "07B4BFD6-AD6C-43B6-9499-C92B9E22D320";
shapes = (
{
closed = 1;
nodes = (
(940,0,l),
(940,348,l),
(1138,348,l),
(1138,504,l),
(940,504,l),
(940,1400,l),
(776,1400,l),
(50,452,l),
(50,348,l),
(766,348,l),
(766,0,l)
);
},
{
closed = 1;
nodes = (
(766,1154,l),
(766,504,l),
(278,504,l)
);
}
);
width = 1242;
},
{
layerId = "77C27521-0479-4645-83A2-7244263DD4C5";
shapes = (
{
closed = 1;
nodes = (
(886,0,l),
(948,354,l),
(1138,354,l),
(1166,510,l),
(976,510,l),
(1132,1400,l),
(992,1400,l),
(132,460,l),
(112,354,l),
(776,354,l),
(714,0,l)
);
},
{
closed = 1;
nodes = (
(908,1102,l),
(804,510,l),
(372,510,l)
);
}
);
width = 1152;
}
);
unicode = 52;
},
{
glyphname = five;
kernLeft = five;
kernRight = five;
lastChange = "2021-02-20 00:15:36 +0000";
layers = (
{
layerId = "3BB16070-9AE0-46D6-9B05-19A363C2D547";
shapes = (
{
closed = 1;
nodes = (
(922,-24,o),
(1076,208,o),
(1076,454,cs),
(1076,722,o),
(884,904,o),
(626,904,cs),
(498,904,o),
(392,860,o),
(316,792,c),
(402,1328,l),
(984,1328,l),
(984,1400,l),
(338,1400,l),
(224,690,l),
(284,674,l),
(358,758,o),
(466,832,o),
(624,832,cs),
(842,832,o),
(1000,680,o),
(1000,454,cs),
(1000,244,o),
(876,48,o),
(600,48,cs),
(410,48,o),
(284,146,o),
(220,218,c),
(172,158,l),
(240,82,o),
(392,-24,o),
(598,-24,cs)
);
}
);
width = 1248;
},
{
layerId = "1D708A55-1947-4475-A0A3-21124B6DD42B";
shapes = (
{
closed = 1;
nodes = (
(858,-24,o),
(1090,160,o),
(1090,470,cs),
(1090,736,o),
(932,942,o),
(624,942,cs),
(566,942,o),
(522,932,o),
(464,918,c),
(470,1096,l),
(1002,1096,l),
(1002,1400,l),
(178,1400,l),
(152,688,l),
(420,544,l),
(476,608,o),
(530,644,o),
(626,644,cs),
(730,644,o),
(778,572,o),
(778,474,cs),
(778,340,o),
(686,274,o),
(550,274,cs),
(438,274,o),
(344,318,o),
(274,362,c),
(112,114,l),
(202,46,o),
(348,-24,o),
(550,-24,cs)
);
}
);
width = 1208;
},
{
layerId = "42555ED7-786B-4551-A9FC-B380F510FD49";
shapes = (
{
closed = 1;
nodes = (
(926,-24,o),
(1106,254,o),
(1106,528,cs),
(1106,748,o),
(958,904,o),
(734,904,cs),
(610,904,o),
(498,860,o),
(414,792,c),
(594,1328,l),
(1160,1328,l),
(1172,1400,l),
(542,1400,l),
(304,690,l),
(362,674,l),
(448,758,o),
(568,832,o),
(722,832,cs),
(910,832,o),
(1030,706,o),
(1030,520,cs),
(1030,290,o),
(878,48,o),
(562,48,cs),
(374,48,o),
(268,146,o),
(218,218,c),
(160,158,l),
(214,82,o),
(358,-24,o),
(562,-24,cs)
);
}
);
width = 1208;
},
{
layerId = "DEEEE81F-2F80-4306-8755-EEA92C96C68A";
shapes = (
{
closed = 1;
nodes = (
(884,-24,o),
(1138,162,o),
(1138,516,cs),
(1138,766,o),
(996,938,o),
(754,938,cs),
(666,938,o),
(604,922,o),
(556,900,c),
(598,1108,l),
(1124,1108,l),
(1174,1400,l),
(374,1400,l),
(236,702,l),
(482,564,l),
(546,620,o),
(592,656,o),
(668,656,cs),
(754,656,o),
(832,602,o),
(832,490,cs),
(832,336,o),
(706,266,o),
(610,266,cs),
(460,266,o),
(414,360,o),
(396,426,c),
(116,324,l),
(168,112,o),
(356,-24,o),
(580,-24,cs)
);
}
);
width = 1096;
},
{
layerId = "07B4BFD6-AD6C-43B6-9499-C92B9E22D320";
shapes = (
{
closed = 1;
nodes = (
(900,-24,o),
(1104,196,o),
(1104,462,cs),
(1104,710,o),
(930,912,o),
(656,912,cs),
(542,912,o),
(434,874,o),
(362,816,c),
(416,1238,l),
(1012,1238,l),
(1012,1400,l),
(264,1400,l),
(182,692,l),
(354,632,l),
(408,692,o),
(504,746,o),
(636,746,cs),
(808,746,o),
(922,626,o),
(922,450,cs),
(922,274,o),
(780,136,o),
(580,136,cs),
(408,136,o),
(316,196,o),
(238,264,c),
(134,130,l),
(202,58,o),
(356,-24,o),
(582,-24,cs)
);
}
);
width = 1242;
},
{
layerId = "77C27521-0479-4645-83A2-7244263DD4C5";
shapes = (
{
closed = 1;
nodes = (
(946,-24,o),
(1156,190,o),
(1156,496,cs),
(1156,752,o),
(996,910,o),
(764,910,cs),
(642,910,o),
(550,868,o),
(490,820,c),
(624,1240,l),
(1186,1240,l),
(1214,1400,l),
(510,1400,l),
(294,680,l),
(432,622,l),
(492,692,o),
(592,754,o),
(722,754,cs),
(906,754,o),
(982,628,o),
(982,478,cs),
(982,266,o),
(826,134,o),
(618,134,cs),
(442,134,o),
(348,220,o),
(286,302,c),
(154,208,l),
(210,100,o),
(372,-24,o),
(598,-24,cs)
);
}
);
width = 1188;
}
);
unicode = 53;
},
{
glyphname = six;
kernLeft = six;
kernRight = six;
lastChange = "2021-03-19 19:45:15 +0000";
layers = (
{
layerId = "3BB16070-9AE0-46D6-9B05-19A363C2D547";
shapes = (
{
closed = 1;
nodes = (
(830,-24,o),
(1000,164,o),
(1000,420,cs),
(1000,666,o),
(836,850,o),
(574,850,cs),
(440,850,o),
(304,780,o),
(236,670,c),
(306,1020,o),
(510,1250,o),
(802,1350,c),
(802,1424,l),
(362,1272,o),
(146,900,o),
(146,454,cs),
(146,226,o),
(264,-24,o),
(574,-24,cs)
);
},
{
closed = 1;
nodes = (
(366,48,o),
(226,208,o),
(226,420,cs),
(226,624,o),
(370,778,o),
(574,778,cs),
(790,778,o),
(924,624,o),
(924,410,cs),
(924,204,o),
(784,48,o),
(574,48,cs)
);
}
);
width = 1164;
},
{
layerId = "1D708A55-1947-4475-A0A3-21124B6DD42B";
shapes = (
{
closed = 1;
nodes = (
(948,-24,o),
(1162,162,o),
(1162,434,cs),
(1162,706,o),
(960,894,o),
(686,894,cs),
(608,894,o),
(546,874,o),
(498,846,c),
(584,1022,o),
(798,1098,o),
(982,1126,c),
(982,1424,l),
(366,1330,o),
(122,956,o),
(122,514,cs),
(122,208,o),
(308,-24,o),
(650,-24,cs)
);
},
{
closed = 1;
nodes = (
(532,274,o),
(446,332,o),
(446,434,cs),
(446,528,o),
(532,596,o),
(650,596,cs),
(764,596,o),
(850,532,o),
(850,434,cs),
(850,332,o),
(764,274,o),
(650,274,cs)
);
}
);
width = 1252;
},
{
layerId = "42555ED7-786B-4551-A9FC-B380F510FD49";
shapes = (
{
closed = 1;
nodes = (
(804,-24,o),
(1018,206,o),
(1018,484,cs),
(1018,694,o),
(896,850,o),
(672,850,cs),
(534,850,o),
(394,786,o),
(296,654,c),
(402,958,o),
(678,1242,o),
(990,1350,c),
(1010,1424,l),
(534,1262,o),
(170,834,o),
(170,360,cs),
(170,168,o),
(268,-24,o),
(520,-24,cs)
);
},
{
closed = 1;
nodes = (
(348,48,o),
(244,168,o),
(244,348,cs),
(244,580,o),
(434,778,o),
(662,778,cs),
(840,778,o),
(940,658,o),
(940,484,cs),
(940,244,o),
(756,48,o),
(524,48,cs)
);
}
);
width = 1124;
},
{
layerId = "DEEEE81F-2F80-4306-8755-EEA92C96C68A";
shapes = (
{
closed = 1;
nodes = (
(908,-24,o),
(1170,166,o),
(1170,518,cs),
(1170,738,o),
(1028,894,o),
(802,894,cs),
(716,894,o),
(642,868,o),
(592,838,c),
(712,1044,o),
(926,1118,o),
(1106,1134,c),
(1158,1424,l),
(434,1390,o),
(164,840,o),
(164,460,cs),
(164,176,o),
(322,-24,o),
(628,-24,cs)
);
},
{
closed = 1;
nodes = (
(544,258,o),
(480,322,o),
(480,416,cs),
(480,538,o),
(592,608,o),
(710,608,cs),
(818,608,o),
(874,530,o),
(874,450,cs),
(874,324,o),
(758,258,o),
(644,258,cs)
);
}
);
width = 1140;
},
{
layerId = "07B4BFD6-AD6C-43B6-9499-C92B9E22D320";
shapes = (
{
closed = 1;
nodes = (
(870,-24,o),
(1070,168,o),
(1070,434,cs),
(1070,676,o),
(888,874,o),
(646,874,cs),
(508,874,o),
(400,828,o),
(340,760,c),
(398,1016,o),
(622,1212,o),
(870,1270,c),
(870,1424,l),
(404,1328,o),
(130,950,o),
(130,518,cs),
(130,212,o),
(288,-24,o),
(604,-24,cs)
);
},
{
closed = 1;
nodes = (
(434,140,o),
(306,254,o),
(306,424,cs),
(306,598,o),
(430,712,o),
(602,712,cs),
(778,712,o),
(896,598,o),
(896,424,cs),
(896,254,o),
(776,140,o),
(602,140,cs)
);
}
);
width = 1194;
},
{
layerId = "77C27521-0479-4645-83A2-7244263DD4C5";
shapes = (
{
closed = 1;
nodes = (
(878,-24,o),
(1100,186,o),
(1100,498,cs),
(1100,714,o),
(950,874,o),
(730,874,cs),
(604,874,o),
(496,824,o),
(430,760,c),
(538,1004,o),
(774,1200,o),
(1052,1272,c),
(1078,1428,l),
(556,1330,o),
(174,852,o),
(174,404,cs),
(174,170,o),
(314,-24,o),
(588,-24,cs)
);
},
{
closed = 1;
nodes = (
(438,134,o),
(350,236,o),
(350,378,cs),
(350,578,o),
(498,716,o),
(686,716,cs),
(834,716,o),
(932,618,o),
(932,470,cs),
(932,272,o),
(788,134,o),
(596,134,cs)
);
}
);
width = 1132;
}
);
unicode = 54;
},
{
glyphname = seven;
kernLeft = T;
kernRight = T;
lastChange = "2021-03-19 19:52:48 +0000";
layers = (
{
layerId = "3BB16070-9AE0-46D6-9B05-19A363C2D547";
shapes = (
{
closed = 1;
nodes = (
(432,0,l),
(432,356,o),
(488,878,o),
(892,1338,c),
(892,1400,l),
(98,1400,l),
(98,1328,l),
(816,1328,l),
(454,892,o),
(354,452,o),
(354,0,c)
);
}
);
width = 990;
},
{
layerId = "1D708A55-1947-4475-A0A3-21124B6DD42B";
shapes = (
{
closed = 1;
nodes = (
(626,0,l),
(626,288,o),
(742,846,o),
(1020,1154,c),
(1020,1400,l),
(42,1400,l),
(42,1098,l),
(646,1098,l),
(424,790,o),
(314,448,o),
(314,0,c)
);
}
);
width = 1092;
},
{
layerId = "42555ED7-786B-4551-A9FC-B380F510FD49";
shapes = (
{
closed = 1;
nodes = (
(382,0,l),
(446,356,o),
(590,878,o),
(1066,1338,c),
(1076,1400,l),
(298,1400,l),
(284,1328,l),
(986,1328,l),
(556,892,o),
(390,452,o),
(304,0,c)
);
}
);
width = 950;
},
{
layerId = "DEEEE81F-2F80-4306-8755-EEA92C96C68A";
shapes = (
{
closed = 1;
nodes = (
(606,0,l),
(660,314,o),
(852,818,o),
(1162,1126,c),
(1210,1400,l),
(254,1400,l),
(204,1106,l),
(798,1106,l),
(564,820,o),
(372,462,o),
(286,0,c)
);
}
);
width = 1006;
},
{
layerId = "07B4BFD6-AD6C-43B6-9499-C92B9E22D320";
shapes = (
{
closed = 1;
nodes = (
(528,0,l),
(530,328,o),
(608,836,o),
(960,1242,c),
(960,1400,l),
(70,1400,l),
(70,1238,l),
(766,1238,l),
(464,836,o),
(354,458,o),
(350,0,c)
);
}
);
width = 1044;
},
{
layerId = "77C27521-0479-4645-83A2-7244263DD4C5";
shapes = (
{
closed = 1;
nodes = (
(488,0,l),
(542,338,o),
(700,854,o),
(1124,1272,c),
(1146,1400,l),
(312,1400,l),
(286,1246,l),
(916,1246,l),
(550,844,o),
(390,438,o),
(312,0,c)
);
}
);
width = 972;
}
);
unicode = 55;
},
{
glyphname = eight;
kernLeft = eight;
kernRight = B;
lastChange = "2021-02-02 23:14:34 +0000";
layers = (
{
layerId = "3BB16070-9AE0-46D6-9B05-19A363C2D547";
shapes = (
{
closed = 1;
nodes = (
(840,-24,o),
(1020,152,o),
(1020,382,cs),
(1020,570,o),
(908,722,o),
(726,772,c),
(884,820,o),
(956,944,o),
(956,1076,cs),
(956,1268,o),
(802,1424,o),
(594,1424,cs),
(386,1424,o),
(232,1268,o),
(232,1076,cs),
(232,944,o),
(312,816,o),
(458,772,c),
(282,726,o),
(168,570,o),
(168,382,cs),
(168,152,o),
(348,-24,o),
(594,-24,cs)
);
},
{
closed = 1;
nodes = (
(398,48,o),
(248,176,o),
(248,382,cs),
(248,576,o),
(386,738,o),
(594,738,cs),
(802,738,o),
(940,576,o),
(940,382,cs),
(940,176,o),
(790,48,o),
(594,48,cs)
);
},
{
closed = 1;
nodes = (
(420,802,o),
(308,914,o),
(308,1076,cs),
(308,1248,o),
(432,1352,o),
(594,1352,cs),
(756,1352,o),
(880,1248,o),
(880,1076,cs),
(880,914,o),
(768,802,o),
(594,802,cs)
);
}
);
width = 1188;
},
{
layerId = "1D708A55-1947-4475-A0A3-21124B6DD42B";
shapes = (
{
closed = 1;
nodes = (
(968,-24,o),
(1162,154,o),
(1162,432,cs),
(1162,582,o),
(1066,708,o),
(928,770,c),
(1002,806,o),
(1108,904,o),
(1108,1052,cs),
(1108,1276,o),
(938,1424,o),
(640,1424,cs),
(342,1424,o),
(174,1276,o),
(174,1052,cs),
(174,898,o),
(276,804,o),
(352,766,c),
(206,702,o),
(122,586,o),
(122,432,cs),
(122,154,o),
(316,-24,o),
(640,-24,cs)
);
},
{
closed = 1;
nodes = (
(514,254,o),
(432,330,o),
(432,434,cs),
(432,546,o),
(514,612,o),
(640,612,cs),
(762,612,o),
(850,546,o),
(850,434,cs),
(850,330,o),
(762,254,o),
(640,254,cs)
);
},
{
closed = 1;
nodes = (
(538,896,o),
(484,950,o),
(484,1028,cs),
(484,1098,o),
(538,1154,o),
(640,1154,cs),
(734,1154,o),
(798,1098,o),
(798,1028,cs),
(798,950,o),
(734,896,o),
(640,896,cs)
);
}
);
width = 1282;
},
{
layerId = "42555ED7-786B-4551-A9FC-B380F510FD49";
shapes = (
{
closed = 1;
nodes = (
(828,-24,o),
(1036,178,o),
(1036,448,cs),
(1036,602,o),
(952,726,o),
(804,768,c),
(998,818,o),
(1096,972,o),
(1096,1124,cs),
(1096,1294,o),
(986,1424,o),
(794,1424,cs),
(550,1424,o),
(376,1240,o),
(376,1028,cs),
(376,924,o),
(436,812,o),
(554,776,c),
(344,722,o),
(190,536,o),
(190,322,cs),
(190,124,o),
(328,-24,o),
(558,-24,cs)
);
},
{
closed = 1;
nodes = (
(388,48,o),
(270,154,o),
(270,324,cs),
(270,544,o),
(446,738,o),
(674,738,cs),
(852,738,o),
(958,604,o),
(958,440,cs),
(958,200,o),
(772,48,o),
(558,48,cs)
);
},
{
closed = 1;
nodes = (
(540,802,o),
(452,894,o),
(452,1028,cs),
(452,1228,o),
(606,1352,o),
(784,1352,cs),
(924,1352,o),
(1022,1266,o),
(1022,1124,cs),
(1022,936,o),
(882,802,o),
(690,802,cs)
);
}
);
width = 1148;
},
{
layerId = "DEEEE81F-2F80-4306-8755-EEA92C96C68A";
shapes = (
{
closed = 1;
nodes = (
(1012,-24,o),
(1188,216,o),
(1188,440,cs),
(1188,616,o),
(1066,724,o),
(968,752,c),
(1098,778,o),
(1248,888,o),
(1248,1076,cs),
(1248,1264,o),
(1110,1424,o),
(812,1424,cs),
(530,1424,o),
(320,1264,o),
(320,1046,cs),
(320,896,o),
(400,812,o),
(510,772,c),
(326,738,o),
(156,624,o),
(156,382,cs),
(156,158,o),
(330,-24,o),
(646,-24,cs)
);
},
{
closed = 1;
nodes = (
(536,250,o),
(468,326,o),
(468,414,cs),
(468,514,o),
(544,612,o),
(684,612,cs),
(814,612,o),
(876,524,o),
(876,440,cs),
(876,334,o),
(792,250,o),
(660,250,cs)
);
},
{
closed = 1;
nodes = (
(674,890,o),
(626,958,o),
(626,1018,cs),
(626,1108,o),
(714,1158,o),
(792,1158,cs),
(902,1158,o),
(942,1084,o),
(942,1034,cs),
(942,944,o),
(866,890,o),
(774,890,cs)
);
}
);
width = 1172;
},
{
layerId = "07B4BFD6-AD6C-43B6-9499-C92B9E22D320";
shapes = (
{
closed = 1;
nodes = (
(888,-24,o),
(1082,158,o),
(1082,402,cs),
(1082,576,o),
(984,708,o),
(840,770,c),
(958,828,o),
(1020,934,o),
(1020,1060,cs),
(1020,1262,o),
(852,1424,o),
(610,1424,cs),
(370,1424,o),
(202,1262,o),
(202,1060,cs),
(202,934,o),
(266,828,o),
(380,770,c),
(240,710,o),
(140,576,o),
(140,402,cs),
(140,158,o),
(334,-24,o),
(610,-24,cs)
);
},
{
closed = 1;
nodes = (
(442,140,o),
(320,246,o),
(320,416,cs),
(320,566,o),
(438,694,o),
(610,694,cs),
(782,694,o),
(902,566,o),
(902,416,cs),
(902,246,o),
(778,140,o),
(610,140,cs)
);
},
{
closed = 1;
nodes = (
(470,840,o),
(378,930,o),
(378,1046,cs),
(378,1178,o),
(476,1262,o),
(610,1262,cs),
(746,1262,o),
(844,1178,o),
(844,1046,cs),
(844,930,o),
(750,840,o),
(610,840,cs)
);
}
);
width = 1222;
},
{
layerId = "77C27521-0479-4645-83A2-7244263DD4C5";
shapes = (
{
closed = 1;
nodes = (
(918,-24,o),
(1118,186,o),
(1118,456,cs),
(1118,594,o),
(1042,714,o),
(922,762,c),
(1066,810,o),
(1166,932,o),
(1166,1092,cs),
(1166,1280,o),
(1024,1424,o),
(802,1424,cs),
(532,1424,o),
(370,1240,o),
(370,1034,cs),
(370,898,o),
(462,818,o),
(520,790,c),
(308,736,o),
(190,566,o),
(190,362,cs),
(190,144,o),
(344,-24,o),
(612,-24,cs)
);
},
{
closed = 1;
nodes = (
(462,132,o),
(364,228,o),
(364,374,cs),
(364,562,o),
(502,694,o),
(686,694,cs),
(856,694,o),
(942,582,o),
(942,452,cs),
(942,250,o),
(798,132,o),
(624,132,cs)
);
},
{
closed = 1;
nodes = (
(610,838,o),
(540,930,o),
(540,1030,cs),
(540,1172,o),
(652,1270,o),
(792,1270,cs),
(920,1270,o),
(998,1190,o),
(998,1078,cs),
(998,932,o),
(884,838,o),
(744,838,cs)
);
}
);
width = 1156;
}
);
unicode = 56;
},
{
glyphname = nine;
kernLeft = nine;
kernRight = zero;
lastChange = "2021-02-02 23:17:47 +0000";
layers = (
{
layerId = "3BB16070-9AE0-46D6-9B05-19A363C2D547";
shapes = (
{
closed = 1;
nodes = (
(742,94,o),
(1000,490,o),
(1000,960,cs),
(1000,1194,o),
(854,1424,o),
(574,1424,cs),
(324,1424,o),
(144,1238,o),
(144,994,cs),
(144,760,o),
(312,576,o),
(546,576,cs),
(722,576,o),
(834,652,o),
(898,748,c),
(858,440,o),
(662,146,o),
(368,48,c),
(368,-24,l)
);
},
{
closed = 1;
nodes = (
(354,648,o),
(220,800,o),
(220,1004,cs),
(220,1198,o),
(362,1352,o),
(570,1352,cs),
(766,1352,o),
(918,1198,o),
(918,994,cs),
(918,800,o),
(772,648,o),
(556,648,cs)
);
}
);
width = 1164;
},
{
layerId = "1D708A55-1947-4475-A0A3-21124B6DD42B";
shapes = (
{
closed = 1;
nodes = (
(880,-14,o),
(1146,330,o),
(1146,882,cs),
(1146,1198,o),
(980,1424,o),
(612,1424,cs),
(306,1424,o),
(92,1252,o),
(92,974,cs),
(92,680,o),
(296,520,o),
(580,520,cs),
(662,520,o),
(732,540,o),
(788,576,c),
(704,332,o),
(496,266,o),
(308,266,c),
(308,-24,l)
);
},
{
closed = 1;
nodes = (
(478,810,o),
(398,866,o),
(398,978,cs),
(398,1074,o),
(474,1142,o),
(612,1142,cs),
(724,1142,o),
(802,1074,o),
(802,976,cs),
(802,862,o),
(724,810,o),
(610,810,cs)
);
}
);
width = 1252;
},
{
layerId = "42555ED7-786B-4551-A9FC-B380F510FD49";
shapes = (
{
closed = 1;
nodes = (
(766,110,o),
(1116,598,o),
(1116,1052,cs),
(1116,1250,o),
(992,1424,o),
(758,1424,cs),
(478,1424,o),
(270,1214,o),
(270,942,cs),
(270,744,o),
(384,576,o),
(616,576,cs),
(770,576,o),
(900,656,o),
(992,768,c),
(898,454,o),
(644,144,o),
(334,48,c),
(322,-24,l)
);
},
{
closed = 1;
nodes = (
(450,648,o),
(350,772,o),
(350,942,cs),
(350,1174,o),
(528,1352,o),
(758,1352,cs),
(930,1352,o),
(1038,1222,o),
(1038,1052,cs),
(1038,828,o),
(856,648,o),
(620,648,cs)
);
}
);
width = 1124;
},
{
layerId = "DEEEE81F-2F80-4306-8755-EEA92C96C68A";
shapes = (
{
closed = 1;
nodes = (
(1056,-24,o),
(1234,562,o),
(1234,932,cs),
(1234,1248,o),
(1052,1424,o),
(754,1424,cs),
(474,1424,o),
(212,1248,o),
(212,932,cs),
(212,686,o),
(374,528,o),
(618,528,cs),
(718,528,o),
(790,558,o),
(844,594,c),
(702,294,o),
(510,270,o),
(324,270,c),
(272,-24,l)
);
},
{
closed = 1;
nodes = (
(602,808,o),
(520,850,o),
(520,954,cs),
(520,1058,o),
(618,1142,o),
(742,1142,cs),
(866,1142,o),
(916,1072,o),
(916,996,cs),
(916,908,o),
(842,808,o),
(682,808,cs)
);
}
);
width = 1140;
},
{
layerId = "07B4BFD6-AD6C-43B6-9499-C92B9E22D320";
shapes = (
{
closed = 1;
nodes = (
(798,40,o),
(1056,422,o),
(1056,882,cs),
(1056,1190,o),
(908,1424,o),
(590,1424,cs),
(316,1424,o),
(114,1232,o),
(114,968,cs),
(114,716,o),
(300,528,o),
(544,528,cs),
(686,528,o),
(794,580,o),
(850,648,c),
(802,360,o),
(590,182,o),
(348,138,c),
(348,-24,l)
);
},
{
closed = 1;
nodes = (
(404,690,o),
(292,804,o),
(292,976,cs),
(292,1138,o),
(410,1256,o),
(584,1256,cs),
(752,1256,o),
(876,1138,o),
(876,976,cs),
(876,806,o),
(756,690,o),
(584,690,cs)
);
}
);
width = 1194;
},
{
layerId = "77C27521-0479-4645-83A2-7244263DD4C5";
shapes = (
{
closed = 1;
nodes = (
(854,66,o),
(1188,546,o),
(1188,990,cs),
(1188,1242,o),
(1054,1424,o),
(792,1424,cs),
(498,1424,o),
(260,1208,o),
(260,902,cs),
(260,672,o),
(424,530,o),
(628,530,cs),
(760,530,o),
(876,578,o),
(942,652,c),
(856,402,o),
(608,194,o),
(344,134,c),
(318,-24,l)
);
},
{
closed = 1;
nodes = (
(522,680,o),
(432,782,o),
(432,922,cs),
(432,1114,o),
(586,1266,o),
(776,1266,cs),
(932,1266,o),
(1014,1162,o),
(1014,1022,cs),
(1014,830,o),
(868,680,o),
(668,680,cs)
);
}
);
width = 1132;
}
);
unicode = 57;
},
{
glyphname = colon;
kernLeft = colon;
kernRight = colon;
lastChange = "2020-09-15 16:22:47 +0000";
layers = (
{
layerId = "3BB16070-9AE0-46D6-9B05-19A363C2D547";
shapes = (
{
closed = 1;
nodes = (
(236,846,o),
(260,872,o),
(260,904,cs),
(260,938,o),
(236,966,o),
(202,966,cs),
(170,966,o),
(144,938,o),
(144,904,cs),
(144,872,o),
(170,846,o),
(202,846,cs)
);
},
{
closed = 1;
nodes = (
(236,-28,o),
(260,-2,o),
(260,30,cs),
(260,64,o),
(236,92,o),
(202,92,cs),
(170,92,o),
(144,64,o),
(144,30,cs),
(144,-2,o),
(170,-28,o),
(202,-28,cs)
);
}
);
width = 404;
},
{
layerId = "1D708A55-1947-4475-A0A3-21124B6DD42B";
shapes = (
{
closed = 1;
nodes = (
(358,618,o),
(438,692,o),
(438,796,cs),
(438,896,o),
(358,976,o),
(254,976,cs),
(150,976,o),
(72,896,o),
(72,796,cs),
(72,692,o),
(150,618,o),
(254,618,cs)
);
},
{
closed = 1;
nodes = (
(358,-24,o),
(438,50,o),
(438,154,cs),
(438,254,o),
(358,334,o),
(254,334,cs),
(150,334,o),
(72,254,o),
(72,154,cs),
(72,50,o),
(150,-24,o),
(254,-24,cs)
);
}
);
width = 510;
},
{
layerId = "42555ED7-786B-4551-A9FC-B380F510FD49";
shapes = (
{
closed = 1;
nodes = (
(348,846,o),
(380,876,o),
(382,912,cs),
(382,942,o),
(364,966,o),
(334,966,cs),
(298,966,o),
(264,934,o),
(262,898,cs),
(262,868,o),
(282,846,o),
(310,846,cs)
);
},
{
closed = 1;
nodes = (
(194,-28,o),
(226,2,o),
(228,38,cs),
(228,68,o),
(210,92,o),
(180,92,cs),
(144,92,o),
(110,60,o),
(108,24,cs),
(108,-6,o),
(128,-28,o),
(156,-28,cs)
);
}
);
width = 364;
},
{
layerId = "DEEEE81F-2F80-4306-8755-EEA92C96C68A";
shapes = (
{
closed = 1;
nodes = (
(364,-24,o),
(444,60,o),
(444,182,cs),
(444,262,o),
(386,328,o),
(286,328,cs),
(186,328,o),
(100,246,o),
(100,124,cs),
(100,42,o),
(160,-24,o),
(250,-24,cs)
);
},
{
closed = 1;
nodes = (
(476,624,o),
(556,706,o),
(556,828,cs),
(556,910,o),
(498,974,o),
(398,974,cs),
(298,974,o),
(212,892,o),
(212,770,cs),
(212,690,o),
(272,624,o),
(362,624,cs)
);
}
);
width = 484;
},
{
layerId = "07B4BFD6-AD6C-43B6-9499-C92B9E22D320";
shapes = (
{
closed = 1;
nodes = (
(302,694,o),
(364,758,o),
(364,830,cs),
(364,902,o),
(302,968,o),
(224,968,cs),
(146,968,o),
(86,902,o),
(86,830,cs),
(86,758,o),
(146,694,o),
(224,694,cs)
);
},
{
closed = 1;
nodes = (
(302,-26,o),
(364,38,o),
(364,110,cs),
(364,182,o),
(302,248,o),
(224,248,cs),
(146,248,o),
(86,182,o),
(86,110,cs),
(86,38,o),
(146,-26,o),
(224,-26,cs)
);
}
);
width = 450;
},
{
layerId = "77C27521-0479-4645-83A2-7244263DD4C5";
shapes = (
{
closed = 1;
nodes = (
(434,696,o),
(504,770,o),
(504,852,cs),
(504,914,o),
(460,968,o),
(392,968,cs),
(312,968,o),
(238,894,o),
(238,812,cs),
(238,750,o),
(282,696,o),
(348,696,cs)
);
},
{
closed = 1;
nodes = (
(306,-28,o),
(378,48,o),
(378,130,cs),
(378,190,o),
(334,244,o),
(264,244,cs),
(184,244,o),
(112,170,o),
(112,88,cs),
(112,28,o),
(154,-28,o),
(222,-28,cs)
);
}
);
width = 448;
}
);
unicode = 58;
},
{
glyphname = semicolon;
kernLeft = colon;
kernRight = colon;
lastChange = "2020-09-15 16:22:47 +0000";
layers = (
{
layerId = "3BB16070-9AE0-46D6-9B05-19A363C2D547";
shapes = (
{
closed = 1;
nodes = (
(212,-232,o),
(268,-114,o),
(268,0,cs),
(268,68,o),
(238,92,o),
(202,92,cs),
(170,92,o),
(144,66,o),
(144,30,cs),
(144,-4,o),
(172,-28,o),
(208,-28,c),
(208,-114,o),
(196,-198,o),
(144,-276,c),
(162,-282,l)
);
},
{
closed = 1;
nodes = (
(236,846,o),
(260,872,o),
(260,904,cs),
(260,938,o),
(236,966,o),
(202,966,cs),
(170,966,o),
(144,938,o),
(144,904,cs),
(144,872,o),
(170,846,o),
(202,846,cs)
);
}
);
width = 404;
},
{
layerId = "1D708A55-1947-4475-A0A3-21124B6DD42B";
shapes = (
{
closed = 1;
nodes = (
(320,-198,o),
(450,-44,o),
(450,136,cs),
(450,260,o),
(372,334,o),
(270,334,cs),
(176,334,o),
(88,264,o),
(88,158,cs),
(88,74,o),
(128,24,o),
(186,-10,c),
(158,-78,o),
(90,-144,o),
(50,-176,c),
(184,-282,l)
);
},
{
closed = 1;
nodes = (
(374,618,o),
(452,692,o),
(452,796,cs),
(452,896,o),
(374,976,o),
(270,976,cs),
(166,976,o),
(88,896,o),
(88,796,cs),
(88,692,o),
(166,618,o),
(270,618,cs)
);
}
);
width = 510;
},
{
layerId = "42555ED7-786B-4551-A9FC-B380F510FD49";
shapes = (
{
closed = 1;
nodes = (
(140,-226,o),
(232,-90,o),
(232,22,cs),
(232,72,o),
(206,92,o),
(176,92,cs),
(136,92,o),
(110,62,o),
(110,24,cs),
(110,-8,o),
(134,-28,o),
(164,-28,c),
(164,-98,o),
(106,-220,o),
(56,-276,c),
(74,-282,l)
);
},
{
closed = 1;
nodes = (
(348,846,o),
(380,876,o),
(382,912,cs),
(382,942,o),
(364,966,o),
(334,966,cs),
(298,966,o),
(264,934,o),
(262,898,cs),
(262,868,o),
(282,846,o),
(310,846,cs)
);
}
);
width = 364;
},
{
layerId = "DEEEE81F-2F80-4306-8755-EEA92C96C68A";
shapes = (
{
closed = 1;
nodes = (
(284,-186,o),
(448,-2,o),
(448,172,cs),
(448,270,o),
(382,328,o),
(288,328,cs),
(194,328,o),
(100,248,o),
(100,126,cs),
(100,62,o),
(134,14,o),
(180,-8,c),
(144,-60,o),
(54,-150,o),
(14,-182,c),
(118,-282,l)
);
},
{
closed = 1;
nodes = (
(476,624,o),
(556,706,o),
(556,828,cs),
(556,910,o),
(498,974,o),
(398,974,cs),
(298,974,o),
(212,892,o),
(212,770,cs),
(212,690,o),
(272,624,o),
(362,624,cs)
);
}
);
width = 484;
},
{
layerId = "07B4BFD6-AD6C-43B6-9499-C92B9E22D320";
shapes = (
{
closed = 1;
nodes = (
(284,-214,o),
(372,-86,o),
(372,68,cs),
(372,188,o),
(298,244,o),
(220,244,cs),
(148,244,o),
(86,188,o),
(86,102,cs),
(86,26,o),
(148,-30,o),
(220,-30,c),
(214,-134,o),
(150,-220,o),
(114,-252,c),
(172,-282,l)
);
},
{
closed = 1;
nodes = (
(302,694,o),
(362,758,o),
(362,830,cs),
(362,902,o),
(302,968,o),
(224,968,cs),
(144,968,o),
(86,902,o),
(86,830,cs),
(86,758,o),
(144,694,o),
(224,694,cs)
);
}
);
width = 450;
},
{
layerId = "77C27521-0479-4645-83A2-7244263DD4C5";
shapes = (
{
closed = 1;
nodes = (
(266,-202,o),
(382,-58,o),
(382,104,cs),
(382,194,o),
(328,240,o),
(260,240,cs),
(184,240,o),
(110,176,o),
(110,80,cs),
(110,18,o),
(154,-26,o),
(214,-32,c),
(190,-136,o),
(120,-222,o),
(80,-254,c),
(128,-282,l)
);
},
{
closed = 1;
nodes = (
(434,696,o),
(504,770,o),
(504,852,cs),
(504,914,o),
(460,968,o),
(392,968,cs),
(312,968,o),
(238,894,o),
(238,812,cs),
(238,750,o),
(282,696,o),
(348,696,cs)
);
}
);
width = 448;
}
);
unicode = 59;
},
{
glyphname = less;
lastChange = "2020-09-15 16:22:47 +0000";
layers = (
{
layerId = "3BB16070-9AE0-46D6-9B05-19A363C2D547";
shapes = (
{
closed = 1;
nodes = (
(1126,322,l),
(280,686,l),
(1126,1050,l),
(1126,1132,l),
(186,724,l),
(186,648,l),
(1126,240,l)
);
}
);
width = 1312;
},
{
layerId = "1D708A55-1947-4475-A0A3-21124B6DD42B";
shapes = (
{
closed = 1;
nodes = (
(1100,496,l),
(626,686,l),
(1100,872,l),
(1100,1192,l),
(160,806,l),
(160,566,l),
(1100,182,l)
);
}
);
width = 1260;
},
{
layerId = "42555ED7-786B-4551-A9FC-B380F510FD49";
shapes = (
{
closed = 1;
nodes = (
(1206,322,l),
(360,686,l),
(1206,1050,l),
(1206,1132,l),
(266,724,l),
(266,648,l),
(1206,240,l)
);
}
);
width = 1272;
},
{
layerId = "DEEEE81F-2F80-4306-8755-EEA92C96C68A";
shapes = (
{
closed = 1;
nodes = (
(1178,490,l),
(720,686,l),
(1178,882,l),
(1178,1188,l),
(298,804,l),
(298,572,l),
(1178,186,l)
);
}
);
width = 1210;
},
{
layerId = "07B4BFD6-AD6C-43B6-9499-C92B9E22D320";
shapes = (
{
closed = 1;
nodes = (
(1116,402,l),
(394,686,l),
(1116,972,l),
(1116,1144,l),
(176,762,l),
(176,608,l),
(1116,228,l)
);
}
);
width = 1290;
},
{
layerId = "77C27521-0479-4645-83A2-7244263DD4C5";
shapes = (
{
closed = 1;
nodes = (
(1220,398,l),
(498,686,l),
(1220,974,l),
(1220,1142,l),
(292,760,l),
(292,608,l),
(1220,230,l)
);
}
);
width = 1260;
}
);
unicode = 60;
},
{
glyphname = equal;
lastChange = "2020-09-15 16:22:47 +0000";
layers = (
{
layerId = "3BB16070-9AE0-46D6-9B05-19A363C2D547";
shapes = (
{
closed = 1;
nodes = (
(1126,838,l),
(1126,910,l),
(186,910,l),
(186,838,l)
);
},
{
closed = 1;
nodes = (
(1126,458,l),
(1126,530,l),
(186,530,l),
(186,458,l)
);
}
);
width = 1312;
},
{
layerId = "1D708A55-1947-4475-A0A3-21124B6DD42B";
shapes = (
{
closed = 1;
nodes = (
(1100,784,l),
(1100,1074,l),
(160,1074,l),
(160,784,l)
);
},
{
closed = 1;
nodes = (
(1100,298,l),
(1100,588,l),
(160,588,l),
(160,298,l)
);
}
);
width = 1260;
},
{
layerId = "42555ED7-786B-4551-A9FC-B380F510FD49";
shapes = (
{
closed = 1;
nodes = (
(1206,838,l),
(1206,910,l),
(266,910,l),
(266,838,l)
);
},
{
closed = 1;
nodes = (
(1206,458,l),
(1206,530,l),
(266,530,l),
(266,458,l)
);
}
);
width = 1272;
},
{
layerId = "DEEEE81F-2F80-4306-8755-EEA92C96C68A";
shapes = (
{
closed = 1;
nodes = (
(1160,784,l),
(1160,1066,l),
(280,1066,l),
(280,784,l)
);
},
{
closed = 1;
nodes = (
(1160,308,l),
(1160,590,l),
(280,590,l),
(280,308,l)
);
}
);
width = 1210;
},
{
layerId = "07B4BFD6-AD6C-43B6-9499-C92B9E22D320";
shapes = (
{
closed = 1;
nodes = (
(1116,778,l),
(1116,946,l),
(176,946,l),
(176,778,l)
);
},
{
closed = 1;
nodes = (
(1116,426,l),
(1116,592,l),
(176,592,l),
(176,426,l)
);
}
);
width = 1290;
},
{
layerId = "77C27521-0479-4645-83A2-7244263DD4C5";
shapes = (
{
closed = 1;
nodes = (
(1210,778,l),
(1210,942,l),
(282,942,l),
(282,778,l)
);
},
{
closed = 1;
nodes = (
(1210,428,l),
(1210,592,l),
(282,592,l),
(282,428,l)
);
}
);
width = 1260;
}
);
unicode = 61;
},
{
glyphname = greater;
lastChange = "2020-09-15 16:22:47 +0000";
layers = (
{
layerId = "3BB16070-9AE0-46D6-9B05-19A363C2D547";
shapes = (
{
closed = 1;
nodes = (
(1126,648,l),
(1126,724,l),
(186,1132,l),
(186,1050,l),
(1032,686,l),
(186,322,l),
(186,240,l)
);
}
);
width = 1312;
},
{
layerId = "1D708A55-1947-4475-A0A3-21124B6DD42B";
shapes = (
{
closed = 1;
nodes = (
(1100,566,l),
(1100,806,l),
(160,1192,l),
(160,876,l),
(634,686,l),
(160,500,l),
(160,182,l)
);
}
);
width = 1260;
},
{
layerId = "42555ED7-786B-4551-A9FC-B380F510FD49";
shapes = (
{
closed = 1;
nodes = (
(1206,648,l),
(1206,724,l),
(266,1132,l),
(266,1050,l),
(1112,686,l),
(266,322,l),
(266,240,l)
);
}
);
width = 1272;
},
{
layerId = "DEEEE81F-2F80-4306-8755-EEA92C96C68A";
shapes = (
{
closed = 1;
nodes = (
(1162,572,l),
(1162,804,l),
(282,1188,l),
(282,884,l),
(740,686,l),
(282,492,l),
(282,186,l)
);
}
);
width = 1210;
},
{
layerId = "07B4BFD6-AD6C-43B6-9499-C92B9E22D320";
shapes = (
{
closed = 1;
nodes = (
(1116,608,l),
(1116,762,l),
(176,1144,l),
(176,972,l),
(896,686,l),
(176,400,l),
(176,228,l)
);
}
);
width = 1290;
},
{
layerId = "77C27521-0479-4645-83A2-7244263DD4C5";
shapes = (
{
closed = 1;
nodes = (
(1204,608,l),
(1204,760,l),
(276,1142,l),
(276,974,l),
(998,686,l),
(276,396,l),
(276,230,l)
);
}
);
width = 1260;
}
);
unicode = 62;
},
{
glyphname = question;
kernLeft = question;
kernRight = question;
lastChange = "2021-02-02 22:36:47 +0000";
layers = (
{
layerId = "3BB16070-9AE0-46D6-9B05-19A363C2D547";
shapes = (
{
closed = 1;
nodes = (
(538,312,l),
(538,380,ls),
(538,546,o),
(634,636,o),
(730,726,cs),
(823,813,o),
(914,902,o),
(914,1064,cs),
(914,1262,o),
(776,1424,o),
(526,1424,cs),
(276,1424,o),
(124,1256,o),
(124,1050,c),
(196,1050,l),
(196,1218,o),
(316,1352,o),
(526,1352,cs),
(728,1352,o),
(838,1224,o),
(838,1064,cs),
(838,926,o),
(757,845,o),
(668,762,cs),
(568,668,o),
(462,568,o),
(462,380,cs),
(462,312,l)
);
},
{
closed = 1;
nodes = (
(534,-28,o),
(558,-2,o),
(558,30,cs),
(558,64,o),
(534,92,o),
(500,92,cs),
(468,92,o),
(442,64,o),
(442,30,cs),
(442,-2,o),
(468,-28,o),
(500,-28,cs)
);
}
);
width = 1044;
},
{
layerId = "1D708A55-1947-4475-A0A3-21124B6DD42B";
shapes = (
{
closed = 1;
nodes = (
(642,376,l),
(642,470,ls),
(642,572,o),
(706,626,o),
(774,684,cs),
(856,754,o),
(946,832,o),
(946,1010,cs),
(946,1246,o),
(792,1424,o),
(508,1424,cs),
(232,1424,o),
(40,1252,o),
(40,924,c),
(340,924,l),
(340,1058,o),
(394,1134,o),
(508,1134,cs),
(598,1134,o),
(648,1082,o),
(648,1010,cs),
(648,940,o),
(598,896,o),
(538,848,cs),
(450,777,o),
(344,688,o),
(344,472,cs),
(344,376,l)
);
},
{
closed = 1;
nodes = (
(602,-24,o),
(682,50,o),
(682,154,cs),
(682,254,o),
(602,334,o),
(498,334,cs),
(394,334,o),
(316,254,o),
(316,154,cs),
(316,50,o),
(394,-24,o),
(498,-24,cs)
);
}
);
width = 1016;
},
{
layerId = "42555ED7-786B-4551-A9FC-B380F510FD49";
shapes = (
{
closed = 1;
nodes = (
(548,312,l),
(560,380,ls),
(588,540,o),
(706,636,o),
(818,728,cs),
(942,830,o),
(1062,930,o),
(1062,1114,cs),
(1062,1292,o),
(944,1424,o),
(726,1424,cs),
(536,1424,o),
(316,1322,o),
(266,1050,c),
(338,1050,l),
(384,1268,o),
(546,1352,o),
(718,1352,cs),
(896,1352,o),
(984,1248,o),
(984,1112,cs),
(984,946,o),
(876,858,o),
(760,764,cs),
(644,670,o),
(518,568,o),
(484,380,cs),
(472,312,l)
);
},
{
closed = 1;
nodes = (
(486,-28,o),
(520,0,o),
(520,40,cs),
(520,68,o),
(502,92,o),
(468,92,cs),
(434,92,o),
(400,60,o),
(400,22,cs),
(400,-6,o),
(418,-28,o),
(452,-28,cs)
);
}
);
width = 1004;
},
{
background = {
shapes = (
{
closed = 1;
nodes = (
(678,378,l),
(692,460,ls),
(713,581,o),
(800,650,o),
(888,720,cs),
(990,802,o),
(1094,888,o),
(1094,1062,cs),
(1094,1264,o),
(960,1424,o),
(740,1424,cs),
(474,1424,o),
(258,1252,o),
(204,930,c),
(482,930,l),
(506,1066,o),
(586,1144,o),
(692,1144,cs),
(776,1144,o),
(810,1088,o),
(810,1026,cs),
(810,956,o),
(754,913,o),
(684,862,cs),
(585,790,o),
(458,691,o),
(416,464,cs),
(400,378,l)
);
},
{
closed = 1;
nodes = (
(598,-24,o),
(678,60,o),
(678,182,cs),
(678,262,o),
(620,328,o),
(520,328,cs),
(420,328,o),
(334,246,o),
(334,124,cs),
(334,42,o),
(394,-24,o),
(484,-24,cs)
);
}
);
};
layerId = "DEEEE81F-2F80-4306-8755-EEA92C96C68A";
shapes = (
{
closed = 1;
nodes = (
(678,378,l),
(692,460,ls),
(713,580,o),
(800,649,o),
(888,719,cs),
(990,800,o),
(1105,893,o),
(1105,1082,cs),
(1105,1284,o),
(965,1424,o),
(730,1424,cs),
(472,1424,o),
(258,1252,o),
(204,930,c),
(482,930,l),
(506,1066,o),
(586,1144,o),
(686,1144,cs),
(760,1144,o),
(800,1098,o),
(800,1034,cs),
(800,964,o),
(754,913,o),
(684,862,cs),
(585,790,o),
(458,691,o),
(416,464,cs),
(400,378,l)
);
},
{
closed = 1;
nodes = (
(598,-24,o),
(678,60,o),
(678,182,cs),
(678,262,o),
(620,328,o),
(520,328,cs),
(420,328,o),
(334,246,o),
(334,124,cs),
(334,42,o),
(394,-24,o),
(484,-24,cs)
);
}
);
width = 986;
},
{
layerId = "07B4BFD6-AD6C-43B6-9499-C92B9E22D320";
shapes = (
{
closed = 1;
nodes = (
(582,360,l),
(582,402,ls),
(582,552,o),
(666,628,o),
(754,704,cs),
(846,784,o),
(942,868,o),
(942,1042,cs),
(942,1256,o),
(792,1424,o),
(518,1424,cs),
(244,1424,o),
(64,1248,o),
(64,990,c),
(234,990,l),
(234,1154,o),
(338,1262,o),
(518,1262,cs),
(678,1262,o),
(766,1166,o),
(766,1044,cs),
(766,922,o),
(692,858,o),
(610,788,cs),
(512,704,o),
(406,612,o),
(406,404,cs),
(406,360,l)
);
},
{
closed = 1;
nodes = (
(568,-26,o),
(630,38,o),
(630,110,cs),
(630,182,o),
(568,248,o),
(490,248,cs),
(412,248,o),
(352,182,o),
(352,110,cs),
(352,38,o),
(412,-26,o),
(490,-26,cs)
);
}
);
width = 1028;
},
{
layerId = "77C27521-0479-4645-83A2-7244263DD4C5";
shapes = (
{
closed = 1;
nodes = (
(634,380,l),
(640,412,ls),
(668,560,o),
(764,634,o),
(868,712,cs),
(994,806,o),
(1106,894,o),
(1106,1106,cs),
(1106,1280,o),
(986,1424,o),
(758,1424,cs),
(500,1424,o),
(284,1246,o),
(234,966,c),
(398,966,l),
(432,1156,o),
(556,1264,o),
(730,1264,cs),
(868,1264,o),
(936,1180,o),
(936,1082,cs),
(936,942,o),
(846,874,o),
(744,796,cs),
(635,713,o),
(512,614,o),
(474,412,cs),
(468,380,l)
);
},
{
closed = 1;
nodes = (
(562,-28,o),
(634,48,o),
(634,130,cs),
(634,190,o),
(590,244,o),
(522,244,cs),
(440,244,o),
(368,170,o),
(368,88,cs),
(368,28,o),
(412,-28,o),
(480,-28,cs)
);
}
);
width = 1006;
}
);
unicode = 63;
},
{
glyphname = at;
kernLeft = at;
kernRight = at;
lastChange = "2021-07-22 19:07:30 +0000";
layers = (
{
layerId = "3BB16070-9AE0-46D6-9B05-19A363C2D547";
shapes = (
{
closed = 1;
nodes = (
(882,-24,o),
(964,-16,o),
(1034,2,c),
(1050,74,l),
(976,56,o),
(882,48,o),
(802,48,cs),
(422,48,o),
(200,320,o),
(200,666,cs),
(200,1064,o),
(486,1352,o),
(832,1352,cs),
(1160,1352,o),
(1390,1142,o),
(1390,838,cs),
(1390,572,o),
(1290,382,o),
(1162,382,cs),
(1104,382,o),
(1068,424,o),
(1068,502,cs),
(1068,532,o),
(1073,580,o),
(1080,622,cs),
(1150,1032,l),
(1080,1032,l),
(1050,860,l),
(1026,960,o),
(946,1058,o),
(804,1058,cs),
(586,1058,o),
(452,844,o),
(452,640,cs),
(452,424,o),
(566,302,o),
(738,302,cs),
(816,302,o),
(930,332,o),
(1002,468,c),
(1012,370,o),
(1076,320,o),
(1162,320,cs),
(1330,320,o),
(1466,536,o),
(1466,838,cs),
(1466,1188,o),
(1206,1424,o),
(832,1424,cs),
(454,1424,o),
(124,1112,o),
(124,668,cs),
(124,228,o),
(424,-24,o),
(794,-24,cs)
);
},
{
closed = 1;
nodes = (
(616,372,o),
(528,474,o),
(528,638,cs),
(528,826,o),
(628,988,o),
(812,988,cs),
(924,988,o),
(1022,884,o),
(1022,722,cs),
(1022,532,o),
(914,372,o),
(746,372,cs)
);
}
);
width = 1590;
},
{
layerId = "1D708A55-1947-4475-A0A3-21124B6DD42B";
shapes = (
{
closed = 1;
nodes = (
(938,-24,o),
(1012,-16,o),
(1100,-6,c),
(1170,242,l),
(1054,214,o),
(958,196,o),
(876,196,cs),
(558,196,o),
(346,358,o),
(346,676,cs),
(346,992,o),
(568,1204,o),
(896,1204,cs),
(1234,1204,o),
(1364,1028,o),
(1364,820,cs),
(1364,606,o),
(1266,512,o),
(1164,512,cs),
(1140,512,o),
(1130,524,o),
(1130,534,cs),
(1130,540,o),
(1145,621,o),
(1156,680,cs),
(1222,1046,l),
(1010,1046,l),
(1004,1016,l),
(990,1034,o),
(940,1072,o),
(866,1072,cs),
(634,1072,o),
(486,862,o),
(486,658,cs),
(486,448,o),
(606,316,o),
(774,316,cs),
(844,316,o),
(906,332,o),
(946,404,c),
(974,332,o),
(1068,310,o),
(1120,310,cs),
(1392,310,o),
(1582,528,o),
(1582,826,cs),
(1582,1156,o),
(1310,1424,o),
(884,1424,cs),
(456,1424,o),
(120,1114,o),
(120,678,cs),
(120,228,o),
(414,-24,o),
(868,-24,cs)
);
},
{
closed = 1;
nodes = (
(742,530,o),
(708,578,o),
(708,652,cs),
(708,764,o),
(766,858,o),
(860,858,cs),
(918,858,o),
(948,814,o),
(948,738,cs),
(948,642,o),
(892,530,o),
(794,530,cs)
);
}
);
width = 1702;
},
{
layerId = "42555ED7-786B-4551-A9FC-B380F510FD49";
shapes = (
{
closed = 1;
nodes = (
(858,-24,o),
(940,-16,o),
(1014,2,c),
(1040,74,l),
(962,56,o),
(868,48,o),
(778,48,cs),
(448,48,o),
(266,278,o),
(266,578,cs),
(266,1018,o),
(620,1352,o),
(1002,1352,cs),
(1300,1352,o),
(1492,1170,o),
(1492,904,cs),
(1492,632,o),
(1346,382,o),
(1194,382,cs),
(1144,382,o),
(1116,416,o),
(1116,478,cs),
(1116,510,o),
(1130,569,o),
(1146,622,cs),
(1274,1032,l),
(1204,1032,l),
(1148,852,l),
(1138,956,o),
(1072,1058,o),
(930,1058,cs),
(678,1058,o),
(516,816,o),
(516,586,cs),
(516,410,o),
(608,302,o),
(760,302,cs),
(854,302,o),
(964,344,o),
(1046,460,c),
(1046,370,o),
(1100,320,o),
(1186,320,cs),
(1380,320,o),
(1570,582,o),
(1570,904,cs),
(1570,1210,o),
(1352,1424,o),
(1002,1424,cs),
(598,1424,o),
(188,1076,o),
(188,578,cs),
(188,204,o),
(436,-24,o),
(778,-24,cs)
);
},
{
closed = 1;
nodes = (
(664,372,o),
(592,456,o),
(592,592,cs),
(592,790,o),
(718,988,o),
(924,988,cs),
(1036,988,o),
(1106,900,o),
(1106,764,cs),
(1106,570,o),
(960,372,o),
(778,372,cs)
);
}
);
width = 1550;
},
{
layerId = "DEEEE81F-2F80-4306-8755-EEA92C96C68A";
shapes = (
{
closed = 1;
nodes = (
(950,-24,o),
(1002,-14,o),
(1042,-6,c),
(1144,222,l),
(1044,200,o),
(960,190,o),
(880,190,cs),
(594,190,o),
(452,350,o),
(452,586,cs),
(452,938,o),
(712,1210,o),
(1074,1210,cs),
(1354,1210,o),
(1458,1052,o),
(1458,884,cs),
(1458,646,o),
(1316,514,o),
(1214,514,cs),
(1200,514,o),
(1198,520,o),
(1198,528,cs),
(1198,546,o),
(1252,690,o),
(1266,727,cs),
(1384,1050,l),
(1170,1050,l),
(1158,1014,l),
(1130,1052,o),
(1082,1076,o),
(1016,1076,cs),
(786,1076,o),
(588,852,o),
(588,598,cs),
(588,416,o),
(676,320,o),
(814,320,cs),
(870,320,o),
(952,334,o),
(1004,408,c),
(1014,338,o),
(1092,316,o),
(1154,316,cs),
(1438,316,o),
(1666,562,o),
(1666,914,cs),
(1666,1188,o),
(1464,1430,o),
(1084,1430,cs),
(524,1430,o),
(226,996,o),
(226,584,cs),
(226,216,o),
(446,-24,o),
(872,-24,cs)
);
},
{
closed = 1;
nodes = (
(828,534,o),
(802,576,o),
(802,628,cs),
(802,750,o),
(896,862,o),
(992,862,cs),
(1038,862,o),
(1064,822,o),
(1064,774,cs),
(1064,674,o),
(980,534,o),
(870,534,cs)
);
}
);
width = 1642;
},
{
layerId = "07B4BFD6-AD6C-43B6-9499-C92B9E22D320";
shapes = (
{
closed = 1;
nodes = (
(902,-24,o),
(986,-18,o),
(1054,-2,c),
(1090,154,l),
(1016,132,o),
(916,120,o),
(824,120,cs),
(476,120,o),
(268,346,o),
(268,670,cs),
(268,1016,o),
(496,1280,o),
(852,1280,cs),
(1152,1280,o),
(1364,1104,o),
(1364,828,cs),
(1364,616,o),
(1278,452,o),
(1180,452,cs),
(1140,452,o),
(1118,478,o),
(1118,528,cs),
(1118,550,o),
(1123,590,o),
(1132,638,cs),
(1204,1040,l),
(1052,1040,l),
(1030,912,l),
(998,1014,o),
(922,1066,o),
(820,1066,cs),
(596,1066,o),
(452,848,o),
(452,652,cs),
(452,450,o),
(574,310,o),
(742,310,cs),
(848,310,o),
(932,362,o),
(986,458,c),
(1002,374,o),
(1066,322,o),
(1156,322,cs),
(1346,322,o),
(1508,532,o),
(1508,824,cs),
(1508,1168,o),
(1242,1424,o),
(844,1424,cs),
(446,1424,o),
(110,1114,o),
(110,672,cs),
(110,228,o),
(416,-24,o),
(816,-24,cs)
);
},
{
closed = 1;
nodes = (
(676,456,o),
(614,532,o),
(614,650,cs),
(614,794,o),
(700,918,o),
(834,918,cs),
(926,918,o),
(992,842,o),
(992,726,cs),
(992,590,o),
(908,456,o),
(776,456,cs)
);
}
);
width = 1618;
},
{
layerId = "77C27521-0479-4645-83A2-7244263DD4C5";
shapes = (
{
closed = 1;
nodes = (
(876,-24,o),
(962,-14,o),
(1028,4,c),
(1090,154,l),
(1010,132,o),
(902,118,o),
(810,118,cs),
(512,118,o),
(358,318,o),
(358,570,cs),
(358,962,o),
(636,1282,o),
(1048,1282,cs),
(1304,1282,o),
(1476,1142,o),
(1476,910,cs),
(1476,674,o),
(1350,446,o),
(1220,446,cs),
(1180,446,o),
(1160,472,o),
(1160,508,cs),
(1160,534,o),
(1174,576,o),
(1182,598,cs),
(1332,1036,l),
(1192,1036,l),
(1144,896,l),
(1140,998,o),
(1072,1062,o),
(966,1062,cs),
(726,1062,o),
(536,836,o),
(536,582,cs),
(536,420,o),
(626,306,o),
(764,306,cs),
(856,306,o),
(954,366,o),
(1022,460,c),
(1022,375,o),
(1078,320,o),
(1176,320,cs),
(1400,320,o),
(1612,588,o),
(1612,924,cs),
(1612,1214,o),
(1402,1426,o),
(1062,1426,cs),
(614,1426,o),
(208,1046,o),
(208,548,cs),
(208,194,o),
(440,-24,o),
(786,-24,cs)
);
},
{
closed = 1;
nodes = (
(738,446,o),
(692,508,o),
(692,600,cs),
(692,762,o),
(802,922,o),
(954,922,cs),
(1034,922,o),
(1076,862,o),
(1076,766,cs),
(1076,606,o),
(960,446,o),
(816,446,cs)
);
}
);
width = 1560;
}
);
unicode = 64;
},
{
glyphname = A;
kernLeft = A;
kernRight = A;
lastChange = "2021-03-19 18:43:07 +0000";
layers = (
{
anchors = (
{
name = bottom;
pos = (636,0);
},
{
name = ogonek;
pos = (1050,-20);
},
{
name = top;
pos = (636,1400);
}
);
layerId = "3BB16070-9AE0-46D6-9B05-19A363C2D547";
shapes = (
{
closed = 1;
nodes = (
(208,0,l),
(344,394,l),
(928,394,l),
(1064,0,l),
(1142,0,l),
(662,1400,l),
(610,1400,l),
(130,0,l)
);
},
{
closed = 1;
nodes = (
(564,1052,ls),
(574,1080,o),
(622,1216,o),
(636,1274,c),
(650,1216,o),
(696,1080,o),
(706,1052,cs),
(910,454,l),
(362,454,l)
);
}
);
width = 1272;
},
{
anchors = (
{
name = bottom;
pos = (742,0);
},
{
name = ogonek;
pos = (1308,0);
},
{
name = top;
pos = (742,1400);
}
);
layerId = "1D708A55-1947-4475-A0A3-21124B6DD42B";
shapes = (
{
closed = 1;
nodes = (
(378,0,l),
(480,266,l),
(1002,266,l),
(1106,0,l),
(1452,0,l),
(892,1400,l),
(590,1400,l),
(32,0,l)
);
},
{
closed = 1;
nodes = (
(700,838,ls),
(712,866,o),
(730,908,o),
(740,940,c),
(750,908,o),
(768,866,o),
(780,838,cs),
(894,558,l),
(586,558,l)
);
}
);
width = 1484;
},
{
anchors = (
{
name = bottom;
pos = (604,0);
},
{
name = ogonek;
pos = (1094,0);
},
{
name = top;
pos = (850,1400);
}
);
layerId = "42555ED7-786B-4551-A9FC-B380F510FD49";
shapes = (
{
closed = 1;
nodes = (
(196,0,l),
(396,394,l),
(964,394,l),
(1030,0,l),
(1104,0,l),
(878,1400,l),
(826,1400,l),
(116,0,l)
);
},
{
closed = 1;
nodes = (
(730,1060,ls),
(746,1092,o),
(810,1228,o),
(830,1280,c),
(834,1228,o),
(858,1092,o),
(864,1058,cs),
(956,454,l),
(424,454,l)
);
}
);
width = 1276;
},
{
anchors = (
{
name = bottom;
pos = (712,0);
},
{
name = ogonek;
pos = (1260,0);
},
{
name = top;
pos = (960,1400);
}
);
layerId = "DEEEE81F-2F80-4306-8755-EEA92C96C68A";
shapes = (
{
closed = 1;
nodes = (
(356,0,l),
(504,272,l),
(1020,272,l),
(1072,0,l),
(1384,0,l),
(1106,1400,l),
(802,1400,l),
(30,0,l)
);
},
{
closed = 1;
nodes = (
(838,902,ls),
(852,926,o),
(880,982,o),
(890,1006,c),
(892,984,o),
(904,918,o),
(908,896,cs),
(972,550,l),
(646,550,l)
);
}
);
width = 1400;
},
{
anchors = (
{
name = bottom;
pos = (678,0);
},
{
name = ogonek;
pos = (1104,-20);
},
{
name = top;
pos = (678,1400);
}
);
layerId = "07B4BFD6-AD6C-43B6-9499-C92B9E22D320";
shapes = (
{
closed = 1;
nodes = (
(284,0,l),
(402,342,l),
(958,342,l),
(1078,0,l),
(1256,0,l),
(760,1400,l),
(598,1400,l),
(102,0,l)
);
},
{
closed = 1;
nodes = (
(636,1014,ls),
(650,1054,o),
(670,1120,o),
(680,1156,c),
(688,1120,o),
(710,1054,o),
(724,1014,cs),
(904,496,l),
(454,496,l)
);
}
);
width = 1358;
},
{
anchors = (
{
name = bottom;
pos = (646,0);
},
{
name = ogonek;
pos = (1152,0);
},
{
name = top;
pos = (890,1400);
}
);
layerId = "77C27521-0479-4645-83A2-7244263DD4C5";
shapes = (
{
closed = 1;
nodes = (
(274,0,l),
(450,344,l),
(974,344,l),
(1030,0,l),
(1202,0,l),
(966,1400,l),
(816,1400,l),
(92,0,l)
);
},
{
closed = 1;
nodes = (
(792,1018,ls),
(810,1050,o),
(838,1114,o),
(848,1138,c),
(850,1114,o),
(860,1048,o),
(866,1016,cs),
(950,498,l),
(528,498,l)
);
}
);
width = 1296;
}
);
unicode = 65;
},
{
glyphname = B;
kernLeft = B;
kernRight = B;
lastChange = "2020-12-30 23:52:56 +0000";
layers = (
{
anchors = (
{
name = bottom;
pos = (632,0);
},
{
name = center;
pos = (636,700);
},
{
name = top;
pos = (632,1400);
},
{
name = topleft;
pos = (220,1400);
}
);
layerId = "3BB16070-9AE0-46D6-9B05-19A363C2D547";
shapes = (
{
closed = 1;
nodes = (
(682,0,ls),
(1000,0,o),
(1096,194,o),
(1096,376,cs),
(1096,578,o),
(964,714,o),
(776,730,c),
(946,766,o),
(1046,898,o),
(1046,1052,cs),
(1046,1226,o),
(952,1400,o),
(650,1400,cs),
(220,1400,l),
(220,0,l)
);
},
{
closed = 1;
nodes = (
(292,694,l),
(636,694,ls),
(946,694,o),
(1024,536,o),
(1024,362,cs),
(1024,212,o),
(952,64,o),
(700,64,cs),
(292,64,l)
);
},
{
closed = 1;
nodes = (
(292,1336,l),
(656,1336,ls),
(914,1336,o),
(974,1192,o),
(974,1056,cs),
(974,876,o),
(850,758,o),
(612,758,cs),
(292,758,l)
);
}
);
width = 1264;
},
{
anchors = (
{
name = bottom;
pos = (716,0);
},
{
name = center;
pos = (712,700);
},
{
name = top;
pos = (716,1400);
},
{
name = topleft;
pos = (146,1400);
}
);
layerId = "1D708A55-1947-4475-A0A3-21124B6DD42B";
shapes = (
{
closed = 1;
nodes = (
(848,0,ls),
(1204,0,o),
(1332,216,o),
(1332,420,cs),
(1332,530,o),
(1278,674,o),
(1132,730,c),
(1250,784,o),
(1286,896,o),
(1286,1020,cs),
(1286,1210,o),
(1170,1400,o),
(822,1400,cs),
(146,1400,l),
(146,0,l)
);
},
{
closed = 1;
nodes = (
(462,574,l),
(808,574,ls),
(978,574,o),
(1012,498,o),
(1012,428,cs),
(1012,372,o),
(976,298,o),
(862,298,cs),
(462,298,l)
);
},
{
closed = 1;
nodes = (
(462,1104,l),
(824,1104,ls),
(944,1104,o),
(964,1040,o),
(964,982,cs),
(964,906,o),
(912,858,o),
(792,858,cs),
(462,858,l)
);
}
);
width = 1426;
},
{
anchors = (
{
name = bottom;
pos = (542,0);
},
{
name = center;
pos = (668,700);
},
{
name = top;
pos = (788,1400);
},
{
name = topleft;
pos = (420,1400);
}
);
layerId = "42555ED7-786B-4551-A9FC-B380F510FD49";
shapes = (
{
closed = 1;
nodes = (
(626,0,ls),
(988,0,o),
(1104,238,o),
(1104,420,cs),
(1104,600,o),
(992,714,o),
(828,728,c),
(1026,762,o),
(1170,914,o),
(1170,1104,cs),
(1170,1266,o),
(1086,1400,o),
(830,1400,cs),
(420,1400,l),
(174,0,l)
);
},
{
closed = 1;
nodes = (
(370,694,l),
(692,694,ls),
(954,694,o),
(1030,574,o),
(1030,420,cs),
(1030,252,o),
(928,64,o),
(634,64,cs),
(258,64,l)
);
},
{
closed = 1;
nodes = (
(484,1336,l),
(826,1336,ls),
(1040,1336,o),
(1100,1228,o),
(1100,1104,cs),
(1100,908,o),
(938,758,o),
(674,758,cs),
(382,758,l)
);
}
);
width = 1224;
},
{
anchors = (
{
name = bottom;
pos = (618,0);
},
{
name = center;
pos = (780,700);
},
{
name = top;
pos = (864,1400);
},
{
name = topleft;
pos = (366,1400);
}
);
layerId = "DEEEE81F-2F80-4306-8755-EEA92C96C68A";
shapes = (
{
closed = 1;
nodes = (
(808,0,ls),
(1144,0,o),
(1356,170,o),
(1356,442,cs),
(1356,574,o),
(1292,672,o),
(1174,724,c),
(1314,790,o),
(1388,914,o),
(1388,1058,cs),
(1388,1276,o),
(1234,1400,o),
(996,1400,cs),
(366,1400,l),
(120,0,l)
);
},
{
closed = 1;
nodes = (
(524,582,l),
(860,582,ls),
(972,582,o),
(1030,532,o),
(1030,446,cs),
(1030,342,o),
(950,284,o),
(802,284,cs),
(472,284,l)
);
},
{
closed = 1;
nodes = (
(618,1118,l),
(948,1118,ls),
(1032,1118,o),
(1084,1074,o),
(1084,1008,cs),
(1084,916,o),
(1010,866,o),
(886,866,cs),
(574,866,l)
);
}
);
width = 1336;
},
{
anchors = (
{
name = bottom;
pos = (666,0);
},
{
name = center;
pos = (668,700);
},
{
name = top;
pos = (666,1400);
},
{
name = topleft;
pos = (196,1400);
}
);
layerId = "07B4BFD6-AD6C-43B6-9499-C92B9E22D320";
shapes = (
{
closed = 1;
nodes = (
(724,0,ls),
(1066,0,o),
(1178,212,o),
(1178,402,cs),
(1178,562,o),
(1084,688,o),
(922,738,c),
(1052,794,o),
(1128,902,o),
(1128,1030,cs),
(1128,1216,o),
(1024,1400,o),
(692,1400,cs),
(196,1400,l),
(196,0,l)
);
},
{
closed = 1;
nodes = (
(370,648,l),
(680,648,ls),
(942,648,o),
(1006,524,o),
(1006,390,cs),
(1006,278,o),
(950,160,o),
(744,160,cs),
(370,160,l)
);
},
{
closed = 1;
nodes = (
(370,1242,l),
(702,1242,ls),
(912,1242,o),
(956,1130,o),
(956,1028,cs),
(956,894,o),
(856,806,o),
(658,806,cs),
(370,806,l)
);
}
);
width = 1312;
},
{
anchors = (
{
name = bottom;
pos = (598,0);
},
{
name = center;
pos = (748,700);
},
{
name = top;
pos = (844,1400);
},
{
name = topleft;
pos = (428,1400);
}
);
layerId = "77C27521-0479-4645-83A2-7244263DD4C5";
shapes = (
{
closed = 1;
nodes = (
(710,0,ls),
(1090,0,o),
(1214,220,o),
(1214,428,cs),
(1214,572,o),
(1134,694,o),
(1000,728,c),
(1118,760,o),
(1272,870,o),
(1272,1086,cs),
(1272,1242,o),
(1178,1400,o),
(906,1400,cs),
(428,1400,l),
(182,0,l)
);
},
{
closed = 1;
nodes = (
(470,650,l),
(772,650,ls),
(980,650,o),
(1040,550,o),
(1040,432,cs),
(1040,316,o),
(976,158,o),
(720,158,cs),
(382,158,l)
);
},
{
closed = 1;
nodes = (
(574,1242,l),
(890,1242,ls),
(1060,1242,o),
(1102,1152,o),
(1102,1058,cs),
(1102,912,o),
(992,804,o),
(770,804,cs),
(496,804,l)
);
}
);
width = 1252;
}
);
unicode = 66;
},
{
glyphname = C;
kernLeft = O;
kernRight = C;
lastChange = "2020-12-31 05:23:36 +0000";
layers = (
{
anchors = (
{
name = bottom;
pos = (712,0);
},
{
name = top;
pos = (708,1400);
},
{
name = topright;
pos = (1110,1198);
}
);
layerId = "3BB16070-9AE0-46D6-9B05-19A363C2D547";
shapes = (
{
closed = 1;
nodes = (
(938,-24,o),
(1070,104,o),
(1130,232,c),
(1064,258,l),
(1012,152,o),
(900,48,o),
(712,48,cs),
(376,48,o),
(248,368,o),
(248,700,cs),
(248,1036,o),
(396,1352,o),
(710,1352,cs),
(910,1352,o),
(992,1258,o),
(1048,1162,c),
(1110,1198,l),
(1044,1312,o),
(946,1424,o),
(710,1424,cs),
(342,1424,o),
(170,1072,o),
(170,700,cs),
(170,334,o),
(324,-24,o),
(712,-24,cs)
);
}
);
width = 1280;
},
{
anchors = (
{
name = bottom;
pos = (688,0);
},
{
name = top;
pos = (692,1400);
},
{
name = topright;
pos = (1206,1080);
}
);
layerId = "1D708A55-1947-4475-A0A3-21124B6DD42B";
shapes = (
{
closed = 1;
nodes = (
(946,-20,o),
(1106,136,o),
(1208,356,c),
(920,464,l),
(856,358,o),
(784,284,o),
(688,284,cs),
(502,284,o),
(424,508,o),
(424,700,cs),
(424,886,o),
(488,1120,o),
(688,1120,cs),
(794,1120,o),
(854,1060,o),
(924,954,c),
(1206,1080,l),
(1136,1254,o),
(958,1424,o),
(688,1424,cs),
(250,1424,o),
(96,1018,o),
(96,700,cs),
(96,354,o),
(246,-20,o),
(688,-20,cs)
);
}
);
width = 1266;
},
{
anchors = (
{
name = bottom;
pos = (658,0);
},
{
name = top;
pos = (896,1400);
},
{
name = topright;
pos = (1258,1198);
}
);
layerId = "42555ED7-786B-4551-A9FC-B380F510FD49";
shapes = (
{
closed = 1;
nodes = (
(890,-24,o),
(1024,104,o),
(1106,232,c),
(1038,262,l),
(970,156,o),
(844,48,o),
(662,48,cs),
(406,48,o),
(310,278,o),
(310,534,cs),
(310,932,o),
(522,1352,o),
(898,1352,cs),
(1070,1352,o),
(1136,1272,o),
(1190,1162,c),
(1258,1198,l),
(1204,1312,o),
(1120,1424,o),
(900,1424,cs),
(474,1424,o),
(230,968,o),
(230,532,cs),
(230,244,o),
(346,-24,o),
(654,-24,cs)
);
}
);
width = 1240;
},
{
anchors = (
{
name = bottom;
pos = (690,0);
},
{
name = top;
pos = (884,1400);
},
{
name = topright;
pos = (1356,1084);
}
);
layerId = "DEEEE81F-2F80-4306-8755-EEA92C96C68A";
shapes = (
{
closed = 1;
nodes = (
(912,-22,o),
(1098,86,o),
(1246,340,c),
(978,452,l),
(940,372,o),
(844,280,o),
(716,280,cs),
(572,280,o),
(516,418,o),
(516,586,cs),
(516,838,o),
(636,1128,o),
(876,1128,cs),
(966,1128,o),
(1038,1080,o),
(1082,970,c),
(1356,1084,l),
(1304,1252,o),
(1164,1422,o),
(888,1422,cs),
(462,1422,o),
(202,1014,o),
(202,570,cs),
(202,238,o),
(358,-22,o),
(690,-22,cs)
);
}
);
width = 1220;
},
{
anchors = (
{
name = bottom;
pos = (716,0);
},
{
name = top;
pos = (714,1400);
},
{
name = topright;
pos = (1168,1172);
}
);
layerId = "07B4BFD6-AD6C-43B6-9499-C92B9E22D320";
shapes = (
{
closed = 1;
nodes = (
(962,-24,o),
(1108,102,o),
(1180,258,c),
(1020,318,l),
(956,212,o),
(870,140,o),
(716,140,cs),
(436,140,o),
(316,422,o),
(316,700,cs),
(316,956,o),
(416,1262,o),
(716,1262,cs),
(870,1262,o),
(946,1190,o),
(1012,1092,c),
(1168,1172,l),
(1106,1298,o),
(974,1424,o),
(716,1424,cs),
(300,1424,o),
(136,1052,o),
(136,700,cs),
(136,344,o),
(292,-24,o),
(716,-24,cs)
);
}
);
width = 1294;
},
{
anchors = (
{
name = bottom;
pos = (710,0);
},
{
name = top;
pos = (922,1400);
},
{
name = topright;
pos = (1322,1176);
}
);
layerId = "77C27521-0479-4645-83A2-7244263DD4C5";
shapes = (
{
closed = 1;
nodes = (
(938,-24,o),
(1088,96,o),
(1184,248,c),
(1040,316,l),
(966,216,o),
(870,138,o),
(720,138,cs),
(498,138,o),
(408,358,o),
(408,574,cs),
(408,890,o),
(582,1264,o),
(910,1264,cs),
(1048,1264,o),
(1124,1194,o),
(1176,1102,c),
(1322,1176,l),
(1274,1292,o),
(1150,1424,o),
(926,1424,cs),
(490,1424,o),
(232,1000,o),
(232,558,cs),
(232,264,o),
(378,-24,o),
(708,-24,cs)
);
}
);
width = 1232;
}
);
unicode = 67;
},
{
glyphname = D;
kernLeft = B;
kernRight = O;
lastChange = "2020-12-31 00:58:13 +0000";
layers = (
{
anchors = (
{
name = bottom;
pos = (666,0);
},
{
name = center;
pos = (400,698);
},
{
name = top;
pos = (580,1400);
},
{
name = topleft;
pos = (220,1400);
}
);
layerId = "3BB16070-9AE0-46D6-9B05-19A363C2D547";
shapes = (
{
closed = 1;
nodes = (
(532,0,ls),
(1024,0,o),
(1160,378,o),
(1160,700,cs),
(1160,1046,o),
(1004,1400,o),
(540,1400,cs),
(220,1400,l),
(220,0,l)
);
},
{
closed = 1;
nodes = (
(292,1328,l),
(540,1328,ls),
(946,1328,o),
(1084,1010,o),
(1084,700,cs),
(1084,412,o),
(964,72,o),
(532,72,cs),
(292,72,l)
);
}
);
width = 1330;
},
{
anchors = (
{
name = bottom;
pos = (728,0);
},
{
name = center;
pos = (364,700);
},
{
name = top;
pos = (660,1400);
},
{
name = topleft;
pos = (146,1400);
}
);
layerId = "1D708A55-1947-4475-A0A3-21124B6DD42B";
shapes = (
{
closed = 1;
nodes = (
(670,0,ls),
(1184,0,o),
(1362,382,o),
(1362,700,cs),
(1362,1050,o),
(1168,1400,o),
(678,1400,cs),
(146,1400,l),
(146,0,l)
);
},
{
closed = 1;
nodes = (
(462,1100,l),
(722,1100,ls),
(938,1100,o),
(1034,892,o),
(1034,700,cs),
(1034,516,o),
(942,302,o),
(700,302,cs),
(462,302,l)
);
}
);
width = 1458;
},
{
anchors = (
{
name = bottom;
pos = (546,0);
},
{
name = center;
pos = (472,700);
},
{
name = top;
pos = (770,1400);
},
{
name = topleft;
pos = (420,1400);
}
);
layerId = "42555ED7-786B-4551-A9FC-B380F510FD49";
shapes = (
{
closed = 1;
nodes = (
(466,0,ls),
(980,0,o),
(1234,408,o),
(1234,844,cs),
(1234,1128,o),
(1104,1400,o),
(720,1400,cs),
(420,1400,l),
(174,0,l)
);
},
{
closed = 1;
nodes = (
(480,1328,l),
(706,1328,ls),
(1044,1328,o),
(1152,1096,o),
(1152,844,cs),
(1152,416,o),
(902,72,o),
(480,72,cs),
(262,72,l)
);
}
);
width = 1296;
},
{
anchors = (
{
name = bottom;
pos = (638,0);
},
{
name = center;
pos = (454,700);
},
{
name = top;
pos = (826,1400);
},
{
name = topleft;
pos = (366,1400);
}
);
layerId = "DEEEE81F-2F80-4306-8755-EEA92C96C68A";
shapes = (
{
closed = 1;
nodes = (
(664,0,ls),
(1178,0,o),
(1402,392,o),
(1402,750,cs),
(1402,1116,o),
(1212,1400,o),
(820,1400,cs),
(366,1400,l),
(120,0,l)
);
},
{
closed = 1;
nodes = (
(610,1112,l),
(772,1112,ls),
(974,1112,o),
(1072,966,o),
(1072,734,cs),
(1072,512,o),
(926,290,o),
(654,290,cs),
(466,290,l)
);
}
);
width = 1366;
},
{
anchors = (
{
name = bottom;
pos = (686,0);
},
{
name = center;
pos = (372,700);
},
{
name = top;
pos = (618,1400);
},
{
name = topleft;
pos = (196,1400);
}
);
layerId = "07B4BFD6-AD6C-43B6-9499-C92B9E22D320";
shapes = (
{
closed = 1;
nodes = (
(570,0,ls),
(1078,0,o),
(1228,378,o),
(1228,700,cs),
(1228,1046,o),
(1058,1400,o),
(578,1400,cs),
(196,1400,l),
(196,0,l)
);
},
{
closed = 1;
nodes = (
(370,1240,l),
(614,1240,ls),
(922,1240,o),
(1048,972,o),
(1048,700,cs),
(1048,446,o),
(940,162,o),
(592,162,cs),
(370,162,l)
);
}
);
width = 1364;
},
{
anchors = (
{
name = bottom;
pos = (632,0);
},
{
name = center;
pos = (490,700);
},
{
name = top;
pos = (832,1400);
},
{
name = topleft;
pos = (428,1400);
}
);
layerId = "77C27521-0479-4645-83A2-7244263DD4C5";
shapes = (
{
closed = 1;
nodes = (
(574,0,ls),
(1152,0,o),
(1328,456,o),
(1328,802,cs),
(1328,1092,o),
(1186,1400,o),
(802,1400,cs),
(428,1400,l),
(182,0,l)
);
},
{
closed = 1;
nodes = (
(572,1242,l),
(798,1242,ls),
(1048,1242,o),
(1150,1022,o),
(1150,800,cs),
(1150,524,o),
(1012,158,o),
(596,158,cs),
(382,158,l)
);
}
);
width = 1320;
}
);
metricRight = O;
unicode = 68;
},
{
glyphname = E;
kernLeft = B;
kernRight = E;
lastChange = "2020-09-15 16:22:47 +0000";
layers = (
{
anchors = (
{
name = bottom;
pos = (582,0);
},
{
name = ogonek;
pos = (900,0);
},
{
name = top;
pos = (592,1400);
},
{
name = topleft;
pos = (30,1400);
}
);
layerId = "3BB16070-9AE0-46D6-9B05-19A363C2D547";
shapes = (
{
closed = 1;
nodes = (
(994,0,l),
(994,66,l),
(292,66,l),
(292,692,l),
(736,692,l),
(736,758,l),
(292,758,l),
(292,1334,l),
(950,1334,l),
(950,1400,l),
(220,1400,l),
(220,0,l)
);
}
);
width = 1164;
},
{
anchors = (
{
name = bottom;
pos = (640,0);
},
{
name = ogonek;
pos = (1074,0);
},
{
name = top;
pos = (670,1400);
},
{
name = topleft;
pos = (6,1400);
}
);
layerId = "1D708A55-1947-4475-A0A3-21124B6DD42B";
shapes = (
{
closed = 1;
nodes = (
(1208,0,l),
(1208,302,l),
(462,302,l),
(462,572,l),
(850,572,l),
(850,872,l),
(462,872,l),
(462,1100,l),
(1168,1100,l),
(1168,1400,l),
(146,1400,l),
(146,0,l)
);
}
);
width = 1282;
},
{
anchors = (
{
name = bottom;
pos = (534,0);
},
{
name = ogonek;
pos = (838,0);
},
{
name = top;
pos = (778,1400);
},
{
name = topleft;
pos = (197,1400);
}
);
layerId = "42555ED7-786B-4551-A9FC-B380F510FD49";
shapes = (
{
closed = 1;
nodes = (
(932,0,l),
(944,66,l),
(260,66,l),
(370,692,l),
(796,692,l),
(808,758,l),
(382,758,l),
(484,1334,l),
(1124,1334,l),
(1134,1400,l),
(420,1400,l),
(174,0,l)
);
}
);
width = 1124;
},
{
anchors = (
{
name = bottom;
pos = (626,0);
},
{
name = ogonek;
pos = (1034,0);
},
{
name = top;
pos = (842,1400);
},
{
name = topleft;
pos = (197,1400);
}
);
layerId = "DEEEE81F-2F80-4306-8755-EEA92C96C68A";
shapes = (
{
closed = 1;
nodes = (
(1114,0,l),
(1166,290,l),
(478,290,l),
(528,578,l),
(890,578,l),
(940,866,l),
(580,866,l),
(624,1112,l),
(1270,1112,l),
(1320,1400,l),
(366,1400,l),
(120,0,l)
);
}
);
width = 1168;
},
{
anchors = (
{
name = bottom;
pos = (602,0);
},
{
name = ogonek;
pos = (976,0);
},
{
name = top;
pos = (632,1400);
},
{
name = topleft;
pos = (40,1400);
}
);
layerId = "07B4BFD6-AD6C-43B6-9499-C92B9E22D320";
shapes = (
{
closed = 1;
nodes = (
(1072,0,l),
(1072,166,l),
(370,166,l),
(370,642,l),
(804,642,l),
(804,806,l),
(370,806,l),
(370,1236,l),
(1028,1236,l),
(1028,1400,l),
(196,1400,l),
(196,0,l)
);
}
);
width = 1198;
},
{
anchors = (
{
name = bottom;
pos = (584,0);
},
{
name = ogonek;
pos = (944,0);
},
{
name = top;
pos = (832,1400);
},
{
name = topleft;
pos = (196,1400);
}
);
layerId = "77C27521-0479-4645-83A2-7244263DD4C5";
shapes = (
{
closed = 1;
nodes = (
(1032,0,l),
(1060,158,l),
(384,158,l),
(470,646,l),
(880,646,l),
(910,804,l),
(498,804,l),
(574,1242,l),
(1208,1242,l),
(1234,1400,l),
(428,1400,l),
(182,0,l)
);
}
);
width = 1148;
}
);
metricLeft = B;
unicode = 69;
},
{
glyphname = F;
kernLeft = B;
kernRight = F;
lastChange = "2020-09-15 16:22:47 +0000";
layers = (
{
anchors = (
{
name = bottom;
pos = (256,0);
},
{
name = bottomleft;
pos = (220,0);
},
{
name = center;
pos = (352,354);
},
{
name = top;
pos = (596,1400);
}
);
layerId = "3BB16070-9AE0-46D6-9B05-19A363C2D547";
shapes = (
{
closed = 1;
nodes = (
(292,0,l),
(292,692,l),
(750,692,l),
(750,758,l),
(292,758,l),
(292,1334,l),
(970,1334,l),
(970,1400,l),
(220,1400,l),
(220,0,l)
);
}
);
width = 1100;
},
{
anchors = (
{
name = bottom;
pos = (304,0);
},
{
name = bottomleft;
pos = (146,0);
},
{
name = center;
pos = (356,290);
},
{
name = top;
pos = (644,1400);
}
);
layerId = "1D708A55-1947-4475-A0A3-21124B6DD42B";
shapes = (
{
closed = 1;
nodes = (
(462,0,l),
(462,572,l),
(884,572,l),
(884,872,l),
(462,872,l),
(462,1100,l),
(1136,1100,l),
(1136,1400,l),
(146,1400,l),
(146,0,l)
);
}
);
width = 1166;
},
{
anchors = (
{
name = bottom;
pos = (212,0);
},
{
name = bottomleft;
pos = (174,0);
},
{
name = center;
pos = (372,354);
},
{
name = top;
pos = (788,1400);
}
);
layerId = "42555ED7-786B-4551-A9FC-B380F510FD49";
shapes = (
{
closed = 1;
nodes = (
(248,0,l),
(370,692,l),
(810,692,l),
(822,758,l),
(382,758,l),
(484,1334,l),
(1144,1334,l),
(1154,1400,l),
(420,1400,l),
(174,0,l)
);
}
);
width = 1060;
},
{
anchors = (
{
name = bottom;
pos = (272,0);
},
{
name = bottomleft;
pos = (120,0);
},
{
name = center;
pos = (372,290);
},
{
name = top;
pos = (832,1400);
}
);
layerId = "DEEEE81F-2F80-4306-8755-EEA92C96C68A";
shapes = (
{
closed = 1;
nodes = (
(426,0,l),
(528,570,l),
(912,570,l),
(966,874,l),
(580,874,l),
(624,1112,l),
(1246,1112,l),
(1296,1400,l),
(366,1400,l),
(120,0,l)
);
}
);
width = 1076;
},
{
anchors = (
{
name = bottom;
pos = (284,0);
},
{
name = bottomleft;
pos = (196,0);
},
{
name = center;
pos = (352,326);
},
{
name = top;
pos = (614,1400);
}
);
layerId = "07B4BFD6-AD6C-43B6-9499-C92B9E22D320";
shapes = (
{
closed = 1;
nodes = (
(370,0,l),
(370,642,l),
(812,642,l),
(812,806,l),
(370,806,l),
(370,1236,l),
(1038,1236,l),
(1038,1400,l),
(196,1400,l),
(196,0,l)
);
}
);
width = 1124;
},
{
anchors = (
{
name = bottom;
pos = (270,0);
},
{
name = bottomleft;
pos = (182,0);
},
{
name = center;
pos = (406,330);
},
{
name = top;
pos = (836,1400);
}
);
layerId = "77C27521-0479-4645-83A2-7244263DD4C5";
shapes = (
{
closed = 1;
nodes = (
(356,0,l),
(470,644,l),
(894,644,l),
(924,806,l),
(498,806,l),
(574,1242,l),
(1220,1242,l),
(1246,1400,l),
(428,1400,l),
(182,0,l)
);
}
);
width = 1082;
}
);
metricLeft = B;
unicode = 70;
},
{
glyphname = G;
kernLeft = O;
kernRight = G;
lastChange = "2020-12-31 05:57:22 +0000";
layers = (
{
anchors = (
{
name = bottom;
pos = (702,0);
},
{
name = top;
pos = (716,1400);
},
{
name = topright;
pos = (1098,1232);
}
);
layerId = "3BB16070-9AE0-46D6-9B05-19A363C2D547";
shapes = (
{
closed = 1;
nodes = (
(972,-24,o),
(1160,146,o),
(1160,562,cs),
(1160,630,l),
(790,630,l),
(790,562,l),
(1084,562,l),
(1084,538,ls),
(1084,208,o),
(940,48,o),
(716,48,cs),
(386,48,o),
(248,362,o),
(248,700,cs),
(248,1004,o),
(370,1352,o),
(716,1352,cs),
(876,1352,o),
(972,1276,o),
(1034,1190,c),
(1098,1232,l),
(1030,1324,o),
(914,1424,o),
(716,1424,cs),
(336,1424,o),
(170,1082,o),
(170,700,cs),
(170,334,o),
(324,-24,o),
(716,-24,cs)
);
}
);
width = 1362;
},
{
anchors = (
{
name = bottom;
pos = (702,0);
},
{
name = top;
pos = (716,1400);
},
{
name = topright;
pos = (1236,1098);
}
);
layerId = "1D708A55-1947-4475-A0A3-21124B6DD42B";
shapes = (
{
closed = 1;
nodes = (
(1014,-24,o),
(1244,174,o),
(1244,536,cs),
(1244,760,l),
(694,760,l),
(694,458,l),
(920,458,l),
(920,452,ls),
(920,360,o),
(822,278,o),
(716,278,cs),
(504,278,o),
(424,488,o),
(424,700,cs),
(424,884,o),
(492,1122,o),
(716,1122,cs),
(822,1122,o),
(900,1038,o),
(960,942,c),
(1236,1098,l),
(1132,1264,o),
(990,1424,o),
(716,1424,cs),
(290,1424,o),
(96,1038,o),
(96,700,cs),
(96,334,o),
(284,-24,o),
(716,-24,cs)
);
}
);
width = 1354;
},
{
anchors = (
{
name = bottom;
pos = (661,0);
},
{
name = top;
pos = (901,1400);
},
{
name = topright;
pos = (1253,1232);
}
);
layerId = "42555ED7-786B-4551-A9FC-B380F510FD49";
shapes = (
{
closed = 1;
nodes = (
(909,-24,o),
(1122,146,o),
(1193,562,cs),
(1205,632,l),
(843,632,l),
(833,562,l),
(1117,562,l),
(1113,538,ls),
(1058,207,o),
(887,48,o),
(663,48,cs),
(409,48,o),
(309,276,o),
(309,538,cs),
(309,882,o),
(487,1352,o),
(897,1352,cs),
(1051,1352,o),
(1135,1276,o),
(1181,1190,c),
(1253,1232,l),
(1199,1326,o),
(1103,1424,o),
(905,1424,cs),
(459,1424,o),
(231,966,o),
(231,530,cs),
(231,240,o),
(349,-24,o),
(659,-24,cs)
);
}
);
width = 1323;
},
{
anchors = (
{
name = bottom;
pos = (733,0);
},
{
name = top;
pos = (893,1400);
},
{
name = topright;
pos = (1385,1102);
}
);
layerId = "DEEEE81F-2F80-4306-8755-EEA92C96C68A";
shapes = (
{
closed = 1;
nodes = (
(1029,-24,o),
(1297,144,o),
(1385,716,cs),
(1389,742,l),
(821,742,l),
(769,470,l),
(1017,470,l),
(1013,460,ls),
(969,351,o),
(883,270,o),
(751,270,cs),
(573,270,o),
(509,416,o),
(509,614,cs),
(509,880,o),
(641,1132,o),
(877,1132,cs),
(997,1132,o),
(1069,1050,o),
(1115,956,c),
(1385,1102,l),
(1313,1250,o),
(1179,1424,o),
(897,1424,cs),
(455,1424,o),
(209,1040,o),
(209,616,cs),
(209,274,o),
(347,-24,o),
(735,-24,cs)
);
}
);
width = 1303;
},
{
anchors = (
{
name = bottom;
pos = (730,0);
},
{
name = top;
pos = (740,1400);
},
{
name = topright;
pos = (1184,1178);
}
);
layerId = "07B4BFD6-AD6C-43B6-9499-C92B9E22D320";
shapes = (
{
closed = 1;
nodes = (
(1010,-24,o),
(1226,164,o),
(1226,512,cs),
(1226,680,l),
(790,680,l),
(790,520,l),
(1044,520,l),
(1044,464,ls),
(1044,274,o),
(920,142,o),
(730,142,cs),
(438,142,o),
(316,412,o),
(316,700,cs),
(316,956,o),
(418,1260,o),
(730,1260,cs),
(884,1260,o),
(964,1180,o),
(1028,1088,c),
(1184,1178,l),
(1106,1304,o),
(990,1424,o),
(730,1424,cs),
(320,1424,o),
(136,1062,o),
(136,700,cs),
(136,334,o),
(306,-24,o),
(730,-24,cs)
);
}
);
width = 1376;
},
{
anchors = (
{
name = bottom;
pos = (705,0);
},
{
name = top;
pos = (919,1400);
},
{
name = topright;
pos = (1325,1178);
}
);
layerId = "77C27521-0479-4645-83A2-7244263DD4C5";
shapes = (
{
closed = 1;
nodes = (
(975,-24,o),
(1191,136,o),
(1261,520,cs),
(1289,674,l),
(863,674,l),
(835,522,l),
(1079,522,l),
(1067,454,ls),
(1033,262,o),
(901,136,o),
(717,136,cs),
(495,136,o),
(403,338,o),
(403,560,cs),
(403,890,o),
(575,1264,o),
(897,1264,cs),
(1047,1264,o),
(1127,1188,o),
(1173,1096,c),
(1325,1178,l),
(1277,1286,o),
(1161,1424,o),
(923,1424,cs),
(465,1424,o),
(231,986,o),
(231,546,cs),
(231,254,o),
(373,-24,o),
(709,-24,cs)
);
}
);
width = 1309;
}
);
metricLeft = C;
unicode = 71;
},
{
glyphname = H;
kernLeft = B;
kernRight = H;
lastChange = "2021-01-04 21:50:35 +0000";
layers = (
{
anchors = (
{
name = bottom;
pos = (668,0);
},
{
name = center;
pos = (668,700);
},
{
name = top;
pos = (668,1400);
},
{
name = topleft;
pos = (220,1400);
}
);
layerId = "3BB16070-9AE0-46D6-9B05-19A363C2D547";
shapes = (
{
closed = 1;
nodes = (
(292,0,l),
(292,694,l),
(1044,694,l),
(1044,0,l),
(1116,0,l),
(1116,1400,l),
(1044,1400,l),
(1044,762,l),
(292,762,l),
(292,1400,l),
(220,1400,l),
(220,0,l)
);
}
);
width = 1336;
},
{
anchors = (
{
name = bottom;
pos = (736,0);
},
{
name = center;
pos = (736,700);
},
{
name = top;
pos = (736,1400);
},
{
name = topleft;
pos = (146,1400);
}
);
layerId = "1D708A55-1947-4475-A0A3-21124B6DD42B";
shapes = (
{
closed = 1;
nodes = (
(462,0,l),
(462,568,l),
(1008,568,l),
(1008,0,l),
(1324,0,l),
(1324,1400,l),
(1008,1400,l),
(1008,870,l),
(462,870,l),
(462,1400,l),
(146,1400,l),
(146,0,l)
);
}
);
width = 1470;
},
{
anchors = (
{
name = bottom;
pos = (610,0);
},
{
name = center;
pos = (734,700);
},
{
name = top;
pos = (858,1400);
},
{
name = topleft;
pos = (420,1400);
}
);
layerId = "42555ED7-786B-4551-A9FC-B380F510FD49";
shapes = (
{
closed = 1;
nodes = (
(248,0,l),
(370,694,l),
(1098,694,l),
(976,0,l),
(1050,0,l),
(1296,1400,l),
(1222,1400,l),
(1112,762,l),
(384,762,l),
(494,1400,l),
(420,1400,l),
(174,0,l)
);
}
);
width = 1296;
},
{
anchors = (
{
name = bottom;
pos = (690,0);
},
{
name = center;
pos = (814,700);
},
{
name = top;
pos = (938,1400);
},
{
name = topleft;
pos = (366,1400);
}
);
layerId = "DEEEE81F-2F80-4306-8755-EEA92C96C68A";
shapes = (
{
closed = 1;
nodes = (
(426,0,l),
(528,576,l),
(1056,576,l),
(956,0,l),
(1262,0,l),
(1508,1400,l),
(1202,1400,l),
(1106,862,l),
(576,862,l),
(672,1400,l),
(366,1400,l),
(120,0,l)
);
}
);
width = 1380;
},
{
anchors = (
{
name = bottom;
pos = (700,0);
},
{
name = center;
pos = (700,700);
},
{
name = top;
pos = (700,1400);
},
{
name = topleft;
pos = (196,1400);
}
);
layerId = "07B4BFD6-AD6C-43B6-9499-C92B9E22D320";
shapes = (
{
closed = 1;
nodes = (
(370,0,l),
(370,644,l),
(1030,644,l),
(1030,0,l),
(1204,0,l),
(1204,1400,l),
(1030,1400,l),
(1030,808,l),
(370,808,l),
(370,1400,l),
(196,1400,l),
(196,0,l)
);
}
);
width = 1400;
},
{
anchors = (
{
name = bottom;
pos = (670,0);
},
{
name = center;
pos = (794,700);
},
{
name = top;
pos = (918,1400);
},
{
name = topleft;
pos = (428,1400);
}
);
layerId = "77C27521-0479-4645-83A2-7244263DD4C5";
shapes = (
{
closed = 1;
nodes = (
(358,0,l),
(470,644,l),
(1100,644,l),
(986,0,l),
(1160,0,l),
(1406,1400,l),
(1232,1400,l),
(1128,808,l),
(498,808,l),
(602,1400,l),
(428,1400,l),
(182,0,l)
);
}
);
width = 1340;
}
);
metricLeft = B;
unicode = 72;
},
{
glyphname = I;
kernLeft = B;
kernRight = H;
lastChange = "2021-02-02 23:08:48 +0000";
layers = (
{
anchors = (
{
name = bottom;
pos = (256,0);
},
{
name = center;
pos = (256,700);
},
{
name = ogonek;
pos = (216,-20);
},
{
name = top;
pos = (256,1400);
},
{
name = topleft;
pos = (30,1400);
}
);
layerId = "3BB16070-9AE0-46D6-9B05-19A363C2D547";
shapes = (
{
closed = 1;
nodes = (
(292,0,l),
(292,1400,l),
(220,1400,l),
(220,0,l)
);
}
);
width = 512;
},
{
anchors = (
{
name = bottom;
pos = (306,0);
},
{
name = center;
pos = (304,700);
},
{
name = ogonek;
pos = (580,20);
},
{
name = top;
pos = (306,1400);
},
{
name = topleft;
pos = (-4,1400);
}
);
layerId = "1D708A55-1947-4475-A0A3-21124B6DD42B";
shapes = (
{
closed = 1;
nodes = (
(462,0,l),
(462,1400,l),
(146,1400,l),
(146,0,l)
);
}
);
width = 608;
},
{
anchors = (
{
name = bottom;
pos = (210,0);
},
{
name = center;
pos = (334,700);
},
{
name = ogonek;
pos = (68,-80);
},
{
name = top;
pos = (458,1400);
},
{
name = topleft;
pos = (197,1400);
}
);
layerId = "42555ED7-786B-4551-A9FC-B380F510FD49";
shapes = (
{
closed = 1;
nodes = (
(248,0,l),
(494,1400,l),
(420,1400,l),
(174,0,l)
);
}
);
width = 494;
},
{
anchors = (
{
name = bottom;
pos = (272,0);
},
{
name = center;
pos = (396,700);
},
{
name = ogonek;
pos = (214,-84);
},
{
name = top;
pos = (520,1400);
},
{
name = topleft;
pos = (197,1400);
}
);
layerId = "DEEEE81F-2F80-4306-8755-EEA92C96C68A";
shapes = (
{
closed = 1;
nodes = (
(426,0,l),
(672,1400,l),
(366,1400,l),
(120,0,l)
);
}
);
width = 544;
},
{
anchors = (
{
name = bottom;
pos = (292,0);
},
{
name = center;
pos = (282,700);
},
{
name = ogonek;
pos = (528,20);
},
{
name = top;
pos = (292,1400);
},
{
name = topleft;
pos = (38,1400);
}
);
layerId = "07B4BFD6-AD6C-43B6-9499-C92B9E22D320";
shapes = (
{
closed = 1;
nodes = (
(370,0,l),
(370,1400,l),
(196,1400,l),
(196,0,l)
);
}
);
width = 566;
},
{
anchors = (
{
name = bottom;
pos = (270,0);
},
{
name = center;
pos = (392,700);
},
{
name = ogonek;
pos = (156,-80);
},
{
name = top;
pos = (516,1400);
},
{
name = topleft;
pos = (196,1400);
}
);
layerId = "77C27521-0479-4645-83A2-7244263DD4C5";
shapes = (
{
closed = 1;
nodes = (
(356,0,l),
(602,1400,l),
(428,1400,l),
(182,0,l)
);
}
);
width = 536;
}
);
metricLeft = B;
metricRight = H;
unicode = 73;
},
{
glyphname = J;
kernLeft = J;
kernRight = J;
lastChange = "2021-03-19 19:30:40 +0000";
layers = (
{
anchors = (
{
name = bottom;
pos = (442,0);
},
{
name = top;
pos = (816,1400);
}
);
layerId = "3BB16070-9AE0-46D6-9B05-19A363C2D547";
shapes = (
{
closed = 1;
nodes = (
(622,-24,o),
(852,68,o),
(852,450,cs),
(852,1400,l),
(780,1400,l),
(780,446,ls),
(780,122,o),
(588,44,o),
(440,44,cs),
(276,44,o),
(190,126,o),
(136,246,c),
(76,214,l),
(138,66,o),
(238,-24,o),
(440,-24,cs)
);
}
);
width = 1064;
},
{
anchors = (
{
name = bottom;
pos = (504,0);
},
{
name = top;
pos = (838,1400);
}
);
layerId = "1D708A55-1947-4475-A0A3-21124B6DD42B";
shapes = (
{
closed = 1;
nodes = (
(724,-24,o),
(996,92,o),
(996,498,cs),
(996,1400,l),
(678,1400,l),
(678,520,ls),
(678,328,o),
(594,282,o),
(504,282,cs),
(414,282,o),
(350,344,o),
(294,444,c),
(16,318,l),
(112,104,o),
(304,-24,o),
(504,-24,cs)
);
}
);
width = 1130;
},
{
anchors = (
{
name = bottom;
pos = (412,0);
},
{
name = top;
pos = (1000,1400);
}
);
layerId = "42555ED7-786B-4551-A9FC-B380F510FD49";
shapes = (
{
closed = 1;
nodes = (
(594,-24,o),
(804,66,o),
(872,450,cs),
(1038,1400,l),
(962,1400,l),
(796,446,ls),
(740,126,o),
(568,44,o),
(408,44,cs),
(240,44,o),
(176,136,o),
(144,246,c),
(78,214,l),
(114,84,o),
(218,-24,o),
(408,-24,cs)
);
}
);
width = 1024;
},
{
anchors = (
{
name = bottom;
pos = (558,0);
},
{
name = top;
pos = (1052,1400);
}
);
layerId = "DEEEE81F-2F80-4306-8755-EEA92C96C68A";
shapes = (
{
closed = 1;
nodes = (
(706,-24,o),
(968,50,o),
(1030,404,cs),
(1206,1400,l),
(898,1400,l),
(736,478,ls),
(714,354,o),
(646,272,o),
(538,272,cs),
(436,272,o),
(376,320,o),
(334,424,c),
(62,302,l),
(120,100,o),
(288,-24,o),
(552,-24,cs)
);
}
);
width = 1074;
},
{
anchors = (
{
name = bottom;
pos = (460,0);
},
{
name = top;
pos = (816,1400);
}
);
layerId = "07B4BFD6-AD6C-43B6-9499-C92B9E22D320";
shapes = (
{
closed = 1;
nodes = (
(656,-24,o),
(902,74,o),
(902,460,cs),
(902,1400,l),
(728,1400,l),
(728,454,ls),
(728,198,o),
(594,140,o),
(462,140,cs),
(318,140,o),
(254,194,o),
(200,302,c),
(56,228,l),
(126,66,o),
(258,-24,o),
(460,-24,cs)
);
}
);
width = 1092;
},
{
anchors = (
{
name = bottom;
pos = (472,0);
},
{
name = top;
pos = (1012,1400);
}
);
layerId = "77C27521-0479-4645-83A2-7244263DD4C5";
shapes = (
{
closed = 1;
nodes = (
(632,-24,o),
(858,30,o),
(928,428,cs),
(1100,1400,l),
(926,1400,l),
(758,450,ls),
(718,218,o),
(616,136,o),
(468,136,cs),
(346,136,o),
(286,208,o),
(252,298,c),
(104,234,l),
(150,86,o),
(282,-24,o),
(470,-24,cs)
);
}
);
width = 1038;
}
);
unicode = 74;
},
{
glyphname = K;
kernLeft = B;
kernRight = K;
lastChange = "2020-09-15 16:22:47 +0000";
layers = (
{
anchors = (
{
name = bottom;
pos = (650,0);
},
{
name = top;
pos = (620,1400);
}
);
layerId = "3BB16070-9AE0-46D6-9B05-19A363C2D547";
shapes = (
{
closed = 1;
nodes = (
(292,0,l),
(292,528,l),
(558,862,l),
(1028,0,l),
(1112,0,l),
(608,924,l),
(986,1400,l),
(900,1400,l),
(292,634,l),
(292,1400,l),
(220,1400,l),
(220,0,l)
);
}
);
width = 1238;
},
{
anchors = (
{
name = bottom;
pos = (754,0);
},
{
name = top;
pos = (742,1400);
}
);
layerId = "1D708A55-1947-4475-A0A3-21124B6DD42B";
shapes = (
{
closed = 1;
nodes = (
(462,0,l),
(462,288,l),
(730,624,l),
(1066,0,l),
(1436,0,l),
(944,890,l),
(1364,1400,l),
(984,1400,l),
(462,740,l),
(462,1400,l),
(146,1400,l),
(146,0,l)
);
}
);
width = 1480;
},
{
anchors = (
{
name = bottom;
pos = (606,0);
},
{
name = top;
pos = (756,1400);
}
);
layerId = "42555ED7-786B-4551-A9FC-B380F510FD49";
shapes = (
{
closed = 1;
nodes = (
(248,0,l),
(340,522,l),
(666,864,l),
(970,0,l),
(1046,0,l),
(720,920,l),
(1174,1400,l),
(1082,1400,l),
(360,638,l),
(494,1400,l),
(420,1400,l),
(174,0,l)
);
}
);
width = 1198;
},
{
anchors = (
{
name = bottom;
pos = (716,0);
},
{
name = top;
pos = (918,1400);
}
);
layerId = "DEEEE81F-2F80-4306-8755-EEA92C96C68A";
shapes = (
{
closed = 1;
nodes = (
(426,0,l),
(480,302,l),
(796,632,l),
(1012,0,l),
(1338,0,l),
(1024,868,l),
(1534,1400,l),
(1164,1400,l),
(562,774,l),
(672,1400,l),
(366,1400,l),
(120,0,l)
);
}
);
width = 1386;
},
{
anchors = (
{
name = bottom;
pos = (680,0);
},
{
name = top;
pos = (650,1400);
}
);
layerId = "07B4BFD6-AD6C-43B6-9499-C92B9E22D320";
shapes = (
{
closed = 1;
nodes = (
(370,0,l),
(370,478,l),
(608,770,l),
(1024,0,l),
(1226,0,l),
(726,916,l),
(1112,1400,l),
(916,1400,l),
(370,714,l),
(370,1400,l),
(196,1400,l),
(196,0,l)
);
}
);
width = 1320;
},
{
anchors = (
{
name = bottom;
pos = (668,0);
},
{
name = top;
pos = (836,1400);
}
);
layerId = "77C27521-0479-4645-83A2-7244263DD4C5";
shapes = (
{
closed = 1;
nodes = (
(356,0,l),
(438,464,l),
(722,764,l),
(986,0,l),
(1168,0,l),
(850,900,l),
(1324,1400,l),
(1118,1400,l),
(484,728,l),
(602,1400,l),
(428,1400,l),
(182,0,l)
);
}
);
width = 1264;
}
);
metricLeft = B;
unicode = 75;
},
{
glyphname = L;
kernLeft = B;
kernRight = L;
lastChange = "2020-09-15 16:22:47 +0000";
layers = (
{
anchors = (
{
name = bottom;
pos = (602,0);
},
{
name = center;
pos = (788,660);
},
{
name = top;
pos = (258,1400);
},
{
name = topright;
pos = (544,962);
}
);
layerId = "3BB16070-9AE0-46D6-9B05-19A363C2D547";
shapes = (
{
closed = 1;
nodes = (
(986,0,l),
(986,66,l),
(292,66,l),
(292,1400,l),
(220,1400,l),
(220,0,l)
);
}
);
width = 1066;
},
{
anchors = (
{
name = bottom;
pos = (630,0);
},
{
name = center;
pos = (874,698);
},
{
name = top;
pos = (300,1400);
},
{
name = topright;
pos = (544,962);
}
);
layerId = "1D708A55-1947-4475-A0A3-21124B6DD42B";
shapes = (
{
closed = 1;
nodes = (
(1132,0,l),
(1132,306,l),
(462,306,l),
(462,1400,l),
(146,1400,l),
(146,0,l)
);
}
);
width = 1142;
},
{
anchors = (
{
name = bottom;
pos = (548,0);
},
{
name = center;
pos = (846,700);
},
{
name = top;
pos = (458,1400);
},
{
name = topright;
pos = (604,962);
}
);
layerId = "42555ED7-786B-4551-A9FC-B380F510FD49";
shapes = (
{
closed = 1;
nodes = (
(924,0,l),
(936,66,l),
(260,66,l),
(494,1400,l),
(420,1400,l),
(174,0,l)
);
}
);
width = 1022;
},
{
anchors = (
{
name = bottom;
pos = (588,0);
},
{
name = center;
pos = (918,700);
},
{
name = top;
pos = (520,1400);
},
{
name = topright;
pos = (674,962);
}
);
layerId = "DEEEE81F-2F80-4306-8755-EEA92C96C68A";
shapes = (
{
closed = 1;
nodes = (
(1060,0,l),
(1112,288,l),
(476,288,l),
(672,1400,l),
(366,1400,l),
(120,0,l)
);
}
);
width = 1048;
},
{
anchors = (
{
name = bottom;
pos = (626,0);
},
{
name = center;
pos = (842,698);
},
{
name = top;
pos = (282,1400);
},
{
name = topright;
pos = (504,962);
}
);
layerId = "07B4BFD6-AD6C-43B6-9499-C92B9E22D320";
shapes = (
{
closed = 1;
nodes = (
(1058,0,l),
(1058,168,l),
(370,168,l),
(370,1400,l),
(196,1400,l),
(196,0,l)
);
}
);
width = 1118;
},
{
anchors = (
{
name = bottom;
pos = (596,0);
},
{
name = center;
pos = (928,700);
},
{
name = top;
pos = (516,1400);
},
{
name = topright;
pos = (690,962);
}
);
layerId = "77C27521-0479-4645-83A2-7244263DD4C5";
shapes = (
{
closed = 1;
nodes = (
(1014,0,l),
(1044,164,l),
(386,164,l),
(602,1400,l),
(428,1400,l),
(182,0,l)
);
}
);
width = 1072;
}
);
metricLeft = B;
unicode = 76;
},
{
glyphname = M;
kernLeft = B;
kernRight = H;
lastChange = "2020-09-15 16:22:47 +0000";
layers = (
{
anchors = (
{
name = bottom;
pos = (798,0);
},
{
name = top;
pos = (798,1400);
}
);
layerId = "3BB16070-9AE0-46D6-9B05-19A363C2D547";
shapes = (
{
closed = 1;
nodes = (
(1268,1104,ls),
(1280,1134,o),
(1292,1164,o),
(1304,1192,c),
(1304,1162,o),
(1304,1134,o),
(1304,1104,cs),
(1304,0,l),
(1376,0,l),
(1376,1400,l),
(1312,1400,l),
(840,264,ls),
(826,230,o),
(812,196,o),
(798,162,c),
(784,196,o),
(770,230,o),
(756,264,cs),
(284,1400,l),
(220,1400,l),
(220,0,l),
(292,0,l),
(292,1104,ls),
(292,1134,o),
(292,1162,o),
(292,1192,c),
(304,1164,o),
(316,1134,o),
(328,1104,cs),
(798,-24,l)
);
}
);
width = 1596;
},
{
anchors = (
{
name = bottom;
pos = (814,0);
},
{
name = top;
pos = (814,1400);
}
);
layerId = "1D708A55-1947-4475-A0A3-21124B6DD42B";
shapes = (
{
closed = 1;
nodes = (
(1154,690,ls),
(1156,694,o),
(1160,702,o),
(1164,710,c),
(1164,704,o),
(1164,694,o),
(1164,686,cs),
(1164,0,l),
(1480,0,l),
(1480,1400,l),
(1186,1400,l),
(854,704,ls),
(842,678,o),
(832,650,o),
(822,620,c),
(812,650,o),
(802,674,o),
(788,704,cs),
(468,1400,l),
(146,1400,l),
(146,0,l),
(462,0,l),
(462,684,ls),
(462,688,o),
(462,698,o),
(462,710,c),
(466,696,o),
(468,690,o),
(470,686,cs),
(814,-24,l)
);
}
);
width = 1626;
},
{
anchors = (
{
name = bottom;
pos = (744,0);
},
{
name = top;
pos = (984,1400);
}
);
layerId = "42555ED7-786B-4551-A9FC-B380F510FD49";
shapes = (
{
closed = 1;
nodes = (
(1358,1046,ls),
(1386,1094,o),
(1414,1142,o),
(1442,1192,c),
(1432,1142,o),
(1424,1094,o),
(1416,1046,cs),
(1232,0,l),
(1306,0,l),
(1552,1400,l),
(1482,1400,l),
(866,336,ls),
(834,282,o),
(800,224,o),
(768,164,c),
(756,222,o),
(742,284,o),
(730,336,cs),
(486,1400,l),
(420,1400,l),
(174,0,l),
(248,0,l),
(432,1046,ls),
(440,1090,o),
(452,1156,o),
(458,1196,c),
(470,1140,o),
(480,1094,o),
(492,1046,cs),
(740,-24,l)
);
}
);
width = 1552;
},
{
anchors = (
{
name = bottom;
pos = (770,0);
},
{
name = top;
pos = (1010,1400);
}
);
layerId = "DEEEE81F-2F80-4306-8755-EEA92C96C68A";
shapes = (
{
closed = 1;
nodes = (
(1192,658,ls),
(1214,694,o),
(1230,726,o),
(1256,778,c),
(1250,756,o),
(1236,692,o),
(1230,660,cs),
(1116,0,l),
(1420,0,l),
(1666,1400,l),
(1360,1400,l),
(924,716,ls),
(894,670,o),
(884,646,o),
(870,612,c),
(866,642,o),
(862,672,o),
(844,746,cs),
(678,1400,l),
(366,1400,l),
(120,0,l),
(422,0,l),
(538,662,ls),
(544,692,o),
(552,760,o),
(554,780,c),
(560,732,o),
(566,694,o),
(576,660,cs),
(768,-24,l)
);
}
);
width = 1538;
},
{
anchors = (
{
name = bottom;
pos = (804,0);
},
{
name = top;
pos = (802,1400);
}
);
layerId = "07B4BFD6-AD6C-43B6-9499-C92B9E22D320";
shapes = (
{
closed = 1;
nodes = (
(1180,856,ls),
(1200,904,o),
(1226,968,o),
(1242,1014,c),
(1240,978,o),
(1238,908,o),
(1238,860,cs),
(1238,0,l),
(1412,0,l),
(1412,1400,l),
(1246,1400,l),
(840,458,ls),
(826,426,o),
(814,394,o),
(804,364,c),
(792,396,o),
(780,428,o),
(768,458,cs),
(360,1400,l),
(196,1400,l),
(196,0,l),
(370,0,l),
(370,860,ls),
(370,908,o),
(368,976,o),
(364,1012,c),
(380,966,o),
(404,906,o),
(424,860,cs),
(804,-24,l)
);
}
);
width = 1608;
},
{
anchors = (
{
name = bottom;
pos = (762,0);
},
{
name = top;
pos = (1000,1400);
}
);
layerId = "77C27521-0479-4645-83A2-7244263DD4C5";
shapes = (
{
closed = 1;
nodes = (
(1318,908,ls),
(1330,926,o),
(1352,964,o),
(1364,990,c),
(1360,974,o),
(1350,924,o),
(1346,902,cs),
(1186,0,l),
(1360,0,l),
(1606,1400,l),
(1438,1400,l),
(874,472,ls),
(858,446,o),
(834,406,o),
(820,376,c),
(816,410,o),
(808,448,o),
(800,482,cs),
(596,1400,l),
(428,1400,l),
(182,0,l),
(356,0,l),
(512,898,ls),
(516,920,o),
(522,956,o),
(526,982,c),
(530,952,o),
(536,922,o),
(542,900,cs),
(754,-24,l)
);
}
);
width = 1540;
}
);
metricLeft = B;
metricRight = H;
unicode = 77;
},
{
glyphname = N;
kernLeft = B;
kernRight = H;
lastChange = "2020-09-15 16:22:47 +0000";
layers = (
{
anchors = (
{
name = bottom;
pos = (682,0);
},
{
name = bottomleft;
pos = (220,0);
},
{
name = top;
pos = (682,1400);
}
);
layerId = "3BB16070-9AE0-46D6-9B05-19A363C2D547";
shapes = (
{
closed = 1;
nodes = (
(292,0,l),
(292,1162,ls),
(292,1196,o),
(292,1230,o),
(292,1264,c),
(312,1230,o),
(334,1194,o),
(354,1162,cs),
(1072,0,l),
(1142,0,l),
(1142,1400,l),
(1070,1400,l),
(1070,238,ls),
(1070,204,o),
(1070,170,o),
(1070,136,c),
(1050,170,o),
(1028,206,o),
(1008,238,cs),
(290,1400,l),
(220,1400,l),
(220,0,l)
);
}
);
width = 1362;
},
{
anchors = (
{
name = bottom;
pos = (724,0);
},
{
name = bottomleft;
pos = (146,0);
},
{
name = top;
pos = (744,1400);
}
);
layerId = "1D708A55-1947-4475-A0A3-21124B6DD42B";
shapes = (
{
closed = 1;
nodes = (
(458,0,l),
(458,716,ls),
(458,742,o),
(458,788,o),
(452,824,c),
(466,792,o),
(498,734,o),
(512,716,cs),
(1030,0,l),
(1304,0,l),
(1304,1400,l),
(990,1400,l),
(990,692,ls),
(990,672,o),
(992,612,o),
(996,586,c),
(984,616,o),
(950,672,o),
(938,690,cs),
(432,1400,l),
(146,1400,l),
(146,0,l)
);
}
);
width = 1450;
},
{
anchors = (
{
name = bottom;
pos = (626,0);
},
{
name = bottomleft;
pos = (174,0);
},
{
name = top;
pos = (872,1400);
}
);
layerId = "42555ED7-786B-4551-A9FC-B380F510FD49";
shapes = (
{
closed = 1;
nodes = (
(248,0,l),
(432,1046,ls),
(444,1112,o),
(458,1192,o),
(470,1266,c),
(500,1190,o),
(532,1114,o),
(562,1046,cs),
(1010,0,l),
(1080,0,l),
(1326,1400,l),
(1252,1400,l),
(1068,350,ls),
(1056,286,o),
(1042,206,o),
(1030,134,c),
(1000,206,o),
(968,282,o),
(938,350,cs),
(490,1400,l),
(420,1400,l),
(174,0,l)
);
}
);
width = 1326;
},
{
anchors = (
{
name = bottom;
pos = (682,0);
},
{
name = bottomleft;
pos = (120,0);
},
{
name = top;
pos = (928,1400);
}
);
layerId = "DEEEE81F-2F80-4306-8755-EEA92C96C68A";
shapes = (
{
closed = 1;
nodes = (
(420,0,l),
(552,752,ls),
(558,784,o),
(564,832,o),
(564,868,c),
(576,824,o),
(592,780,o),
(604,756,cs),
(980,0,l),
(1244,0,l),
(1490,1400,l),
(1190,1400,l),
(1064,684,ls),
(1058,650,o),
(1052,598,o),
(1050,550,c),
(1040,596,o),
(1016,648,o),
(1002,678,cs),
(650,1400,l),
(366,1400,l),
(120,0,l)
);
}
);
width = 1362;
},
{
anchors = (
{
name = bottom;
pos = (710,0);
},
{
name = bottomleft;
pos = (196,0);
},
{
name = top;
pos = (718,1400);
}
);
layerId = "07B4BFD6-AD6C-43B6-9499-C92B9E22D320";
shapes = (
{
closed = 1;
nodes = (
(370,0,l),
(370,1000,ls),
(370,1032,o),
(368,1068,o),
(366,1098,c),
(384,1064,o),
(404,1030,o),
(422,1000,cs),
(1052,0,l),
(1220,0,l),
(1220,1400,l),
(1046,1400,l),
(1046,402,ls),
(1046,370,o),
(1048,334,o),
(1050,300,c),
(1030,338,o),
(1012,370,o),
(992,404,cs),
(372,1400,l),
(196,1400,l),
(196,0,l)
);
}
);
width = 1416;
},
{
anchors = (
{
name = bottom;
pos = (678,0);
},
{
name = bottomleft;
pos = (182,0);
},
{
name = top;
pos = (926,1400);
}
);
layerId = "77C27521-0479-4645-83A2-7244263DD4C5";
shapes = (
{
closed = 1;
nodes = (
(354,0,l),
(522,950,ls),
(528,980,o),
(542,1064,o),
(544,1086,c),
(552,1064,o),
(586,980,o),
(598,952,cs),
(1008,0,l),
(1174,0,l),
(1420,1400,l),
(1248,1400,l),
(1070,388,ls),
(1066,360,o),
(1060,322,o),
(1056,302,c),
(1050,322,o),
(1032,368,o),
(1022,390,cs),
(590,1400,l),
(428,1400,l),
(182,0,l)
);
}
);
width = 1354;
}
);
metricLeft = B;
metricRight = H;
unicode = 78;
},
{
glyphname = O;
kernLeft = C;
kernRight = O;
lastChange = "2021-03-01 22:48:59 +0000";
layers = (
{
anchors = (
{
name = bottom;
pos = (716,0);
},
{
name = center;
pos = (716,700);
},
{
name = ogonek;
pos = (930,20);
},
{
name = right;
pos = (1186,928);
},
{
name = top;
pos = (716,1400);
},
{
name = topleft;
pos = (30,1400);
},
{
name = topright;
pos = (1402,1400);
}
);
layerId = "3BB16070-9AE0-46D6-9B05-19A363C2D547";
shapes = (
{
closed = 1;
nodes = (
(1116,-24,o),
(1262,354,o),
(1262,700,cs),
(1262,1046,o),
(1116,1424,o),
(716,1424,cs),
(316,1424,o),
(170,1046,o),
(170,700,cs),
(170,354,o),
(316,-24,o),
(716,-24,cs)
);
},
{
closed = 1;
nodes = (
(368,48,o),
(248,368,o),
(248,700,cs),
(248,1004,o),
(368,1352,o),
(716,1352,cs),
(1064,1352,o),
(1184,1032,o),
(1184,700,cs),
(1184,396,o),
(1064,48,o),
(716,48,cs)
);
}
);
width = 1432;
},
{
anchors = (
{
name = bottom;
pos = (718,0);
},
{
name = center;
pos = (718,700);
},
{
name = ogonek;
pos = (960,20);
},
{
name = right;
pos = (1204,928);
},
{
name = top;
pos = (718,1400);
},
{
name = topleft;
pos = (6,1400);
},
{
name = topright;
pos = (1428,1400);
}
);
layerId = "1D708A55-1947-4475-A0A3-21124B6DD42B";
shapes = (
{
closed = 1;
nodes = (
(1170,-24,o),
(1338,354,o),
(1338,700,cs),
(1338,1046,o),
(1170,1424,o),
(718,1424,cs),
(266,1424,o),
(96,1046,o),
(96,700,cs),
(96,354,o),
(266,-24,o),
(718,-24,cs)
);
},
{
closed = 1;
nodes = (
(498,282,o),
(424,512,o),
(424,700,cs),
(424,882,o),
(494,1120,o),
(718,1120,cs),
(940,1120,o),
(1010,892,o),
(1010,700,cs),
(1010,518,o),
(932,282,o),
(718,282,cs)
);
}
);
width = 1434;
},
{
anchors = (
{
name = bottom;
pos = (669,0);
},
{
name = center;
pos = (783,700);
},
{
name = ogonek;
pos = (891,20);
},
{
name = right;
pos = (1263,928);
},
{
name = top;
pos = (901,1400);
},
{
name = topleft;
pos = (183,1400);
},
{
name = topright;
pos = (1519,1400);
}
);
layerId = "42555ED7-786B-4551-A9FC-B380F510FD49";
shapes = (
{
closed = 1;
nodes = (
(1139,-24,o),
(1333,482,o),
(1333,870,cs),
(1333,1158,o),
(1223,1424,o),
(905,1424,cs),
(433,1424,o),
(231,922,o),
(231,540,cs),
(231,258,o),
(353,-24,o),
(667,-24,cs)
);
},
{
closed = 1;
nodes = (
(405,48,o),
(307,274,o),
(307,532,cs),
(307,882,o),
(479,1352,o),
(895,1352,cs),
(1163,1352,o),
(1257,1124,o),
(1257,872,cs),
(1257,522,o),
(1093,48,o),
(677,48,cs)
);
}
);
width = 1393;
},
{
anchors = (
{
name = bottom;
pos = (752,0);
},
{
name = center;
pos = (820,700);
},
{
name = ogonek;
pos = (994,20);
},
{
name = right;
pos = (1280,928);
},
{
name = top;
pos = (890,1400);
},
{
name = topleft;
pos = (190,1400);
},
{
name = topright;
pos = (1526,1400);
}
);
layerId = "DEEEE81F-2F80-4306-8755-EEA92C96C68A";
shapes = (
{
closed = 1;
nodes = (
(1160,-24,o),
(1432,330,o),
(1432,800,cs),
(1432,1122,o),
(1260,1424,o),
(894,1424,cs),
(466,1424,o),
(210,1062,o),
(210,614,cs),
(210,290,o),
(360,-24,o),
(766,-24,cs)
);
},
{
closed = 1;
nodes = (
(576,268,o),
(510,450,o),
(510,614,cs),
(510,878,o),
(652,1132,o),
(872,1132,cs),
(1062,1132,o),
(1132,958,o),
(1132,800,cs),
(1132,488,o),
(978,268,o),
(764,268,cs)
);
}
);
width = 1392;
},
{
anchors = (
{
name = bottom;
pos = (730,0);
},
{
name = center;
pos = (730,700);
},
{
name = ogonek;
pos = (966,20);
},
{
name = right;
pos = (1214,928);
},
{
name = top;
pos = (730,1400);
},
{
name = topleft;
pos = (30,1400);
},
{
name = topright;
pos = (1430,1400);
}
);
layerId = "07B4BFD6-AD6C-43B6-9499-C92B9E22D320";
shapes = (
{
closed = 1;
nodes = (
(1172,-24,o),
(1324,354,o),
(1324,700,cs),
(1324,1046,o),
(1172,1424,o),
(730,1424,cs),
(290,1424,o),
(136,1046,o),
(136,700,cs),
(136,354,o),
(290,-24,o),
(730,-24,cs)
);
},
{
closed = 1;
nodes = (
(424,140,o),
(316,426,o),
(316,700,cs),
(316,954,o),
(424,1262,o),
(730,1262,cs),
(1038,1262,o),
(1144,974,o),
(1144,700,cs),
(1144,448,o),
(1038,140,o),
(730,140,cs)
);
}
);
width = 1460;
},
{
anchors = (
{
name = bottom;
pos = (708,0);
},
{
name = center;
pos = (812,700);
},
{
name = ogonek;
pos = (940,20);
},
{
name = right;
pos = (1288,928);
},
{
name = top;
pos = (914,1400);
},
{
name = topleft;
pos = (182,1400);
},
{
name = topright;
pos = (1518,1400);
}
);
layerId = "77C27521-0479-4645-83A2-7244263DD4C5";
shapes = (
{
closed = 1;
nodes = (
(1168,-24,o),
(1396,446,o),
(1396,858,cs),
(1396,1140,o),
(1260,1424,o),
(918,1424,cs),
(454,1424,o),
(230,954,o),
(230,546,cs),
(230,250,o),
(364,-24,o),
(712,-24,cs)
);
},
{
closed = 1;
nodes = (
(488,136,o),
(402,334,o),
(402,546,cs),
(402,872,o),
(568,1264,o),
(914,1264,cs),
(1138,1264,o),
(1224,1058,o),
(1224,858,cs),
(1224,522,o),
(1054,136,o),
(712,136,cs)
);
}
);
width = 1380;
}
);
metricLeft = C;
unicode = 79;
},
{
glyphname = P;
kernLeft = B;
kernRight = P;
lastChange = "2021-03-01 22:47:40 +0000";
layers = (
{
anchors = (
{
name = bottom;
pos = (630,0);
},
{
name = top;
pos = (630,1400);
},
{
name = topleft;
pos = (220,1400);
}
);
layerId = "3BB16070-9AE0-46D6-9B05-19A363C2D547";
shapes = (
{
closed = 1;
nodes = (
(292,0,l),
(292,578,l),
(658,578,ls),
(980,578,o),
(1098,800,o),
(1098,988,cs),
(1098,1192,o),
(992,1400,o),
(658,1400,cs),
(220,1400,l),
(220,0,l)
);
},
{
closed = 1;
nodes = (
(292,1328,l),
(658,1328,ls),
(944,1328,o),
(1026,1156,o),
(1026,988,cs),
(1026,834,o),
(934,650,o),
(658,650,cs),
(292,650,l)
);
}
);
width = 1194;
},
{
anchors = (
{
name = bottom;
pos = (676,0);
},
{
name = top;
pos = (676,1400);
},
{
name = topleft;
pos = (146,1400);
}
);
layerId = "1D708A55-1947-4475-A0A3-21124B6DD42B";
shapes = (
{
closed = 1;
nodes = (
(462,0,l),
(462,496,l),
(774,496,ls),
(1124,496,o),
(1264,738,o),
(1264,948,cs),
(1264,1172,o),
(1136,1400,o),
(774,1400,cs),
(146,1400,l),
(146,0,l)
);
},
{
closed = 1;
nodes = (
(462,1102,l),
(786,1102,ls),
(900,1102,o),
(936,1014,o),
(936,948,cs),
(936,874,o),
(894,794,o),
(786,794,cs),
(462,794,l)
);
}
);
width = 1288;
},
{
anchors = (
{
name = bottom;
pos = (572,0);
},
{
name = top;
pos = (818,1400);
},
{
name = topleft;
pos = (420,1400);
}
);
layerId = "42555ED7-786B-4551-A9FC-B380F510FD49";
shapes = (
{
closed = 1;
nodes = (
(248,0,l),
(350,578,l),
(694,578,ls),
(1056,578,o),
(1214,840,o),
(1214,1046,cs),
(1214,1230,o),
(1120,1400,o),
(822,1400,cs),
(420,1400,l),
(174,0,l)
);
},
{
closed = 1;
nodes = (
(480,1328,l),
(816,1328,ls),
(1062,1328,o),
(1134,1198,o),
(1134,1046,cs),
(1134,866,o),
(1000,650,o),
(698,650,cs),
(364,650,l)
);
}
);
width = 1158;
},
{
anchors = (
{
name = bottom;
pos = (644,0);
},
{
name = top;
pos = (890,1400);
},
{
name = topleft;
pos = (366,1400);
}
);
layerId = "DEEEE81F-2F80-4306-8755-EEA92C96C68A";
shapes = (
{
closed = 1;
nodes = (
(426,0,l),
(514,500,l),
(850,500,ls),
(1178,500,o),
(1376,722,o),
(1376,986,cs),
(1376,1180,o),
(1272,1400,o),
(976,1400,cs),
(366,1400,l),
(120,0,l)
);
},
{
closed = 1;
nodes = (
(624,1110,l),
(938,1110,ls),
(1036,1110,o),
(1062,1042,o),
(1062,956,cs),
(1062,888,o),
(1010,790,o),
(880,790,cs),
(566,790,l)
);
}
);
width = 1242;
},
{
anchors = (
{
name = bottom;
pos = (662,0);
},
{
name = top;
pos = (662,1400);
},
{
name = topleft;
pos = (196,1400);
}
);
layerId = "07B4BFD6-AD6C-43B6-9499-C92B9E22D320";
shapes = (
{
closed = 1;
nodes = (
(370,0,l),
(370,562,l),
(732,562,ls),
(1060,562,o),
(1184,788,o),
(1184,980,cs),
(1184,1188,o),
(1072,1400,o),
(732,1400,cs),
(196,1400,l),
(196,0,l)
);
},
{
closed = 1;
nodes = (
(370,1238,l),
(744,1238,ls),
(954,1238,o),
(1010,1090,o),
(1010,980,cs),
(1010,860,o),
(942,724,o),
(744,724,cs),
(370,724,l)
);
}
);
width = 1260;
},
{
anchors = (
{
name = bottom;
pos = (630,0);
},
{
name = top;
pos = (876,1400);
},
{
name = topleft;
pos = (428,1400);
}
);
layerId = "77C27521-0479-4645-83A2-7244263DD4C5";
shapes = (
{
closed = 1;
nodes = (
(356,0,l),
(456,566,l),
(816,566,ls),
(1166,566,o),
(1314,812,o),
(1314,1046,cs),
(1314,1214,o),
(1214,1400,o),
(938,1400,cs),
(428,1400,l),
(182,0,l)
);
},
{
closed = 1;
nodes = (
(574,1248,l),
(928,1248,ls),
(1098,1248,o),
(1144,1126,o),
(1144,1032,cs),
(1144,892,o),
(1060,718,o),
(836,718,cs),
(482,718,l)
);
}
);
width = 1202;
}
);
metricLeft = B;
unicode = 80;
},
{
glyphname = Q;
kernLeft = O;
kernRight = O;
lastChange = "2020-09-15 16:22:47 +0000";
layers = (
{
anchors = (
{
name = bottom;
pos = (716,0);
},
{
name = top;
pos = (716,1400);
}
);
layerId = "3BB16070-9AE0-46D6-9B05-19A363C2D547";
shapes = (
{
closed = 1;
nodes = (
(1182,-76,l),
(1058,108,l),
(1204,248,o),
(1262,480,o),
(1262,700,cs),
(1262,1046,o),
(1116,1424,o),
(716,1424,cs),
(316,1424,o),
(170,1046,o),
(170,700,cs),
(170,354,o),
(316,-24,o),
(716,-24,cs),
(834,-24,o),
(930,10,o),
(1008,66,c),
(1128,-114,l)
);
},
{
closed = 1;
nodes = (
(368,48,o),
(248,368,o),
(248,700,cs),
(248,1004,o),
(368,1352,o),
(716,1352,cs),
(1064,1352,o),
(1184,1032,o),
(1184,700,cs),
(1184,508,o),
(1138,300,o),
(1016,172,c),
(898,348,l),
(844,310,l),
(966,128,l),
(900,78,o),
(816,48,o),
(716,48,cs)
);
}
);
width = 1432;
},
{
anchors = (
{
name = bottom;
pos = (720,0);
},
{
name = top;
pos = (720,1400);
}
);
layerId = "1D708A55-1947-4475-A0A3-21124B6DD42B";
shapes = (
{
closed = 1;
nodes = (
(1254,-16,l),
(1146,142,l),
(1282,288,o),
(1340,494,o),
(1340,700,cs),
(1340,1046,o),
(1172,1424,o),
(720,1424,cs),
(266,1424,o),
(96,1046,o),
(96,700,cs),
(96,354,o),
(266,-24,o),
(720,-24,cs),
(792,-24,o),
(852,-14,o),
(910,0,c),
(1024,-166,l)
);
},
{
closed = 1;
nodes = (
(498,282,o),
(424,512,o),
(424,700,cs),
(424,882,o),
(494,1120,o),
(720,1120,cs),
(942,1120,o),
(1012,892,o),
(1012,700,cs),
(1012,616,o),
(996,504,o),
(956,430,c),
(844,598,l),
(610,448,l),
(724,282,l),
(722,282,o),
(720,282,o),
(718,282,cs)
);
}
);
width = 1436;
},
{
anchors = (
{
name = bottom;
pos = (668,0);
},
{
name = top;
pos = (900,1400);
}
);
layerId = "42555ED7-786B-4551-A9FC-B380F510FD49";
shapes = (
{
closed = 1;
nodes = (
(1114,-76,l),
(1026,102,l),
(1238,278,o),
(1332,602,o),
(1332,870,cs),
(1332,1158,o),
(1222,1424,o),
(904,1424,cs),
(432,1424,o),
(230,922,o),
(230,540,cs),
(230,258,o),
(352,-24,o),
(666,-24,cs),
(782,-24,o),
(884,6,o),
(968,60,c),
(1054,-114,l)
);
},
{
closed = 1;
nodes = (
(404,48,o),
(308,274,o),
(308,532,cs),
(308,882,o),
(478,1352,o),
(894,1352,cs),
(1162,1352,o),
(1256,1124,o),
(1256,872,cs),
(1256,630,o),
(1178,330,o),
(994,168,c),
(906,348,l),
(844,310,l),
(936,124,l),
(862,76,o),
(776,48,o),
(676,48,cs)
);
}
);
width = 1392;
},
{
anchors = (
{
name = bottom;
pos = (746,0);
},
{
name = top;
pos = (890,1400);
}
);
layerId = "DEEEE81F-2F80-4306-8755-EEA92C96C68A";
shapes = (
{
closed = 1;
nodes = (
(1218,-46,l),
(1144,110,l),
(1322,254,o),
(1432,502,o),
(1432,800,cs),
(1432,1122,o),
(1260,1424,o),
(894,1424,cs),
(466,1424,o),
(210,1062,o),
(210,614,cs),
(210,290,o),
(360,-24,o),
(766,-24,cs),
(806,-24,o),
(848,-22,o),
(892,-14,c),
(968,-176,l)
);
},
{
closed = 1;
nodes = (
(596,270,o),
(510,424,o),
(510,614,cs),
(510,878,o),
(652,1132,o),
(872,1132,cs),
(1062,1132,o),
(1132,958,o),
(1132,800,cs),
(1132,628,o),
(1086,490,o),
(1012,394,c),
(938,558,l),
(682,432,l),
(756,270,l),
(752,270,o),
(750,270,o),
(748,270,cs)
);
}
);
width = 1392;
},
{
anchors = (
{
name = bottom;
pos = (732,0);
},
{
name = top;
pos = (732,1400);
}
);
layerId = "07B4BFD6-AD6C-43B6-9499-C92B9E22D320";
shapes = (
{
closed = 1;
nodes = (
(1218,-42,l),
(1112,114,l),
(1266,256,o),
(1324,484,o),
(1324,700,cs),
(1324,1046,o),
(1172,1424,o),
(730,1424,cs),
(290,1424,o),
(136,1046,o),
(136,700,cs),
(136,354,o),
(290,-24,o),
(730,-24,cs),
(828,-24,o),
(910,-6,o),
(982,28,c),
(1090,-132,l)
);
},
{
closed = 1;
nodes = (
(424,140,o),
(316,426,o),
(316,700,cs),
(316,954,o),
(424,1262,o),
(730,1262,cs),
(1038,1262,o),
(1144,974,o),
(1144,700,cs),
(1144,550,o),
(1106,380,o),
(1012,268,c),
(916,412,l),
(784,322,l),
(884,172,l),
(840,150,o),
(788,140,o),
(730,140,cs)
);
}
);
width = 1460;
},
{
anchors = (
{
name = bottom;
pos = (702,0);
},
{
name = top;
pos = (914,1400);
}
);
layerId = "77C27521-0479-4645-83A2-7244263DD4C5";
shapes = (
{
closed = 1;
nodes = (
(1162,-70,l),
(1080,104,l),
(1290,270,o),
(1396,578,o),
(1396,858,cs),
(1396,1140,o),
(1260,1424,o),
(918,1424,cs),
(454,1424,o),
(230,954,o),
(230,546,cs),
(230,250,o),
(364,-24,o),
(712,-24,cs),
(798,-24,o),
(876,-6,o),
(946,26,c),
(1024,-140,l)
);
},
{
closed = 1;
nodes = (
(488,136,o),
(402,334,o),
(402,546,cs),
(402,872,o),
(568,1264,o),
(914,1264,cs),
(1138,1264,o),
(1224,1058,o),
(1224,858,cs),
(1224,640,o),
(1152,398,o),
(1008,258,c),
(942,400,l),
(802,330,l),
(876,174,l),
(826,150,o),
(772,136,o),
(712,136,cs)
);
}
);
width = 1380;
}
);
unicode = 81;
},
{
glyphname = R;
kernLeft = B;
kernRight = R;
lastChange = "2020-12-29 18:11:51 +0000";
layers = (
{
anchors = (
{
name = bottom;
pos = (620,0);
},
{
name = top;
pos = (604,1400);
}
);
layerId = "3BB16070-9AE0-46D6-9B05-19A363C2D547";
shapes = (
{
closed = 1;
nodes = (
(292,0,l),
(292,658,l),
(660,658,l),
(978,0,l),
(1058,0,l),
(736,658,l),
(992,678,o),
(1102,848,o),
(1102,1034,cs),
(1102,1214,o),
(1004,1400,o),
(700,1400,cs),
(220,1400,l),
(220,0,l)
);
},
{
closed = 1;
nodes = (
(292,1334,l),
(700,1334,ls),
(960,1334,o),
(1030,1164,o),
(1030,1034,cs),
(1030,886,o),
(950,724,o),
(700,724,cs),
(292,724,l)
);
}
);
width = 1272;
},
{
anchors = (
{
name = bottom;
pos = (708,0);
},
{
name = top;
pos = (694,1400);
}
);
layerId = "1D708A55-1947-4475-A0A3-21124B6DD42B";
shapes = (
{
closed = 1;
nodes = (
(462,0,l),
(462,484,l),
(728,484,l),
(978,0,l),
(1332,0,l),
(1072,534,l),
(1230,604,o),
(1320,790,o),
(1320,944,cs),
(1320,1190,o),
(1198,1400,o),
(840,1400,cs),
(146,1400,l),
(146,0,l)
);
},
{
closed = 1;
nodes = (
(462,1102,l),
(844,1102,ls),
(958,1102,o),
(992,1024,o),
(992,944,cs),
(992,858,o),
(956,782,o),
(844,782,cs),
(462,782,l)
);
}
);
width = 1412;
},
{
anchors = (
{
name = bottom;
pos = (580,0);
},
{
name = top;
pos = (800,1400);
}
);
layerId = "42555ED7-786B-4551-A9FC-B380F510FD49";
shapes = (
{
closed = 1;
nodes = (
(248,0,l),
(364,658,l),
(708,658,l),
(914,0,l),
(994,0,l),
(788,662,l),
(1036,684,o),
(1224,832,o),
(1224,1074,cs),
(1224,1230,o),
(1130,1400,o),
(870,1400,cs),
(420,1400,l),
(174,0,l)
);
},
{
closed = 1;
nodes = (
(484,1334,l),
(870,1334,ls),
(1086,1334,o),
(1146,1192,o),
(1146,1074,cs),
(1146,824,o),
(934,724,o),
(710,724,cs),
(376,724,l)
);
}
);
width = 1248;
},
{
anchors = (
{
name = bottom;
pos = (652,0);
},
{
name = top;
pos = (874,1400);
}
);
background = {
shapes = (
{
closed = 1;
nodes = (
(426,0,l),
(514,496,l),
(782,496,l),
(892,0,l),
(1224,0,l),
(1104,516,l),
(1370,592,o),
(1430,822,o),
(1430,968,cs),
(1430,1184,o),
(1326,1400,o),
(1026,1400,cs),
(366,1400,l),
(120,0,l)
);
},
{
closed = 1;
nodes = (
(620,1112,l),
(982,1112,ls),
(1072,1112,o),
(1116,1048,o),
(1116,956,cs),
(1116,890,o),
(1090,784,o),
(928,784,cs),
(564,784,l)
);
}
);
};
layerId = "DEEEE81F-2F80-4306-8755-EEA92C96C68A";
shapes = (
{
closed = 1;
nodes = (
(426,0,l),
(514,496,l),
(782,496,l),
(892,0,l),
(1224,0,l),
(1104,516,l),
(1366,594,o),
(1430,820,o),
(1430,965,cs),
(1430,1240,o),
(1252,1400,o),
(936,1400,cs),
(366,1400,l),
(120,0,l)
);
},
{
closed = 1;
nodes = (
(620,1112,l),
(917,1112,ls),
(1051,1112,o),
(1116,1052,o),
(1116,958,cs),
(1116,890,o),
(1080,784,o),
(918,784,cs),
(564,784,l)
);
}
);
width = 1334;
},
{
anchors = (
{
name = bottom;
pos = (672,0);
},
{
name = top;
pos = (642,1400);
}
);
layerId = "07B4BFD6-AD6C-43B6-9499-C92B9E22D320";
shapes = (
{
closed = 1;
nodes = (
(370,0,l),
(370,600,l),
(680,600,l),
(968,0,l),
(1164,0,l),
(864,612,l),
(1098,660,o),
(1190,836,o),
(1190,1002,cs),
(1190,1200,o),
(1084,1400,o),
(748,1400,cs),
(196,1400,l),
(196,0,l)
);
},
{
closed = 1;
nodes = (
(370,1238,l),
(752,1238,ls),
(958,1238,o),
(1014,1102,o),
(1014,998,cs),
(1014,882,o),
(948,762,o),
(752,762,cs),
(370,762,l)
);
}
);
width = 1330;
},
{
anchors = (
{
name = bottom;
pos = (640,0);
},
{
name = top;
pos = (846,1400);
}
);
layerId = "77C27521-0479-4645-83A2-7244263DD4C5";
shapes = (
{
closed = 1;
nodes = (
(356,0,l),
(462,604,l),
(754,604,l),
(950,0,l),
(1132,0,l),
(930,612,l),
(1206,652,o),
(1316,850,o),
(1316,1034,cs),
(1316,1200,o),
(1220,1400,o),
(912,1400,cs),
(428,1400,l),
(182,0,l)
);
},
{
closed = 1;
nodes = (
(574,1242,l),
(901,1242,ls),
(1085,1242,o),
(1146,1132,o),
(1146,1028,cs),
(1146,910,o),
(1080,762,o),
(838,762,cs),
(490,762,l)
);
}
);
width = 1272;
}
);
metricLeft = B;
unicode = 82;
},
{
glyphname = S;
kernLeft = S;
kernRight = S;
lastChange = "2021-02-02 23:04:05 +0000";
layers = (
{
anchors = (
{
name = bottom;
pos = (590,0);
},
{
name = top;
pos = (576,1400);
}
);
layerId = "3BB16070-9AE0-46D6-9B05-19A363C2D547";
shapes = (
{
closed = 1;
nodes = (
(828,-24,o),
(998,110,o),
(998,346,cs),
(998,602,o),
(792,716,o),
(616,788,cs),
(444,858,o),
(272,934,o),
(272,1114,cs),
(272,1262,o),
(382,1354,o),
(568,1354,cs),
(718,1354,o),
(818,1288,o),
(866,1172,c),
(938,1194,l),
(892,1334,o),
(748,1424,o),
(574,1424,cs),
(330,1424,o),
(196,1292,o),
(196,1118,cs),
(196,886,o),
(398,790,o),
(584,718,cs),
(760,650,o),
(922,538,o),
(922,348,cs),
(922,150,o),
(790,46,o),
(592,46,cs),
(426,46,o),
(292,146,o),
(226,294,c),
(150,270,l),
(216,112,o),
(376,-24,o),
(590,-24,cs)
);
}
);
width = 1158;
},
{
anchors = (
{
name = bottom;
pos = (634,0);
},
{
name = top;
pos = (620,1400);
}
);
layerId = "1D708A55-1947-4475-A0A3-21124B6DD42B";
shapes = (
{
closed = 1;
nodes = (
(930,-24,o),
(1162,134,o),
(1162,408,cs),
(1162,710,o),
(908,798,o),
(670,876,cs),
(530,922,o),
(438,954,o),
(438,1018,cs),
(438,1088,o),
(496,1126,o),
(602,1126,cs),
(728,1126,o),
(790,1060,o),
(830,974,c),
(1110,1066,l),
(1056,1268,o),
(878,1424,o),
(618,1424,cs),
(304,1424,o),
(124,1242,o),
(124,1024,cs),
(124,728,o),
(376,650,o),
(588,582,cs),
(744,532,o),
(848,498,o),
(848,410,cs),
(848,320,o),
(766,274,o),
(642,274,cs),
(518,274,o),
(410,368,o),
(348,500,c),
(66,394,l),
(152,132,o),
(360,-24,o),
(634,-24,cs)
);
}
);
width = 1246;
},
{
anchors = (
{
name = bottom;
pos = (560,0);
},
{
name = top;
pos = (760,1400);
}
);
layerId = "42555ED7-786B-4551-A9FC-B380F510FD49";
shapes = (
{
closed = 1;
nodes = (
(816,-24,o),
(1016,138,o),
(1016,408,cs),
(1016,632,o),
(846,716,o),
(688,796,cs),
(554,864,o),
(428,930,o),
(428,1076,cs),
(428,1244,o),
(556,1354,o),
(762,1354,cs),
(908,1354,o),
(994,1288,o),
(1020,1172,c),
(1094,1192,l),
(1072,1332,o),
(944,1424,o),
(764,1424,cs),
(512,1424,o),
(350,1268,o),
(350,1074,cs),
(350,884,o),
(498,808,o),
(644,732,cs),
(792,656,o),
(938,580,o),
(938,394,cs),
(938,172,o),
(768,46,o),
(566,46,cs),
(396,46,o),
(282,146,o),
(242,294,c),
(168,270,l),
(206,112,o),
(342,-24,o),
(558,-24,cs)
);
}
);
width = 1140;
},
{
anchors = (
{
name = bottom;
pos = (628,0);
},
{
name = top;
pos = (774,1400);
}
);
layerId = "DEEEE81F-2F80-4306-8755-EEA92C96C68A";
shapes = (
{
closed = 1;
nodes = (
(962,-24,o),
(1180,162,o),
(1180,426,cs),
(1180,712,o),
(952,805,o),
(778,876,cs),
(670,920,o),
(582,956,o),
(582,1026,cs),
(582,1088,o),
(642,1144,o),
(758,1144,cs),
(870,1144,o),
(938,1072,o),
(950,986,c),
(1228,1074,l),
(1206,1238,o),
(1084,1424,o),
(778,1424,cs),
(460,1424,o),
(274,1244,o),
(274,1010,cs),
(274,736,o),
(476,652,o),
(642,582,cs),
(760,532,o),
(858,490,o),
(858,396,cs),
(858,316,o),
(774,270,o),
(668,270,cs),
(520,270,o),
(456,360,o),
(416,488,c),
(136,386,l),
(198,152,o),
(354,-24,o),
(624,-24,cs)
);
}
);
width = 1178;
},
{
anchors = (
{
name = bottom;
pos = (604,0);
},
{
name = top;
pos = (588,1400);
}
);
layerId = "07B4BFD6-AD6C-43B6-9499-C92B9E22D320";
shapes = (
{
closed = 1;
nodes = (
(868,-24,o),
(1064,122,o),
(1064,380,cs),
(1064,656,o),
(836,758,o),
(640,832,cs),
(482,892,o),
(338,948,o),
(338,1078,cs),
(338,1192,o),
(428,1262,o),
(576,1262,cs),
(714,1262,o),
(804,1198,o),
(838,1120,c),
(998,1174,l),
(956,1318,o),
(810,1424,o),
(588,1424,cs),
(316,1424,o),
(158,1266,o),
(158,1078,cs),
(158,834,o),
(372,744,o),
(568,672,cs),
(732,612,o),
(884,538,o),
(884,376,cs),
(884,222,o),
(776,140,o),
(608,140,cs),
(454,140,o),
(336,224,o),
(280,348,c),
(116,288,l),
(178,108,o),
(360,-24,o),
(604,-24,cs)
);
}
);
width = 1198;
},
{
anchors = (
{
name = bottom;
pos = (600,0);
},
{
name = top;
pos = (772,1400);
}
);
layerId = "77C27521-0479-4645-83A2-7244263DD4C5";
shapes = (
{
closed = 1;
nodes = (
(880,-24,o),
(1090,132,o),
(1090,414,cs),
(1090,666,o),
(906,754,o),
(744,832,cs),
(618,892,o),
(508,946,o),
(508,1062,cs),
(508,1180,o),
(604,1268,o),
(764,1268,cs),
(898,1268,o),
(966,1202,o),
(1000,1122,c),
(1154,1182,l),
(1116,1306,o),
(992,1424,o),
(776,1424,cs),
(506,1424,o),
(334,1264,o),
(334,1050,cs),
(334,836,o),
(498,754,o),
(652,678,cs),
(786,612,o),
(912,546,o),
(912,400,cs),
(912,228,o),
(796,136,o),
(614,136,cs),
(470,136,o),
(378,212,o),
(330,346,c),
(172,286,l),
(220,112,o),
(368,-24,o),
(596,-24,cs)
);
}
);
width = 1146;
}
);
unicode = 83;
},
{
glyphname = T;
kernLeft = T;
kernRight = T;
lastChange = "2021-04-27 21:39:15 +0000";
layers = (
{
anchors = (
{
name = bottom;
pos = (558,0);
},
{
name = center;
pos = (558,632);
},
{
name = top;
pos = (558,1400);
},
{
name = topleft;
pos = (136,1400);
}
);
background = {
shapes = (
{
closed = 1;
nodes = (
(592,0,l),
(592,1334,l),
(978,1334,l),
(978,1400,l),
(136,1400,l),
(136,1334,l),
(520,1334,l),
(520,0,l)
);
}
);
};
layerId = "3BB16070-9AE0-46D6-9B05-19A363C2D547";
shapes = (
{
closed = 1;
nodes = (
(592,0,l),
(592,1328,l),
(978,1328,l),
(978,1400,l),
(136,1400,l),
(136,1328,l),
(520,1328,l),
(520,0,l)
);
}
);
width = 1114;
},
{
anchors = (
{
name = bottom;
pos = (616,0);
},
{
name = center;
pos = (616,640);
},
{
name = top;
pos = (616,1400);
},
{
name = topleft;
pos = (54,1400);
}
);
layerId = "1D708A55-1947-4475-A0A3-21124B6DD42B";
shapes = (
{
closed = 1;
nodes = (
(772,0,l),
(772,1096,l),
(1176,1096,l),
(1176,1400,l),
(54,1400,l),
(54,1096,l),
(456,1096,l),
(456,0,l)
);
}
);
width = 1230;
},
{
anchors = (
{
name = bottom;
pos = (514,0);
},
{
name = center;
pos = (624,634);
},
{
name = top;
pos = (760,1400);
},
{
name = topleft;
pos = (348,1400);
}
);
background = {
shapes = (
{
closed = 1;
nodes = (
(548,0,l),
(784,1334,l),
(1160,1334,l),
(1172,1400,l),
(348,1400,l),
(336,1334,l),
(710,1334,l),
(474,0,l)
);
}
);
};
layerId = "42555ED7-786B-4551-A9FC-B380F510FD49";
shapes = (
{
closed = 1;
nodes = (
(548,0,l),
(783,1328,l),
(1159,1328,l),
(1172,1400,l),
(348,1400,l),
(335,1328,l),
(709,1328,l),
(474,0,l)
);
}
);
width = 1074;
},
{
anchors = (
{
name = bottom;
pos = (584,0);
},
{
name = center;
pos = (694,640);
},
{
name = top;
pos = (828,1400);
},
{
name = topleft;
pos = (294,1400);
}
);
layerId = "DEEEE81F-2F80-4306-8755-EEA92C96C68A";
shapes = (
{
closed = 1;
nodes = (
(732,0,l),
(928,1108,l),
(1310,1108,l),
(1360,1400,l),
(294,1400,l),
(244,1108,l),
(624,1108,l),
(428,0,l)
);
}
);
width = 1160;
},
{
anchors = (
{
name = bottom;
pos = (582,0);
},
{
name = center;
pos = (582,636);
},
{
name = top;
pos = (582,1400);
},
{
name = topleft;
pos = (106,1400);
}
);
layerId = "07B4BFD6-AD6C-43B6-9499-C92B9E22D320";
shapes = (
{
closed = 1;
nodes = (
(670,0,l),
(670,1234,l),
(1060,1234,l),
(1060,1400,l),
(106,1400,l),
(106,1234,l),
(496,1234,l),
(496,0,l)
);
}
);
width = 1166;
},
{
anchors = (
{
name = bottom;
pos = (556,0);
},
{
name = center;
pos = (670,638);
},
{
name = top;
pos = (804,1400);
},
{
name = topleft;
pos = (348,1400);
}
);
layerId = "77C27521-0479-4645-83A2-7244263DD4C5";
shapes = (
{
closed = 1;
nodes = (
(646,0,l),
(864,1240,l),
(1234,1240,l),
(1260,1400,l),
(348,1400,l),
(322,1240,l),
(690,1240,l),
(472,0,l)
);
}
);
width = 1116;
}
);
unicode = 84;
},
{
glyphname = U;
kernLeft = U;
kernRight = U;
lastChange = "2021-02-02 23:21:54 +0000";
layers = (
{
anchors = (
{
name = bottom;
pos = (658,0);
},
{
name = center;
pos = (658,708);
},
{
name = ogonek;
pos = (828,0);
},
{
name = right;
pos = (1100,928);
},
{
name = top;
pos = (658,1400);
},
{
name = topright;
pos = (1286,1400);
}
);
background = {
shapes = (
{
closed = 1;
nodes = (
(936,-24,o),
(1104,124,o),
(1104,498,cs),
(1104,1400,l),
(1032,1400,l),
(1032,502,ls),
(1032,134,o),
(856,44,o),
(658,44,cs),
(554,44,o),
(456,68,o),
(386,146,cs),
(324,216,o),
(284,328,o),
(284,502,cs),
(284,1400,l),
(212,1400,l),
(212,498,ls),
(212,312,o),
(254,182,o),
(328,100,cs),
(406,14,o),
(518,-24,o),
(658,-24,cs)
);
}
);
};
layerId = "3BB16070-9AE0-46D6-9B05-19A363C2D547";
shapes = (
{
closed = 1;
nodes = (
(936,-24,o),
(1104,124,o),
(1104,498,cs),
(1104,1400,l),
(1032,1400,l),
(1032,502,ls),
(1032,134,o),
(856,44,o),
(658,44,cs),
(392,44,o),
(284,211,o),
(284,502,cs),
(284,1400,l),
(212,1400,l),
(212,498,ls),
(212,168,o),
(344,-24,o),
(658,-24,cs)
);
}
);
width = 1316;
},
{
anchors = (
{
name = bottom;
pos = (726,0);
},
{
name = center;
pos = (725,745);
},
{
name = ogonek;
pos = (918,0);
},
{
name = right;
pos = (1312,928);
},
{
name = top;
pos = (726,1400);
},
{
name = topright;
pos = (1448,1400);
}
);
background = {
shapes = (
{
closed = 1;
nodes = (
(1014,-24,o),
(1318,122,o),
(1318,540,cs),
(1318,1400,l),
(1002,1400,l),
(1002,540,ls),
(1002,344,o),
(908,282,o),
(728,282,cs),
(636,282,o),
(568,296,o),
(524,334,cs),
(476,374,o),
(452,440,o),
(452,540,cs),
(452,1400,l),
(136,1400,l),
(136,540,ls),
(136,332,o),
(210,192,o),
(320,104,cs),
(434,12,o),
(586,-24,o),
(728,-24,cs)
);
}
);
};
layerId = "1D708A55-1947-4475-A0A3-21124B6DD42B";
shapes = (
{
closed = 1;
nodes = (
(1014,-24,o),
(1318,122,o),
(1318,540,cs),
(1318,1400,l),
(1002,1400,l),
(1002,540,ls),
(1002,344,o),
(908,282,o),
(728,282,cs),
(538,282,o),
(452,346,o),
(452,540,cs),
(452,1400,l),
(136,1400,l),
(136,540,ls),
(136,182,o),
(369,-24,o),
(728,-24,cs)
);
}
);
width = 1454;
},
{
anchors = (
{
name = bottom;
pos = (614,0);
},
{
name = center;
pos = (727,708);
},
{
name = ogonek;
pos = (778,0);
},
{
name = right;
pos = (1198,928);
},
{
name = top;
pos = (850,1402);
},
{
name = topright;
pos = (1393,1400);
}
);
background = {
shapes = (
{
closed = 1;
nodes = (
(878,-24,o),
(1064,124,o),
(1128,498,cs),
(1284,1400,l),
(1210,1400,l),
(1054,502,ls),
(990,134,o),
(798,46,o),
(610,46,cs),
(482,46,o),
(320,100,o),
(320,370,cs),
(320,418,o),
(324,474,o),
(336,538,cs),
(488,1400,l),
(412,1400,l),
(258,524,ls),
(248,464,o),
(242,408,o),
(242,358,cs),
(242,90,o),
(400,-24,o),
(610,-24,cs)
);
}
);
};
layerId = "42555ED7-786B-4551-A9FC-B380F510FD49";
shapes = (
{
closed = 1;
nodes = (
(878,-24,o),
(1063,124,o),
(1128,498,cs),
(1284,1400,l),
(1210,1400,l),
(1054,502,ls),
(990,134,o),
(798,46,o),
(610,46,cs),
(345,46,o),
(289,270,o),
(336,538,cs),
(488,1400,l),
(412,1400,l),
(258,524,ls),
(201,200,o),
(303,-24,o),
(610,-24,cs)
);
}
);
width = 1276;
},
{
anchors = (
{
name = bottom;
pos = (718,0);
},
{
name = center;
pos = (822,745);
},
{
name = ogonek;
pos = (940,0);
},
{
name = right;
pos = (1424,928);
},
{
name = top;
pos = (938,1400);
},
{
name = topright;
pos = (1491,1400);
}
);
background = {
shapes = (
{
closed = 1;
nodes = (
(1014,-24,o),
(1276,66,o),
(1354,510,cs),
(1510,1400,l),
(1208,1400,l),
(1056,540,ls),
(1020,334,o),
(898,276,o),
(738,276,cs),
(622,276,o),
(518,324,o),
(518,468,cs),
(518,502,o),
(522,526,o),
(534,598,cs),
(674,1400,l),
(372,1400,l),
(236,658,ls),
(212,526,o),
(212,480,o),
(212,436,cs),
(212,118,o),
(444,-24,o),
(714,-24,cs)
);
}
);
};
layerId = "DEEEE81F-2F80-4306-8755-EEA92C96C68A";
shapes = (
{
closed = 1;
nodes = (
(1011,-24,o),
(1279,82,o),
(1354,510,cs),
(1510,1400,l),
(1208,1400,l),
(1056,540,ls),
(1018,324,o),
(895,268,o),
(756,268,cs),
(584,268,o),
(494,368,o),
(534,598,cs),
(674,1400,l),
(372,1400,l),
(239,677,ls),
(158,237,o),
(331,-24,o),
(733,-24,cs)
);
}
);
width = 1374;
},
{
anchors = (
{
name = bottom;
pos = (688,0);
},
{
name = center;
pos = (689,718);
},
{
name = ogonek;
pos = (872,0);
},
{
name = right;
pos = (1188,928);
},
{
name = top;
pos = (688,1400);
},
{
name = topright;
pos = (1344,1400);
}
);
background = {
shapes = (
{
closed = 1;
nodes = (
(1022,-24,o),
(1192,162,o),
(1192,526,cs),
(1192,1400,l),
(1018,1400,l),
(1018,526,ls),
(1018,266,o),
(910,140,o),
(688,140,cs),
(584,140,o),
(506,168,o),
(450,226,cs),
(390,288,o),
(360,388,o),
(360,526,cs),
(360,1400,l),
(186,1400,l),
(186,526,ls),
(186,336,o),
(232,196,o),
(322,104,cs),
(406,18,o),
(528,-24,o),
(688,-24,cs)
);
}
);
};
layerId = "07B4BFD6-AD6C-43B6-9499-C92B9E22D320";
shapes = (
{
closed = 1;
nodes = (
(1022,-24,o),
(1192,162,o),
(1192,526,cs),
(1192,1400,l),
(1018,1400,l),
(1018,526,ls),
(1018,266,o),
(910,140,o),
(688,140,cs),
(454,140,o),
(360,283,o),
(360,526,cs),
(360,1400,l),
(186,1400,l),
(186,526,ls),
(186,174,o),
(344,-24,o),
(688,-24,cs)
);
}
);
width = 1378;
},
{
anchors = (
{
name = bottom;
pos = (690,0);
},
{
name = center;
pos = (793,718);
},
{
name = ogonek;
pos = (868,0);
},
{
name = right;
pos = (1308,928);
},
{
name = top;
pos = (906,1402);
},
{
name = topright;
pos = (1434,1400);
}
);
background = {
shapes = (
{
closed = 1;
nodes = (
(980,-24,o),
(1170,118,o),
(1240,518,cs),
(1394,1400,l),
(1222,1400,l),
(1068,524,ls),
(1014,216,o),
(862,136,o),
(692,136,cs),
(552,136,o),
(428,192,o),
(428,400,cs),
(428,440,o),
(430,484,o),
(440,538,cs),
(592,1400,l),
(418,1400,l),
(270,558,ls),
(258,488,o),
(254,436,o),
(254,390,cs),
(254,104,o),
(438,-24,o),
(684,-24,cs)
);
}
);
};
layerId = "77C27521-0479-4645-83A2-7244263DD4C5";
shapes = (
{
closed = 1;
nodes = (
(980,-24,o),
(1170,118,o),
(1240,518,cs),
(1394,1400,l),
(1222,1400,l),
(1068,524,ls),
(1014,216,o),
(862,136,o),
(692,136,cs),
(461,136,o),
(397,293,o),
(440,538,cs),
(592,1400,l),
(418,1400,l),
(270,558,ls),
(208,204,o),
(342,-24,o),
(684,-24,cs)
);
}
);
width = 1318;
}
);
unicode = 85;
},
{
glyphname = V;
kernLeft = Y;
kernRight = Y;
lastChange = "2021-03-19 18:44:46 +0000";
layers = (
{
anchors = (
{
name = bottom;
pos = (632,0);
},
{
name = top;
pos = (632,1400);
}
);
layerId = "3BB16070-9AE0-46D6-9B05-19A363C2D547";
shapes = (
{
closed = 1;
nodes = (
(660,0,l),
(1138,1400,l),
(1060,1400,l),
(660,232,ls),
(650,204,o),
(642,180,o),
(632,148,c),
(622,180,o),
(614,204,o),
(604,232,cs),
(204,1400,l),
(126,1400,l),
(604,0,l)
);
}
);
width = 1264;
},
{
anchors = (
{
name = bottom;
pos = (702,0);
},
{
name = top;
pos = (702,1400);
}
);
layerId = "1D708A55-1947-4475-A0A3-21124B6DD42B";
shapes = (
{
closed = 1;
nodes = (
(852,0,l),
(1358,1400,l),
(1020,1400,l),
(718,530,ls),
(710,506,o),
(704,486,o),
(704,482,c),
(702,490,o),
(696,508,o),
(688,530,cs),
(388,1400,l),
(46,1400,l),
(554,0,l)
);
}
);
width = 1404;
},
{
anchors = (
{
name = bottom;
pos = (574,0);
},
{
name = top;
pos = (816,1400);
}
);
layerId = "42555ED7-786B-4551-A9FC-B380F510FD49";
shapes = (
{
closed = 1;
nodes = (
(602,0,l),
(1310,1400,l),
(1228,1400,l),
(724,400,ls),
(682,318,o),
(640,234,o),
(598,150,c),
(584,234,o),
(570,318,o),
(558,400,cs),
(400,1400,l),
(322,1400,l),
(548,0,l)
);
}
);
width = 1224;
},
{
anchors = (
{
name = bottom;
pos = (662,0);
},
{
name = top;
pos = (906,1400);
}
);
layerId = "DEEEE81F-2F80-4306-8755-EEA92C96C68A";
shapes = (
{
closed = 1;
nodes = (
(842,0,l),
(1544,1400,l),
(1218,1400,l),
(822,612,ls),
(780,528,o),
(748,438,o),
(734,396,c),
(734,438,o),
(726,554,o),
(716,622,cs),
(600,1400,l),
(284,1400,l),
(518,0,l)
);
}
);
width = 1322;
},
{
anchors = (
{
name = bottom;
pos = (658,0);
},
{
name = top;
pos = (658,1400);
}
);
layerId = "07B4BFD6-AD6C-43B6-9499-C92B9E22D320";
shapes = (
{
closed = 1;
nodes = (
(730,0,l),
(1208,1400,l),
(1022,1400,l),
(698,388,ls),
(684,346,o),
(670,298,o),
(658,246,c),
(644,298,o),
(628,350,o),
(616,388,cs),
(282,1400,l),
(96,1400,l),
(576,0,l)
);
}
);
width = 1304;
},
{
anchors = (
{
name = bottom;
pos = (626,0);
},
{
name = top;
pos = (866,1400);
}
);
layerId = "77C27521-0479-4645-83A2-7244263DD4C5";
shapes = (
{
closed = 1;
nodes = (
(700,0,l),
(1404,1400,l),
(1214,1400,l),
(712,374,ls),
(696,342,o),
(680,300,o),
(672,278,c),
(672,296,o),
(667,351,o),
(662,386,cs),
(516,1400,l),
(338,1400,l),
(556,0,l)
);
}
);
width = 1248;
}
);
unicode = 86;
},
{
glyphname = W;
kernLeft = W;
kernRight = W;
lastChange = "2021-03-19 18:11:40 +0000";
layers = (
{
anchors = (
{
name = bottom;
pos = (832,0);
},
{
name = top;
pos = (832,1400);
}
);
layerId = "3BB16070-9AE0-46D6-9B05-19A363C2D547";
shapes = (
{
closed = 1;
nodes = (
(526,0,l),
(778,1008,ls),
(796,1080,o),
(814,1152,o),
(832,1228,c),
(850,1152,o),
(868,1080,o),
(886,1008,cs),
(1138,0,l),
(1198,0,l),
(1538,1400,l),
(1460,1400,l),
(1190,280,ls),
(1182,248,o),
(1174,214,o),
(1166,176,c),
(1158,212,o),
(1150,244,o),
(1142,276,cs),
(862,1400,l),
(802,1400,l),
(522,276,ls),
(514,244,o),
(506,212,o),
(498,176,c),
(490,214,o),
(482,248,o),
(474,280,cs),
(204,1400,l),
(126,1400,l),
(466,0,l)
);
}
);
width = 1664;
},
{
anchors = (
{
name = bottom;
pos = (852,0);
},
{
name = top;
pos = (852,1400);
}
);
layerId = "1D708A55-1947-4475-A0A3-21124B6DD42B";
shapes = (
{
closed = 1;
nodes = (
(656,0,l),
(838,764,ls),
(841,778,o),
(844,792,o),
(848,832,c),
(852,794,o),
(854,778,o),
(858,762,cs),
(1048,0,l),
(1348,0,l),
(1650,1400,l),
(1324,1400,l),
(1186,686,ls),
(1182,666,o),
(1177,637,o),
(1172,604,c),
(1168,640,o),
(1164,673,o),
(1158,697,cs),
(990,1400,l),
(712,1400,l),
(546,696,ls),
(539,668,o),
(536,643,o),
(532,608,c),
(528,646,o),
(526,664,o),
(520,694,cs),
(382,1400,l),
(56,1400,l),
(356,0,l)
);
}
);
width = 1706;
},
{
anchors = (
{
name = bottom;
pos = (764,0);
},
{
name = top;
pos = (1012,1400);
}
);
layerId = "42555ED7-786B-4551-A9FC-B380F510FD49";
shapes = (
{
closed = 1;
nodes = (
(478,0,l),
(912,1046,ls),
(936,1104,o),
(958,1158,o),
(982,1218,c),
(986,1160,o),
(990,1102,o),
(994,1046,cs),
(1072,0,l),
(1134,0,l),
(1706,1400,l),
(1628,1400,l),
(1186,312,ls),
(1168,268,o),
(1150,224,o),
(1132,178,c),
(1128,226,o),
(1124,280,o),
(1122,312,cs),
(1042,1400,l),
(982,1400,l),
(532,312,ls),
(514,268,o),
(496,224,o),
(478,178,c),
(476,216,o),
(473,271,o),
(470,312,cs),
(402,1400,l),
(322,1400,l),
(414,0,l)
);
}
);
width = 1624;
},
{
anchors = (
{
name = bottom;
pos = (816,0);
},
{
name = top;
pos = (1054,1400);
}
);
layerId = "DEEEE81F-2F80-4306-8755-EEA92C96C68A";
shapes = (
{
closed = 1;
nodes = (
(622,0,l),
(908,720,ls),
(937,794,o),
(961,856,o),
(971,892,c),
(971,850,o),
(971,750,o),
(974,708,cs),
(1022,0,l),
(1302,0,l),
(1840,1400,l),
(1526,1400,l),
(1266,672,ls),
(1249,624,o),
(1239,595,o),
(1229,562,c),
(1229,596,o),
(1228,632,o),
(1226,672,cs),
(1188,1400,l),
(926,1400,l),
(636,670,ls),
(614,616,o),
(606,596,o),
(596,560,c),
(598,594,o),
(598,618,o),
(598,666,cs),
(598,1400,l),
(290,1400,l),
(342,0,l)
);
}
);
width = 1632;
},
{
anchors = (
{
name = bottom;
pos = (832,0);
},
{
name = top;
pos = (832,1400);
}
);
layerId = "07B4BFD6-AD6C-43B6-9499-C92B9E22D320";
shapes = (
{
closed = 1;
nodes = (
(528,0,l),
(798,956,ls),
(814,1014,o),
(824,1054,o),
(832,1094,c),
(840,1054,o),
(852,1012,o),
(868,956,cs),
(1138,0,l),
(1276,0,l),
(1580,1400,l),
(1402,1400,l),
(1212,490,ls),
(1200,432,o),
(1192,390,o),
(1186,352,c),
(1180,390,o),
(1170,430,o),
(1154,488,cs),
(904,1400,l),
(766,1400,l),
(518,486,ls),
(502,430,o),
(488,380,o),
(480,338,c),
(474,380,o),
(466,426,o),
(454,488,cs),
(282,1400,l),
(100,1400,l),
(386,0,l)
);
}
);
width = 1680;
},
{
anchors = (
{
name = bottom;
pos = (792,0);
},
{
name = top;
pos = (1036,1400);
}
);
layerId = "77C27521-0479-4645-83A2-7244263DD4C5";
shapes = (
{
closed = 1;
nodes = (
(500,0,l),
(946,970,ls),
(959,997,o),
(972,1030,o),
(978,1048,c),
(980,1012,o),
(982,985,o),
(985,958,cs),
(1080,0,l),
(1236,0,l),
(1756,1400,l),
(1572,1400,l),
(1224,436,ls),
(1215,412,o),
(1202,374,o),
(1194,350,c),
(1194,372,o),
(1190,418,o),
(1188,440,cs),
(1102,1400,l),
(964,1400,l),
(546,450,ls),
(532,418,o),
(518,384,o),
(506,354,c),
(506,384,o),
(506,426,o),
(506,452,cs),
(506,1400,l),
(336,1400,l),
(346,0,l)
);
}
);
width = 1596;
}
);
unicode = 87;
},
{
glyphname = X;
kernLeft = X;
kernRight = X;
lastChange = "2021-02-02 22:34:29 +0000";
layers = (
{
anchors = (
{
name = bottom;
pos = (550,0);
},
{
name = top;
pos = (550,1400);
}
);
layerId = "3BB16070-9AE0-46D6-9B05-19A363C2D547";
shapes = (
{
closed = 1;
nodes = (
(190,0,l),
(550,658,l),
(910,0,l),
(990,0,l),
(588,732,l),
(956,1400,l),
(876,1400,l),
(550,804,l),
(224,1400,l),
(144,1400,l),
(512,732,l),
(110,0,l)
);
}
);
width = 1100;
},
{
anchors = (
{
name = bottom;
pos = (728,0);
},
{
name = top;
pos = (728,1400);
}
);
layerId = "1D708A55-1947-4475-A0A3-21124B6DD42B";
shapes = (
{
closed = 1;
nodes = (
(442,0,l),
(728,432,l),
(1014,0,l),
(1386,0,l),
(914,720,l),
(1360,1400,l),
(986,1400,l),
(728,1006,l),
(468,1400,l),
(96,1400,l),
(542,720,l),
(70,0,l)
);
}
);
width = 1456;
},
{
anchors = (
{
name = bottom;
pos = (486,0);
},
{
name = top;
pos = (732,1400);
}
);
layerId = "42555ED7-786B-4551-A9FC-B380F510FD49";
shapes = (
{
closed = 1;
nodes = (
(142,0,l),
(604,652,l),
(838,0,l),
(916,0,l),
(656,726,l),
(1134,1400,l),
(1048,1400,l),
(628,806,l),
(416,1400,l),
(338,1400,l),
(576,734,l),
(56,0,l)
);
}
);
width = 1052;
},
{
anchors = (
{
name = bottom;
pos = (690,0);
},
{
name = top;
pos = (928,1400);
}
);
layerId = "DEEEE81F-2F80-4306-8755-EEA92C96C68A";
shapes = (
{
closed = 1;
nodes = (
(426,0,l),
(768,422,l),
(962,0,l),
(1310,0,l),
(994,708,l),
(1548,1400,l),
(1170,1400,l),
(858,1018,l),
(686,1400,l),
(340,1400,l),
(634,732,l),
(50,0,l)
);
}
);
width = 1378;
},
{
anchors = (
{
name = bottom;
pos = (602,0);
},
{
name = top;
pos = (602,1400);
}
);
layerId = "07B4BFD6-AD6C-43B6-9499-C92B9E22D320";
shapes = (
{
closed = 1;
nodes = (
(284,0,l),
(598,566,l),
(920,0,l),
(1116,0,l),
(696,734,l),
(1080,1400,l),
(888,1400,l),
(604,894,l),
(316,1400,l),
(120,1400,l),
(506,724,l),
(90,0,l)
);
}
);
width = 1206;
},
{
anchors = (
{
name = bottom;
pos = (566,0);
},
{
name = top;
pos = (806,1400);
}
);
layerId = "77C27521-0479-4645-83A2-7244263DD4C5";
shapes = (
{
closed = 1;
nodes = (
(276,0,l),
(674,566,l),
(884,0,l),
(1060,0,l),
(784,720,l),
(1274,1400,l),
(1076,1400,l),
(718,892,l),
(532,1400,l),
(354,1400,l),
(608,740,l),
(78,0,l)
);
}
);
width = 1138;
}
);
unicode = 88;
},
{
glyphname = Y;
kernLeft = Y;
kernRight = Y;
lastChange = "2021-03-19 18:44:15 +0000";
layers = (
{
anchors = (
{
name = bottom;
pos = (600,0);
},
{
name = center;
pos = (600,420);
},
{
name = top;
pos = (600,1400);
},
{
name = topleft;
pos = (30,1400);
}
);
layerId = "3BB16070-9AE0-46D6-9B05-19A363C2D547";
shapes = (
{
closed = 1;
nodes = (
(636,0,l),
(636,554,l),
(1092,1400,l),
(1014,1400,l),
(600,628,l),
(186,1400,l),
(108,1400,l),
(564,554,l),
(564,0,l)
);
}
);
width = 1200;
},
{
anchors = (
{
name = bottom;
pos = (712,0);
},
{
name = center;
pos = (712,420);
},
{
name = top;
pos = (712,1400);
},
{
name = topleft;
pos = (6,1400);
}
);
layerId = "1D708A55-1947-4475-A0A3-21124B6DD42B";
shapes = (
{
closed = 1;
nodes = (
(868,0,l),
(868,544,l),
(1406,1400,l),
(1048,1400,l),
(712,880,l),
(374,1400,l),
(18,1400,l),
(556,544,l),
(556,0,l)
);
}
);
width = 1424;
},
{
anchors = (
{
name = bottom;
pos = (546,0);
},
{
name = center;
pos = (620,420);
},
{
name = top;
pos = (786,1400);
},
{
name = topleft;
pos = (197,1400);
}
);
layerId = "42555ED7-786B-4551-A9FC-B380F510FD49";
shapes = (
{
closed = 1;
nodes = (
(582,0,l),
(680,554,l),
(1270,1400,l),
(1188,1400,l),
(652,630,l),
(382,1400,l),
(308,1400,l),
(608,554,l),
(510,0,l)
);
}
);
width = 1160;
},
{
anchors = (
{
name = bottom;
pos = (676,0);
},
{
name = center;
pos = (748,420);
},
{
name = top;
pos = (904,1400);
},
{
name = topleft;
pos = (197,1400);
}
);
layerId = "DEEEE81F-2F80-4306-8755-EEA92C96C68A";
shapes = (
{
closed = 1;
nodes = (
(830,0,l),
(928,562,l),
(1578,1400,l),
(1230,1400,l),
(812,866,l),
(580,1400,l),
(260,1400,l),
(622,566,l),
(522,0,l)
);
}
);
width = 1352;
},
{
anchors = (
{
name = bottom;
pos = (642,0);
},
{
name = center;
pos = (642,420);
},
{
name = top;
pos = (642,1400);
},
{
name = topleft;
pos = (16,1400);
}
);
layerId = "07B4BFD6-AD6C-43B6-9499-C92B9E22D320";
shapes = (
{
closed = 1;
nodes = (
(730,0,l),
(730,554,l),
(1202,1400,l),
(1012,1400,l),
(642,720,l),
(276,1400,l),
(80,1400,l),
(556,550,l),
(556,0,l)
);
}
);
width = 1282;
},
{
anchors = (
{
name = bottom;
pos = (604,0);
},
{
name = center;
pos = (678,420);
},
{
name = top;
pos = (844,1400);
},
{
name = topleft;
pos = (196,1400);
}
);
layerId = "77C27521-0479-4645-83A2-7244263DD4C5";
shapes = (
{
closed = 1;
nodes = (
(690,0,l),
(786,550,l),
(1390,1400,l),
(1204,1400,l),
(726,718,l),
(496,1400,l),
(318,1400,l),
(620,562,l),
(520,0,l)
);
}
);
width = 1216;
}
);
unicode = 89;
},
{
glyphname = Z;
kernLeft = Z;
kernRight = Z;
lastChange = "2020-09-15 16:22:47 +0000";
layers = (
{
anchors = (
{
name = bottom;
pos = (596,0);
},
{
name = center;
pos = (596,700);
},
{
name = top;
pos = (626,1400);
}
);
layerId = "3BB16070-9AE0-46D6-9B05-19A363C2D547";
shapes = (
{
closed = 1;
nodes = (
(1056,0,l),
(1056,66,l),
(236,66,l),
(1056,1358,l),
(1056,1400,l),
(180,1400,l),
(180,1334,l),
(962,1334,l),
(134,38,l),
(134,0,l)
);
}
);
width = 1190;
},
{
anchors = (
{
name = bottom;
pos = (624,0);
},
{
name = center;
pos = (632,700);
},
{
name = top;
pos = (668,1400);
}
);
layerId = "1D708A55-1947-4475-A0A3-21124B6DD42B";
shapes = (
{
closed = 1;
nodes = (
(1170,0,l),
(1170,298,l),
(486,298,l),
(1170,1166,l),
(1170,1400,l),
(118,1400,l),
(118,1102,l),
(750,1102,l),
(76,234,l),
(76,0,l)
);
}
);
width = 1264;
},
{
anchors = (
{
name = bottom;
pos = (540,0);
},
{
name = center;
pos = (662,700);
},
{
name = top;
pos = (810,1400);
}
);
layerId = "42555ED7-786B-4551-A9FC-B380F510FD49";
shapes = (
{
closed = 1;
nodes = (
(992,0,l),
(1000,66,l),
(198,66,l),
(1230,1358,l),
(1238,1400,l),
(380,1400,l),
(370,1334,l),
(1130,1334,l),
(96,38,l),
(88,0,l)
);
}
);
width = 1150;
},
{
anchors = (
{
name = bottom;
pos = (602,0);
},
{
name = center;
pos = (726,700);
},
{
name = top;
pos = (868,1400);
}
);
layerId = "DEEEE81F-2F80-4306-8755-EEA92C96C68A";
shapes = (
{
closed = 1;
nodes = (
(1136,0,l),
(1188,290,l),
(522,290,l),
(1342,1168,l),
(1382,1400,l),
(356,1400,l),
(306,1112,l),
(918,1112,l),
(108,234,l),
(68,0,l)
);
}
);
width = 1226;
},
{
anchors = (
{
name = bottom;
pos = (644,0);
},
{
name = center;
pos = (644,700);
},
{
name = top;
pos = (688,1400);
}
);
layerId = "07B4BFD6-AD6C-43B6-9499-C92B9E22D320";
shapes = (
{
closed = 1;
nodes = (
(1164,0,l),
(1164,166,l),
(356,166,l),
(1164,1266,l),
(1164,1400,l),
(172,1400,l),
(172,1234,l),
(938,1234,l),
(126,134,l),
(126,0,l)
);
}
);
width = 1300;
},
{
anchors = (
{
name = bottom;
pos = (610,0);
},
{
name = center;
pos = (730,700);
},
{
name = top;
pos = (878,1400);
}
);
layerId = "77C27521-0479-4645-83A2-7244263DD4C5";
shapes = (
{
closed = 1;
nodes = (
(1098,0,l),
(1126,158,l),
(376,158,l),
(1322,1272,l),
(1344,1400,l),
(410,1400,l),
(384,1244,l),
(1096,1244,l),
(144,126,l),
(122,0,l)
);
}
);
width = 1224;
}
);
unicode = 90;
},
